<svg width="70" height="70" viewBox="0 0 70 70" fill="none" xmlns="http://www.w3.org/2000/svg">
<g id="Illustration">
<ellipse id="Icon" cx="35" cy="36.2837" rx="34.9469" ry="30.4769" fill="#8833FF"/>
<path id="Icon_2" fill-rule="evenodd" clip-rule="evenodd" d="M65.5735 64.3118C66.7083 62.3408 68.2612 58.6377 68.6793 56.3681C69.0974 54.0985 68.978 53.2026 67.9029 52.5456C66.8278 51.8886 63.2442 49.1411 62.2288 48.3647C61.2135 47.5882 59.0633 45.4381 58.0479 43.3476C57.0326 41.2572 55.8978 38.5097 55.3005 36.3596C54.7032 34.2094 53.6281 31.6411 52.9711 29.9688C52.3141 28.2964 51.2988 25.9073 50.164 24.3544C49.0292 22.8015 47.7152 21.0097 46.6998 20.4125C45.6844 19.8152 44.9677 19.5763 44.1315 18.9193C43.2954 18.2623 42.6981 17.4858 41.9814 16.4108C41.2646 15.3357 40.6077 15.0968 39.8909 15.2162C39.1742 15.3357 38.2186 16.7094 37.9797 17.9637C37.7408 19.2179 14.4472 14.3203 14.4472 14.3203C14.4472 14.3203 12.2971 14.7981 11.4012 15.3357C10.5053 15.8732 9.60936 16.2316 10.0274 17.4858C10.4455 18.7401 11.6998 19.2179 12.8943 19.2777C14.0889 19.3374 14.4472 19.4568 14.4472 19.4568L14.9848 23.2196C14.9848 23.2196 13.4916 23.6974 12.3568 24.7128C11.222 25.7282 10.0274 26.863 9.60936 28.2964C9.19127 29.7299 9.96772 30.7452 11.0428 30.8647C12.1179 30.9841 13.6708 30.5063 14.4472 29.9688C15.2237 29.4312 16.0001 29.0131 16.0001 29.0131L16.6571 32.5968C16.6571 32.5968 15.4626 33.4329 14.7459 34.1497C14.0292 34.8664 13.6111 36.0012 13.4319 36.5985C13.2527 37.1957 12.9541 38.0916 12.7152 39.3459C12.4763 40.6002 12.6554 42.0336 13.0735 42.5712C13.4916 43.1087 14.9251 43.4073 15.7612 42.2128C16.5974 41.0183 17.2544 40.0626 17.6725 39.5251C18.0906 38.9875 18.3892 38.7486 18.3892 38.7486L18.8073 41.1974C18.8073 41.1974 21.5548 45.4381 20.6588 44.7811C19.7629 44.1241 30.8124 50.3954 30.8124 50.3954C30.8124 50.3954 31.1708 50.8732 31.7681 51.5899C32.3653 52.3067 33.7391 53.9193 34.2766 54.5763C34.8141 55.2333 36.7254 57.4432 37.5019 58.2196C38.2783 58.9961 39.8909 60.4295 41.5036 61.0268C43.1162 61.6241 44.9677 62.1019 46.6998 62.6992C48.4319 63.2964 51.7169 64.4312 53.0906 65.3869C54.4643 66.3425 58.7049 69.2094 59.1827 69.5678C59.6606 69.9261 60.7954 70.3442 61.9302 69.0899C63.065 67.8357 64.4387 66.2828 65.5735 64.3118Z" fill="#FBD300"/>
<path id="Icon_3" fill-rule="evenodd" clip-rule="evenodd" d="M43.1162 46.3339C43.1162 46.3937 43.8927 47.3493 44.4302 48.0063C44.9677 48.6633 45.2067 48.723 45.7442 49.0217C46.2817 49.3203 46.6998 49.5592 46.7596 49.2008C46.8193 48.8425 46.4609 48.723 45.8637 48.3049C45.2664 47.8868 44.8483 47.6479 44.3108 47.0507C43.7732 46.4534 43.2357 45.5575 43.2357 45.5575C43.2357 45.5575 43.1162 46.2742 43.1162 46.3339Z" fill="#CBAC04"/>
<path id="Icon_4" fill-rule="evenodd" clip-rule="evenodd" d="M42.2801 39.5931C42.2801 39.5931 42.1009 37.7416 42.8773 36.786C43.6538 35.8303 43.7135 35.4122 44.1316 35.1136C44.5497 34.815 45.4456 34.0982 44.8483 33.9788C44.2511 33.8593 43.2954 35.0539 42.8773 35.7109C42.4592 36.3679 41.8022 37.2638 41.8022 38.1597C41.8022 39.0556 42.0412 39.832 42.0412 39.832L42.2801 39.5931Z" fill="#CBAC04"/>
<path id="Icon_5" fill-rule="evenodd" clip-rule="evenodd" d="M21.0173 50.3356C21.0173 50.3356 22.1521 51.8885 23.7647 51.8885C25.3774 51.8885 29.3194 51.1718 30.6333 50.8732C31.9473 50.5746 39.5327 49.0217 40.7272 48.7827C41.9217 48.5438 43.176 47.7674 43.4149 46.752C43.6538 45.7367 42.9968 42.5711 42.7579 41.2571C42.519 39.9432 41.0856 33.1343 40.9661 32.2384C40.8467 31.3425 38.577 20.4722 38.577 20.4722L36.6658 11.8118C36.6658 11.8118 35.1726 5.00288 34.874 3.98752C34.5753 2.97216 33.6794 0.463631 31.7682 0.10527C29.8569 -0.253092 26.8108 0.403904 25.9746 0.583085C25.1385 0.762266 18.0907 2.31517 17.1351 2.49435C16.1794 2.67353 13.4917 3.33053 12.5361 3.86807C11.5804 4.40561 10.6845 5.00288 10.8637 7.15305C11.0429 9.30322 12.775 16.1718 12.775 16.1718L14.3279 22.921L15.5224 28.2964L16.8364 34.0302L17.9115 38.6889L19.106 43.9449L20.7784 49.6189L21.0173 50.3356Z" fill="black"/>
<path id="Icon_6" fill-rule="evenodd" clip-rule="evenodd" d="M27.0497 45.7366C27.0497 45.7366 30.9917 45.1394 33.8586 44.5421C36.7255 43.9448 39.9507 43.7657 40.4285 42.3919C40.9063 41.0182 39.891 37.4943 39.4132 35.4039C38.9354 33.3134 37.1435 25.0114 36.7852 22.9807C36.4268 20.95 35.2323 15.4551 34.8739 13.3646C34.5156 11.2742 32.9627 5.48067 32.7237 4.58477C32.4848 3.68887 31.7084 2.37487 29.7971 2.19569C27.8859 2.01651 22.8091 3.39023 21.6145 3.62914C20.42 3.86805 16.4183 4.46532 15.3432 4.8834C14.2681 5.30149 13.1333 6.13767 13.3125 7.92948C13.4917 9.72129 13.7903 12.8271 14.3278 15.037C14.8654 17.2469 16.2391 22.3237 16.5975 24.2349C16.9558 26.1462 18.1504 29.4312 18.1504 31.3424C18.1504 33.2537 19.106 36.1803 19.2255 37.1957C19.3449 38.211 20.3005 42.3919 20.5992 42.9892C20.8978 43.5865 21.6145 45.8561 23.4063 46.095C25.1982 46.3339 27.0497 45.7366 27.0497 45.7366Z" fill="#FF4A04"/>
<path id="Icon_7" fill-rule="evenodd" clip-rule="evenodd" d="M39.0548 23.1002C39.0548 23.1002 40.1299 24.7128 40.7869 25.1906C41.4439 25.6684 42.3995 26.3851 42.6384 27.1616C42.8773 27.9381 43.594 30.1479 43.7732 30.6258C43.9524 31.1036 44.1316 31.4619 44.4899 31.2828C44.8483 31.1036 44.7288 30.9244 44.251 29.909C43.7732 28.8937 43.5343 27.6394 43.1759 26.9824C42.8176 26.3254 42.5787 25.7879 41.8619 25.1906C41.1452 24.5933 40.4882 23.8766 40.0104 23.3391C39.5326 22.8015 38.6964 21.1889 38.6964 21.1889L39.0548 22.9807V23.1002Z" fill="#CBAC04"/>
<path id="Icon_8" fill-rule="evenodd" clip-rule="evenodd" d="M16.2989 47.4687C16.2989 47.4687 16.8364 49.9176 17.4934 50.6343C18.1504 51.351 19.6436 51.7094 20.2408 51.1121C20.8381 50.5148 21.7937 49.38 21.6146 47.7077C21.4354 46.0353 21.2562 45.0199 20.4798 44.5421C19.7033 44.0643 19.2255 43.8254 19.0463 43.2879C18.8671 42.7503 18.449 41.2571 18.449 41.2571C18.449 41.2571 16.8364 43.467 16.478 44.9005C16.1197 46.3339 16.2989 47.4687 16.2989 47.4687Z" fill="#FBD300"/>
<path id="Icon_9" fill-rule="evenodd" clip-rule="evenodd" d="M55.4967 56.7284C56.3926 55.4741 56.7509 54.9366 57.0496 54.2796C57.3482 53.6226 57.5274 52.5475 57.2885 52.4878C57.0496 52.428 56.8107 52.8461 56.6315 53.5031C56.4523 54.1601 56.0939 54.8769 55.6759 55.3547C55.2578 55.8325 54.7202 56.37 54.8397 56.6089C54.9591 56.8478 54.6008 57.9827 55.4967 56.7284Z" fill="#CBAC04"/>
<path id="Icon_10" fill-rule="evenodd" clip-rule="evenodd" d="M57.8259 50.039C57.8259 50.039 57.8857 49.3223 57.8857 48.9042C57.8857 48.4861 57.7662 48.4264 57.587 48.4264C57.4079 48.4264 57.2884 48.3666 57.2287 48.9042C57.1689 49.4417 57.1689 49.9793 57.1689 50.2779C57.1689 50.5765 57.2287 50.7557 57.4079 50.8154C57.587 50.8752 57.7065 50.5765 57.7662 50.3973C57.8259 50.2182 57.8259 50.039 57.8259 50.039Z" fill="#CBAC04"/>
<path id="Icon_11" fill-rule="evenodd" clip-rule="evenodd" d="M29.6329 19.7697C29.2148 18.1571 28.6772 14.8721 28.1994 13.5581C27.7216 12.2441 27.0049 11.0496 26.3479 10.3328C25.6909 9.61612 24.9144 9.49666 24.2574 9.67584C23.6004 9.85502 23.0032 9.97448 22.7643 10.8107C22.5254 11.6468 22.4059 12.6622 22.2865 13.3192C22.167 13.9762 22.2267 16.0666 22.2267 16.7834C22.2267 17.5001 22.824 20.2475 22.9434 21.0837C23.0629 21.9199 24.0185 24.0103 24.2574 24.9659C24.4963 25.9216 24.9742 26.9369 25.2131 27.7731C25.452 28.6093 26.6465 30.2816 27.423 30.3414C28.1994 30.4011 28.6772 30.4011 29.2745 29.6246C29.8718 28.8482 30.051 21.3823 29.6329 19.7697Z" fill="white"/>
<path id="Icon_12" fill-rule="evenodd" clip-rule="evenodd" d="M26.8258 35.8362C26.8258 34.5222 26.766 34.3431 27.2438 33.925C27.7217 33.5069 28.0203 33.5666 28.4384 33.268C28.8565 32.9693 29.4537 32.7902 30.4094 33.268C31.365 33.7458 32.2012 34.7611 32.3804 35.4779C32.5595 36.1946 32.4998 37.0308 31.8428 37.628C31.1858 38.2253 31.1261 38.5837 30.2302 38.5837C29.3343 38.5837 28.9162 38.7629 28.1995 38.2253C27.4827 37.6878 27.2438 37.8669 27.0647 37.0308C26.8855 36.1946 26.8258 37.1502 26.8258 35.8362Z" fill="white"/>
</g>
</svg>
