<svg width="29" height="28" viewBox="0 0 29 28" fill="none" xmlns="http://www.w3.org/2000/svg">
<path fill-rule="evenodd" clip-rule="evenodd" d="M7.96666 14.553H18.392L13.8373 19.1076C13.4733 19.4716 13.4733 20.069 13.8373 20.433C14.2013 20.797 14.7893 20.797 15.1533 20.433L21.304 14.2823C21.668 13.9183 21.668 13.3303 21.304 12.9663L15.1627 6.80631C14.9883 6.63154 14.7515 6.53333 14.5047 6.53333C14.2578 6.53333 14.021 6.63154 13.8467 6.80631C13.4827 7.17031 13.4827 7.75831 13.8467 8.12231L18.392 12.6863H7.96666C7.45333 12.6863 7.03333 13.1063 7.03333 13.6196C7.03333 14.133 7.45333 14.553 7.96666 14.553Z" fill="#C3CAD9"/>
</svg>
