<svg width="30" height="30" viewBox="0 0 30 30" fill="none" xmlns="http://www.w3.org/2000/svg">
<g id="Icon">
<path id="Icon_2" fill-rule="evenodd" clip-rule="evenodd" d="M14.5865 24.5C15.6865 24.5 16.5865 23.6 16.5865 22.5H12.5865C12.5865 23.6 13.4765 24.5 14.5865 24.5ZM20.5865 18.5V13.5C20.5865 10.43 18.9465 7.86 16.0865 7.18V6.5C16.0865 5.67 15.4165 5 14.5865 5C13.7565 5 13.0865 5.67 13.0865 6.5V7.18C10.2165 7.86 8.58648 10.42 8.58648 13.5V18.5L7.29648 19.79C6.66648 20.42 7.10648 21.5 7.99648 21.5H21.1665C22.0565 21.5 22.5065 20.42 21.8765 19.79L20.5865 18.5Z" fill="#C3CAD9"/>
</g>
</svg>
