<svg width="755" height="270" viewBox="0 0 755 270" fill="none" xmlns="http://www.w3.org/2000/svg">
<rect x="450" y="25" width="270" height="160" rx="10" fill="url(#paint0_linear_2117_130693)"/>
<g filter="url(#filter0_d_2117_130693)">
<path d="M485.269 60.2881V64.6094H482.983V60.2881H485.269ZM484.99 84.209V88.1494H482.705V84.209H484.99ZM486.602 79.4043C486.602 78.8477 486.499 78.374 486.294 77.9834C486.099 77.5928 485.776 77.2461 485.327 76.9434C484.888 76.6406 484.292 76.3477 483.54 76.0645C482.271 75.5762 481.152 75.0586 480.186 74.5117C479.229 73.9551 478.481 73.2666 477.944 72.4463C477.407 71.6162 477.139 70.5664 477.139 69.2969C477.139 68.0859 477.427 67.0361 478.003 66.1475C478.579 65.2588 479.375 64.5752 480.391 64.0967C481.416 63.6084 482.607 63.3643 483.965 63.3643C485 63.3643 485.938 63.5205 486.777 63.833C487.617 64.1357 488.34 64.585 488.945 65.1807C489.551 65.7666 490.015 66.4844 490.337 67.334C490.659 68.1836 490.82 69.1553 490.82 70.249H486.616C486.616 69.6631 486.553 69.1455 486.426 68.6963C486.299 68.2471 486.113 67.8711 485.869 67.5684C485.635 67.2656 485.352 67.041 485.02 66.8945C484.688 66.7383 484.321 66.6602 483.921 66.6602C483.325 66.6602 482.837 66.7773 482.456 67.0117C482.075 67.2461 481.797 67.5635 481.621 67.9639C481.455 68.3545 481.372 68.8037 481.372 69.3115C481.372 69.8096 481.46 70.2441 481.636 70.6152C481.821 70.9863 482.139 71.3281 482.588 71.6406C483.037 71.9434 483.652 72.2559 484.434 72.5781C485.703 73.0664 486.816 73.5938 487.773 74.1602C488.73 74.7266 489.478 75.4199 490.015 76.2402C490.552 77.0605 490.82 78.1055 490.82 79.375C490.82 80.6348 490.527 81.709 489.941 82.5977C489.355 83.4766 488.535 84.1504 487.48 84.6191C486.426 85.0781 485.205 85.3076 483.818 85.3076C482.92 85.3076 482.026 85.1904 481.138 84.9561C480.249 84.7119 479.443 84.3213 478.721 83.7842C477.998 83.2471 477.422 82.5342 476.992 81.6455C476.562 80.7471 476.348 79.6436 476.348 78.335H480.566C480.566 79.0479 480.659 79.6436 480.845 80.1221C481.03 80.5908 481.274 80.9668 481.577 81.25C481.89 81.5234 482.241 81.7188 482.632 81.8359C483.022 81.9531 483.418 82.0117 483.818 82.0117C484.443 82.0117 484.956 81.8994 485.356 81.6748C485.767 81.4502 486.074 81.1426 486.279 80.752C486.494 80.3516 486.602 79.9023 486.602 79.4043ZM512.046 63.4521H512.661V66.8213H512.412C511.299 66.8213 510.308 66.9873 509.438 67.3193C508.569 67.6514 507.832 68.125 507.227 68.7402C506.631 69.3457 506.172 70.0781 505.85 70.9375C505.537 71.7969 505.381 72.7588 505.381 73.8232V77.3682C505.381 78.1299 505.454 78.8037 505.601 79.3896C505.757 79.9658 505.977 80.4492 506.26 80.8398C506.553 81.2207 506.895 81.5088 507.285 81.7041C507.676 81.8896 508.115 81.9824 508.604 81.9824C509.062 81.9824 509.478 81.8848 509.849 81.6895C510.229 81.4941 510.552 81.2207 510.815 80.8691C511.089 80.5078 511.294 80.0879 511.431 79.6094C511.577 79.1211 511.65 78.5889 511.65 78.0127C511.65 77.4365 511.577 76.9043 511.431 76.416C511.294 75.9277 511.089 75.5078 510.815 75.1562C510.542 74.7949 510.21 74.5166 509.819 74.3213C509.429 74.126 508.989 74.0283 508.501 74.0283C507.837 74.0283 507.251 74.1846 506.743 74.4971C506.245 74.7998 505.854 75.1904 505.571 75.6689C505.288 76.1475 505.137 76.6504 505.117 77.1777L503.843 76.3574C503.872 75.6055 504.028 74.8926 504.312 74.2188C504.604 73.5449 505.005 72.9492 505.513 72.4316C506.03 71.9043 506.65 71.4941 507.373 71.2012C508.096 70.8984 508.911 70.7471 509.819 70.7471C510.815 70.7471 511.689 70.9375 512.441 71.3184C513.203 71.6992 513.838 72.2217 514.346 72.8857C514.854 73.5498 515.234 74.3164 515.488 75.1855C515.742 76.0547 515.869 76.9824 515.869 77.9688C515.869 79.0039 515.698 79.9658 515.356 80.8545C515.024 81.7432 514.541 82.5195 513.906 83.1836C513.281 83.8477 512.529 84.3652 511.65 84.7363C510.771 85.1074 509.785 85.293 508.691 85.293C507.559 85.293 506.528 85.0879 505.601 84.6777C504.683 84.2578 503.892 83.6719 503.228 82.9199C502.563 82.168 502.051 81.2744 501.689 80.2393C501.338 79.2041 501.162 78.0713 501.162 76.8408V75.2002C501.162 73.4814 501.411 71.9092 501.909 70.4834C502.417 69.0479 503.145 67.8076 504.092 66.7627C505.039 65.708 506.182 64.8926 507.52 64.3164C508.857 63.7402 510.366 63.4521 512.046 63.4521ZM522.71 72.5049H524.966C525.688 72.5049 526.284 72.3828 526.753 72.1387C527.222 71.8848 527.568 71.5332 527.793 71.084C528.027 70.625 528.145 70.0928 528.145 69.4873C528.145 68.9404 528.037 68.457 527.822 68.0371C527.617 67.6074 527.3 67.2754 526.87 67.041C526.44 66.7969 525.898 66.6748 525.244 66.6748C524.727 66.6748 524.248 66.7773 523.809 66.9824C523.369 67.1875 523.018 67.4756 522.754 67.8467C522.49 68.2178 522.358 68.667 522.358 69.1943H518.125C518.125 68.0225 518.438 67.002 519.062 66.1328C519.697 65.2637 520.547 64.585 521.611 64.0967C522.676 63.6084 523.848 63.3643 525.127 63.3643C526.572 63.3643 527.837 63.5986 528.921 64.0674C530.005 64.5264 530.85 65.2051 531.455 66.1035C532.061 67.002 532.363 68.1152 532.363 69.4434C532.363 70.1172 532.207 70.7715 531.895 71.4062C531.582 72.0312 531.133 72.5977 530.547 73.1055C529.971 73.6035 529.268 74.0039 528.438 74.3066C527.607 74.5996 526.675 74.7461 525.64 74.7461H522.71V72.5049ZM522.71 75.7129V73.5303H525.64C526.802 73.5303 527.822 73.6621 528.701 73.9258C529.58 74.1895 530.317 74.5703 530.913 75.0684C531.509 75.5566 531.958 76.1377 532.261 76.8115C532.563 77.4756 532.715 78.2129 532.715 79.0234C532.715 80.0195 532.524 80.9082 532.144 81.6895C531.763 82.4609 531.226 83.1152 530.532 83.6523C529.849 84.1895 529.048 84.5996 528.13 84.8828C527.212 85.1562 526.211 85.293 525.127 85.293C524.229 85.293 523.345 85.1709 522.476 84.9268C521.616 84.6729 520.835 84.2969 520.132 83.7988C519.438 83.291 518.882 82.6562 518.462 81.8945C518.052 81.123 517.847 80.21 517.847 79.1553H522.08C522.08 79.7021 522.217 80.1904 522.49 80.6201C522.764 81.0498 523.14 81.3867 523.618 81.6309C524.106 81.875 524.648 81.9971 525.244 81.9971C525.918 81.9971 526.494 81.875 526.973 81.6309C527.461 81.377 527.832 81.0254 528.086 80.5762C528.35 80.1172 528.481 79.585 528.481 78.9795C528.481 78.1982 528.34 77.5732 528.057 77.1045C527.773 76.626 527.368 76.2744 526.841 76.0498C526.313 75.8252 525.688 75.7129 524.966 75.7129H522.71ZM550.205 81.7041V85H535.615V82.1875L542.515 74.79C543.208 74.0186 543.755 73.3398 544.155 72.7539C544.556 72.1582 544.844 71.626 545.02 71.1572C545.205 70.6787 545.298 70.2246 545.298 69.7949C545.298 69.1504 545.19 68.5986 544.976 68.1396C544.761 67.6709 544.443 67.3096 544.023 67.0557C543.613 66.8018 543.105 66.6748 542.5 66.6748C541.855 66.6748 541.299 66.8311 540.83 67.1436C540.371 67.4561 540.02 67.8906 539.775 68.4473C539.541 69.0039 539.424 69.6338 539.424 70.3369H535.19C535.19 69.0674 535.493 67.9053 536.099 66.8506C536.704 65.7861 537.559 64.9414 538.662 64.3164C539.766 63.6816 541.074 63.3643 542.588 63.3643C544.082 63.3643 545.342 63.6084 546.367 64.0967C547.402 64.5752 548.184 65.2686 548.711 66.1768C549.248 67.0752 549.517 68.1494 549.517 69.3994C549.517 70.1025 549.404 70.791 549.18 71.4648C548.955 72.1289 548.633 72.793 548.213 73.457C547.803 74.1113 547.305 74.7754 546.719 75.4492C546.133 76.123 545.483 76.8213 544.771 77.5439L541.064 81.7041H550.205ZM567.432 81.7041V85H552.842V82.1875L559.741 74.79C560.435 74.0186 560.981 73.3398 561.382 72.7539C561.782 72.1582 562.07 71.626 562.246 71.1572C562.432 70.6787 562.524 70.2246 562.524 69.7949C562.524 69.1504 562.417 68.5986 562.202 68.1396C561.987 67.6709 561.67 67.3096 561.25 67.0557C560.84 66.8018 560.332 66.6748 559.727 66.6748C559.082 66.6748 558.525 66.8311 558.057 67.1436C557.598 67.4561 557.246 67.8906 557.002 68.4473C556.768 69.0039 556.65 69.6338 556.65 70.3369H552.417C552.417 69.0674 552.72 67.9053 553.325 66.8506C553.931 65.7861 554.785 64.9414 555.889 64.3164C556.992 63.6816 558.301 63.3643 559.814 63.3643C561.309 63.3643 562.568 63.6084 563.594 64.0967C564.629 64.5752 565.41 65.2686 565.938 66.1768C566.475 67.0752 566.743 68.1494 566.743 69.3994C566.743 70.1025 566.631 70.791 566.406 71.4648C566.182 72.1289 565.859 72.793 565.439 73.457C565.029 74.1113 564.531 74.7754 563.945 75.4492C563.359 76.123 562.71 76.8213 561.997 77.5439L558.291 81.7041H567.432Z" fill="white"/>
<path d="M643.568 70.0469L646.125 77.2656L648.668 70.0469H651.361V80H649.304V77.2793L649.509 72.583L646.822 80H645.414L642.734 72.5898L642.939 77.2793V80H640.889V70.0469H643.568ZM655.784 77.2041L657.151 72.6035H659.271L656.297 81.1484L656.133 81.5381C655.691 82.5042 654.962 82.9873 653.945 82.9873C653.658 82.9873 653.367 82.944 653.07 82.8574V81.3604L653.371 81.3672C653.745 81.3672 654.023 81.3102 654.205 81.1963C654.392 81.0824 654.538 80.8932 654.643 80.6289L654.875 80.0205L652.284 72.6035H654.41L655.784 77.2041ZM663.666 80V70.0469H667.152C668.36 70.0469 669.276 70.2793 669.9 70.7441C670.525 71.2044 670.837 71.8812 670.837 72.7744C670.837 73.262 670.712 73.6927 670.461 74.0664C670.21 74.4355 669.862 74.7067 669.415 74.8799C669.925 75.0075 670.326 75.265 670.618 75.6523C670.914 76.0397 671.062 76.5137 671.062 77.0742C671.062 78.0312 670.757 78.7559 670.146 79.248C669.536 79.7402 668.665 79.9909 667.535 80H663.666ZM665.717 75.666V78.3525H667.474C667.957 78.3525 668.333 78.2386 668.602 78.0107C668.875 77.7783 669.012 77.4593 669.012 77.0537C669.012 76.1423 668.54 75.6797 667.597 75.666H665.717ZM665.717 74.2168H667.234C668.269 74.1986 668.786 73.7861 668.786 72.9795C668.786 72.5283 668.654 72.2048 668.39 72.0088C668.13 71.8083 667.717 71.708 667.152 71.708H665.717V74.2168ZM676.764 80C676.673 79.8223 676.606 79.6012 676.565 79.3369C676.087 79.8701 675.465 80.1367 674.699 80.1367C673.975 80.1367 673.373 79.9271 672.895 79.5078C672.421 79.0885 672.184 78.5599 672.184 77.9219C672.184 77.138 672.473 76.5365 673.052 76.1172C673.635 75.6979 674.476 75.486 675.574 75.4814H676.483V75.0576C676.483 74.7158 676.395 74.4424 676.217 74.2373C676.044 74.0322 675.768 73.9297 675.39 73.9297C675.057 73.9297 674.795 74.0094 674.604 74.1689C674.417 74.3285 674.323 74.5472 674.323 74.8252H672.348C672.348 74.3968 672.48 74.0003 672.744 73.6357C673.008 73.2712 673.382 72.9863 673.865 72.7812C674.348 72.5716 674.891 72.4668 675.492 72.4668C676.404 72.4668 677.126 72.6969 677.659 73.1572C678.197 73.613 678.466 74.2555 678.466 75.085V78.291C678.47 78.9928 678.568 79.5238 678.76 79.8838V80H676.764ZM675.13 78.626C675.422 78.626 675.69 78.5622 675.937 78.4346C676.183 78.3024 676.365 78.127 676.483 77.9082V76.6367H675.745C674.756 76.6367 674.23 76.9785 674.166 77.6621L674.159 77.7783C674.159 78.0244 674.246 78.2272 674.419 78.3867C674.592 78.5462 674.829 78.626 675.13 78.626ZM681.802 72.6035L681.863 73.458C682.392 72.7972 683.101 72.4668 683.989 72.4668C684.773 72.4668 685.356 72.6969 685.739 73.1572C686.122 73.6175 686.318 74.3057 686.327 75.2217V80H684.352V75.2695C684.352 74.8503 684.26 74.5472 684.078 74.3604C683.896 74.1689 683.593 74.0732 683.169 74.0732C682.613 74.0732 682.196 74.3102 681.918 74.7842V80H679.942V72.6035H681.802ZM690.518 77.0332L689.807 77.7441V80H687.831V69.5H689.807V75.3174L690.189 74.8252L692.083 72.6035H694.455L691.782 75.6865L694.688 80H692.418L690.518 77.0332Z" fill="white"/>
<g filter="url(#filter1_d_2117_130693)">
<rect x="475" y="112.5" width="5" height="5" rx="2.5" fill="white"/>
</g>
<g filter="url(#filter2_d_2117_130693)">
<rect x="483" y="112.5" width="5" height="5" rx="2.5" fill="white"/>
</g>
<g filter="url(#filter3_d_2117_130693)">
<rect x="491" y="112.5" width="5" height="5" rx="2.5" fill="white"/>
</g>
<g filter="url(#filter4_d_2117_130693)">
<rect x="499" y="112.5" width="5" height="5" rx="2.5" fill="white"/>
</g>
<g filter="url(#filter5_d_2117_130693)">
<rect x="514" y="112.5" width="5" height="5" rx="2.5" fill="white"/>
</g>
<g filter="url(#filter6_d_2117_130693)">
<rect x="522" y="112.5" width="5" height="5" rx="2.5" fill="white"/>
</g>
<g filter="url(#filter7_d_2117_130693)">
<rect x="530" y="112.5" width="5" height="5" rx="2.5" fill="white"/>
</g>
<g filter="url(#filter8_d_2117_130693)">
<rect x="538" y="112.5" width="5" height="5" rx="2.5" fill="white"/>
</g>
<g filter="url(#filter9_d_2117_130693)">
<rect x="553" y="112.5" width="5" height="5" rx="2.5" fill="white"/>
</g>
<g filter="url(#filter10_d_2117_130693)">
<rect x="561" y="112.5" width="5" height="5" rx="2.5" fill="white"/>
</g>
<g filter="url(#filter11_d_2117_130693)">
<rect x="569" y="112.5" width="5" height="5" rx="2.5" fill="white"/>
</g>
<g filter="url(#filter12_d_2117_130693)">
<rect x="577" y="112.5" width="5" height="5" rx="2.5" fill="white"/>
</g>
<path d="M605.438 113.312V115.281C605.438 116.135 605.346 116.872 605.164 117.492C604.982 118.107 604.719 118.612 604.375 119.008C604.036 119.398 603.633 119.688 603.164 119.875C602.695 120.062 602.174 120.156 601.602 120.156C601.143 120.156 600.716 120.099 600.32 119.984C599.924 119.865 599.568 119.68 599.25 119.43C598.938 119.18 598.667 118.865 598.438 118.484C598.214 118.099 598.042 117.641 597.922 117.109C597.802 116.578 597.742 115.969 597.742 115.281V113.312C597.742 112.458 597.833 111.727 598.016 111.117C598.203 110.503 598.466 110 598.805 109.609C599.148 109.219 599.555 108.932 600.023 108.75C600.492 108.562 601.013 108.469 601.586 108.469C602.044 108.469 602.469 108.529 602.859 108.648C603.255 108.763 603.612 108.943 603.93 109.188C604.247 109.432 604.518 109.747 604.742 110.133C604.966 110.513 605.138 110.969 605.258 111.5C605.378 112.026 605.438 112.63 605.438 113.312ZM603.18 115.578V113.008C603.18 112.596 603.156 112.237 603.109 111.93C603.068 111.622 603.003 111.362 602.914 111.148C602.826 110.93 602.716 110.753 602.586 110.617C602.456 110.482 602.307 110.383 602.141 110.32C601.974 110.258 601.789 110.227 601.586 110.227C601.331 110.227 601.104 110.276 600.906 110.375C600.714 110.474 600.549 110.633 600.414 110.852C600.279 111.065 600.174 111.352 600.102 111.711C600.034 112.065 600 112.497 600 113.008V115.578C600 115.99 600.021 116.352 600.062 116.664C600.109 116.977 600.177 117.245 600.266 117.469C600.359 117.688 600.469 117.867 600.594 118.008C600.724 118.143 600.872 118.242 601.039 118.305C601.211 118.367 601.398 118.398 601.602 118.398C601.852 118.398 602.073 118.349 602.266 118.25C602.464 118.146 602.63 117.984 602.766 117.766C602.906 117.542 603.01 117.25 603.078 116.891C603.146 116.531 603.18 116.094 603.18 115.578ZM608.562 118.289H608.711C609.336 118.289 609.872 118.214 610.32 118.062C610.773 117.906 611.146 117.682 611.438 117.391C611.729 117.099 611.945 116.742 612.086 116.32C612.227 115.893 612.297 115.409 612.297 114.867V112.711C612.297 112.299 612.255 111.938 612.172 111.625C612.094 111.312 611.979 111.055 611.828 110.852C611.682 110.643 611.51 110.487 611.312 110.383C611.12 110.279 610.906 110.227 610.672 110.227C610.422 110.227 610.201 110.289 610.008 110.414C609.815 110.534 609.651 110.698 609.516 110.906C609.385 111.115 609.284 111.354 609.211 111.625C609.143 111.891 609.109 112.169 609.109 112.461C609.109 112.753 609.143 113.031 609.211 113.297C609.279 113.557 609.38 113.789 609.516 113.992C609.651 114.19 609.82 114.349 610.023 114.469C610.227 114.583 610.466 114.641 610.742 114.641C611.008 114.641 611.245 114.591 611.453 114.492C611.667 114.388 611.846 114.253 611.992 114.086C612.143 113.919 612.258 113.734 612.336 113.531C612.419 113.328 612.461 113.122 612.461 112.914L613.203 113.32C613.203 113.685 613.125 114.044 612.969 114.398C612.812 114.753 612.594 115.076 612.312 115.367C612.036 115.654 611.716 115.883 611.352 116.055C610.987 116.227 610.596 116.312 610.18 116.312C609.648 116.312 609.177 116.216 608.766 116.023C608.354 115.826 608.005 115.555 607.719 115.211C607.438 114.862 607.224 114.456 607.078 113.992C606.932 113.529 606.859 113.026 606.859 112.484C606.859 111.932 606.948 111.414 607.125 110.93C607.307 110.445 607.565 110.018 607.898 109.648C608.237 109.279 608.641 108.99 609.109 108.781C609.583 108.568 610.109 108.461 610.688 108.461C611.266 108.461 611.792 108.573 612.266 108.797C612.74 109.021 613.146 109.339 613.484 109.75C613.823 110.156 614.083 110.643 614.266 111.211C614.453 111.779 614.547 112.409 614.547 113.102V113.883C614.547 114.622 614.466 115.31 614.305 115.945C614.148 116.581 613.911 117.156 613.594 117.672C613.281 118.182 612.891 118.62 612.422 118.984C611.958 119.349 611.419 119.628 610.805 119.82C610.19 120.013 609.503 120.109 608.742 120.109H608.562V118.289ZM623.82 116.883C623.82 117.596 623.654 118.198 623.32 118.688C622.987 119.172 622.529 119.539 621.945 119.789C621.367 120.034 620.711 120.156 619.977 120.156C619.242 120.156 618.583 120.034 618 119.789C617.417 119.539 616.956 119.172 616.617 118.688C616.279 118.198 616.109 117.596 616.109 116.883C616.109 116.404 616.206 115.971 616.398 115.586C616.591 115.195 616.859 114.862 617.203 114.586C617.552 114.305 617.961 114.091 618.43 113.945C618.898 113.794 619.409 113.719 619.961 113.719C620.701 113.719 621.362 113.849 621.945 114.109C622.529 114.37 622.987 114.737 623.32 115.211C623.654 115.685 623.82 116.242 623.82 116.883ZM621.555 116.734C621.555 116.385 621.487 116.086 621.352 115.836C621.221 115.581 621.036 115.385 620.797 115.25C620.557 115.115 620.279 115.047 619.961 115.047C619.643 115.047 619.365 115.115 619.125 115.25C618.885 115.385 618.698 115.581 618.562 115.836C618.432 116.086 618.367 116.385 618.367 116.734C618.367 117.078 618.432 117.375 618.562 117.625C618.698 117.875 618.885 118.068 619.125 118.203C619.37 118.333 619.654 118.398 619.977 118.398C620.299 118.398 620.578 118.333 620.812 118.203C621.052 118.068 621.234 117.875 621.359 117.625C621.49 117.375 621.555 117.078 621.555 116.734ZM623.578 111.641C623.578 112.219 623.424 112.732 623.117 113.18C622.81 113.622 622.383 113.969 621.836 114.219C621.294 114.469 620.674 114.594 619.977 114.594C619.273 114.594 618.648 114.469 618.102 114.219C617.555 113.969 617.128 113.622 616.82 113.18C616.513 112.732 616.359 112.219 616.359 111.641C616.359 110.953 616.513 110.375 616.82 109.906C617.133 109.432 617.56 109.073 618.102 108.828C618.648 108.583 619.268 108.461 619.961 108.461C620.664 108.461 621.286 108.583 621.828 108.828C622.375 109.073 622.802 109.432 623.109 109.906C623.422 110.375 623.578 110.953 623.578 111.641ZM621.328 111.742C621.328 111.435 621.273 111.169 621.164 110.945C621.055 110.716 620.898 110.539 620.695 110.414C620.497 110.289 620.253 110.227 619.961 110.227C619.68 110.227 619.438 110.286 619.234 110.406C619.036 110.526 618.883 110.701 618.773 110.93C618.669 111.154 618.617 111.424 618.617 111.742C618.617 112.049 618.669 112.32 618.773 112.555C618.883 112.784 619.039 112.964 619.242 113.094C619.445 113.224 619.69 113.289 619.977 113.289C620.263 113.289 620.505 113.224 620.703 113.094C620.906 112.964 621.06 112.784 621.164 112.555C621.273 112.32 621.328 112.049 621.328 111.742ZM627.461 114.82L625.664 114.391L626.312 108.625H632.703V110.445H628.164L627.883 112.969C628.034 112.88 628.263 112.786 628.57 112.688C628.878 112.583 629.221 112.531 629.602 112.531C630.154 112.531 630.643 112.617 631.07 112.789C631.497 112.961 631.859 113.211 632.156 113.539C632.458 113.867 632.688 114.268 632.844 114.742C633 115.216 633.078 115.753 633.078 116.352C633.078 116.857 633 117.339 632.844 117.797C632.688 118.25 632.451 118.656 632.133 119.016C631.815 119.37 631.417 119.648 630.938 119.852C630.458 120.055 629.891 120.156 629.234 120.156C628.745 120.156 628.271 120.083 627.812 119.938C627.359 119.792 626.951 119.576 626.586 119.289C626.227 119.003 625.938 118.656 625.719 118.25C625.505 117.839 625.393 117.37 625.383 116.844H627.617C627.648 117.167 627.732 117.445 627.867 117.68C628.008 117.909 628.193 118.086 628.422 118.211C628.651 118.336 628.919 118.398 629.227 118.398C629.513 118.398 629.758 118.344 629.961 118.234C630.164 118.125 630.328 117.974 630.453 117.781C630.578 117.583 630.669 117.354 630.727 117.094C630.789 116.828 630.82 116.542 630.82 116.234C630.82 115.927 630.784 115.648 630.711 115.398C630.638 115.148 630.526 114.932 630.375 114.75C630.224 114.568 630.031 114.427 629.797 114.328C629.568 114.229 629.299 114.18 628.992 114.18C628.576 114.18 628.253 114.245 628.023 114.375C627.799 114.505 627.612 114.654 627.461 114.82Z" fill="white"/>
<path d="M477.939 148.353H482.294V150H475.889V140.047H477.939V148.353ZM485.432 150H483.449V139.5H485.432V150ZM486.758 146.233C486.758 145.5 486.899 144.846 487.182 144.271C487.464 143.697 487.87 143.253 488.398 142.938C488.932 142.624 489.549 142.467 490.251 142.467C491.249 142.467 492.062 142.772 492.691 143.383C493.325 143.993 493.678 144.823 493.751 145.871L493.765 146.377C493.765 147.512 493.448 148.423 492.814 149.111C492.181 149.795 491.331 150.137 490.265 150.137C489.198 150.137 488.346 149.795 487.708 149.111C487.075 148.428 486.758 147.498 486.758 146.322V146.233ZM488.733 146.377C488.733 147.079 488.866 147.617 489.13 147.99C489.394 148.359 489.772 148.544 490.265 148.544C490.743 148.544 491.117 148.362 491.386 147.997C491.655 147.628 491.789 147.04 491.789 146.233C491.789 145.545 491.655 145.012 491.386 144.634C491.117 144.256 490.739 144.066 490.251 144.066C489.768 144.066 489.394 144.256 489.13 144.634C488.866 145.007 488.733 145.589 488.733 146.377ZM497.634 147.204L499.001 142.604H501.12L498.146 151.148L497.982 151.538C497.54 152.504 496.811 152.987 495.795 152.987C495.508 152.987 495.216 152.944 494.92 152.857V151.36L495.221 151.367C495.594 151.367 495.872 151.31 496.055 151.196C496.242 151.082 496.387 150.893 496.492 150.629L496.725 150.021L494.134 142.604H496.26L497.634 147.204ZM501.496 146.247C501.496 145.094 501.754 144.176 502.269 143.492C502.788 142.809 503.497 142.467 504.395 142.467C505.115 142.467 505.709 142.736 506.179 143.273V139.5H508.161V150H506.377L506.281 149.214C505.789 149.829 505.156 150.137 504.381 150.137C503.51 150.137 502.811 149.795 502.282 149.111C501.758 148.423 501.496 147.468 501.496 146.247ZM503.472 146.391C503.472 147.083 503.592 147.614 503.834 147.983C504.076 148.353 504.426 148.537 504.887 148.537C505.497 148.537 505.928 148.28 506.179 147.765V144.846C505.933 144.331 505.507 144.073 504.9 144.073C503.948 144.073 503.472 144.846 503.472 146.391ZM515.359 148.353H519.714V150H513.309V140.047H515.359V148.353ZM522.681 147.204L524.048 142.604H526.167L523.193 151.148L523.029 151.538C522.587 152.504 521.858 152.987 520.842 152.987C520.555 152.987 520.263 152.944 519.967 152.857V151.36L520.268 151.367C520.641 151.367 520.919 151.31 521.102 151.196C521.288 151.082 521.434 150.893 521.539 150.629L521.771 150.021L519.181 142.604H521.307L522.681 147.204ZM526.529 146.233C526.529 145.5 526.671 144.846 526.953 144.271C527.236 143.697 527.641 143.253 528.17 142.938C528.703 142.624 529.321 142.467 530.022 142.467C531.021 142.467 531.834 142.772 532.463 143.383C533.096 143.993 533.45 144.823 533.522 145.871L533.536 146.377C533.536 147.512 533.219 148.423 532.586 149.111C531.952 149.795 531.103 150.137 530.036 150.137C528.97 150.137 528.118 149.795 527.479 149.111C526.846 148.428 526.529 147.498 526.529 146.322V146.233ZM528.505 146.377C528.505 147.079 528.637 147.617 528.901 147.99C529.166 148.359 529.544 148.544 530.036 148.544C530.515 148.544 530.888 148.362 531.157 147.997C531.426 147.628 531.561 147.04 531.561 146.233C531.561 145.545 531.426 145.012 531.157 144.634C530.888 144.256 530.51 144.066 530.022 144.066C529.539 144.066 529.166 144.256 528.901 144.634C528.637 145.007 528.505 145.589 528.505 146.377ZM536.571 142.604L536.633 143.458C537.161 142.797 537.87 142.467 538.759 142.467C539.543 142.467 540.126 142.697 540.509 143.157C540.892 143.618 541.088 144.306 541.097 145.222V150H539.121V145.27C539.121 144.85 539.03 144.547 538.848 144.36C538.665 144.169 538.362 144.073 537.938 144.073C537.382 144.073 536.965 144.31 536.688 144.784V150H534.712V142.604H536.571ZM546.606 147.956C546.606 147.715 546.486 147.525 546.244 147.389C546.007 147.247 545.624 147.122 545.096 147.013C543.337 146.644 542.457 145.896 542.457 144.771C542.457 144.114 542.728 143.567 543.271 143.13C543.817 142.688 544.531 142.467 545.41 142.467C546.349 142.467 547.099 142.688 547.659 143.13C548.224 143.572 548.507 144.146 548.507 144.853H546.531C546.531 144.57 546.44 144.338 546.258 144.155C546.076 143.968 545.791 143.875 545.403 143.875C545.071 143.875 544.813 143.95 544.631 144.101C544.449 144.251 544.357 144.442 544.357 144.675C544.357 144.894 544.46 145.071 544.665 145.208C544.875 145.34 545.226 145.456 545.718 145.557C546.21 145.652 546.625 145.762 546.962 145.885C548.006 146.268 548.527 146.931 548.527 147.874C548.527 148.549 548.238 149.095 547.659 149.515C547.08 149.929 546.333 150.137 545.417 150.137C544.797 150.137 544.246 150.027 543.763 149.809C543.284 149.585 542.908 149.282 542.635 148.899C542.361 148.512 542.225 148.095 542.225 147.648H544.098C544.116 147.999 544.246 148.268 544.487 148.455C544.729 148.642 545.052 148.735 545.458 148.735C545.836 148.735 546.121 148.665 546.312 148.523C546.508 148.378 546.606 148.188 546.606 147.956Z" fill="white"/>
<path d="M680.415 154.714H669.605V135.286H680.415L680.415 154.714Z" fill="#FF5F00"/>
<path d="M670.291 145C670.291 141.059 672.136 137.548 675.009 135.286C672.834 133.571 670.144 132.64 667.374 132.644C660.551 132.644 655.02 138.176 655.02 145C655.02 151.824 660.551 157.356 667.374 157.356C670.144 157.36 672.834 156.429 675.01 154.714C672.136 152.452 670.291 148.941 670.291 145Z" fill="#EB001B"/>
<path d="M695 145C695 151.824 689.469 157.356 682.646 157.356C679.876 157.36 677.185 156.429 675.01 154.714C677.884 152.452 679.729 148.941 679.729 145C679.729 141.059 677.884 137.548 675.01 135.286C677.185 133.571 679.876 132.64 682.646 132.644C689.469 132.644 695 138.176 695 145" fill="#F79E1B"/>
</g>
<rect x="265" y="15" width="300" height="180" rx="10" fill="url(#paint1_linear_2117_130693)"/>
<g filter="url(#filter13_d_2117_130693)">
<path d="M300.269 50.2881V54.6094H297.983V50.2881H300.269ZM299.99 74.209V78.1494H297.705V74.209H299.99ZM301.602 69.4043C301.602 68.8477 301.499 68.374 301.294 67.9834C301.099 67.5928 300.776 67.2461 300.327 66.9434C299.888 66.6406 299.292 66.3477 298.54 66.0645C297.271 65.5762 296.152 65.0586 295.186 64.5117C294.229 63.9551 293.481 63.2666 292.944 62.4463C292.407 61.6162 292.139 60.5664 292.139 59.2969C292.139 58.0859 292.427 57.0361 293.003 56.1475C293.579 55.2588 294.375 54.5752 295.391 54.0967C296.416 53.6084 297.607 53.3643 298.965 53.3643C300 53.3643 300.938 53.5205 301.777 53.833C302.617 54.1357 303.34 54.585 303.945 55.1807C304.551 55.7666 305.015 56.4844 305.337 57.334C305.659 58.1836 305.82 59.1553 305.82 60.249H301.616C301.616 59.6631 301.553 59.1455 301.426 58.6963C301.299 58.2471 301.113 57.8711 300.869 57.5684C300.635 57.2656 300.352 57.041 300.02 56.8945C299.688 56.7383 299.321 56.6602 298.921 56.6602C298.325 56.6602 297.837 56.7773 297.456 57.0117C297.075 57.2461 296.797 57.5635 296.621 57.9639C296.455 58.3545 296.372 58.8037 296.372 59.3115C296.372 59.8096 296.46 60.2441 296.636 60.6152C296.821 60.9863 297.139 61.3281 297.588 61.6406C298.037 61.9434 298.652 62.2559 299.434 62.5781C300.703 63.0664 301.816 63.5938 302.773 64.1602C303.73 64.7266 304.478 65.4199 305.015 66.2402C305.552 67.0605 305.82 68.1055 305.82 69.375C305.82 70.6348 305.527 71.709 304.941 72.5977C304.355 73.4766 303.535 74.1504 302.48 74.6191C301.426 75.0781 300.205 75.3076 298.818 75.3076C297.92 75.3076 297.026 75.1904 296.138 74.9561C295.249 74.7119 294.443 74.3213 293.721 73.7842C292.998 73.2471 292.422 72.5342 291.992 71.6455C291.562 70.7471 291.348 69.6436 291.348 68.335H295.566C295.566 69.0479 295.659 69.6436 295.845 70.1221C296.03 70.5908 296.274 70.9668 296.577 71.25C296.89 71.5234 297.241 71.7188 297.632 71.8359C298.022 71.9531 298.418 72.0117 298.818 72.0117C299.443 72.0117 299.956 71.8994 300.356 71.6748C300.767 71.4502 301.074 71.1426 301.279 70.752C301.494 70.3516 301.602 69.9023 301.602 69.4043ZM327.046 53.4521H327.661V56.8213H327.412C326.299 56.8213 325.308 56.9873 324.438 57.3193C323.569 57.6514 322.832 58.125 322.227 58.7402C321.631 59.3457 321.172 60.0781 320.85 60.9375C320.537 61.7969 320.381 62.7588 320.381 63.8232V67.3682C320.381 68.1299 320.454 68.8037 320.601 69.3896C320.757 69.9658 320.977 70.4492 321.26 70.8398C321.553 71.2207 321.895 71.5088 322.285 71.7041C322.676 71.8896 323.115 71.9824 323.604 71.9824C324.062 71.9824 324.478 71.8848 324.849 71.6895C325.229 71.4941 325.552 71.2207 325.815 70.8691C326.089 70.5078 326.294 70.0879 326.431 69.6094C326.577 69.1211 326.65 68.5889 326.65 68.0127C326.65 67.4365 326.577 66.9043 326.431 66.416C326.294 65.9277 326.089 65.5078 325.815 65.1562C325.542 64.7949 325.21 64.5166 324.819 64.3213C324.429 64.126 323.989 64.0283 323.501 64.0283C322.837 64.0283 322.251 64.1846 321.743 64.4971C321.245 64.7998 320.854 65.1904 320.571 65.6689C320.288 66.1475 320.137 66.6504 320.117 67.1777L318.843 66.3574C318.872 65.6055 319.028 64.8926 319.312 64.2188C319.604 63.5449 320.005 62.9492 320.513 62.4316C321.03 61.9043 321.65 61.4941 322.373 61.2012C323.096 60.8984 323.911 60.7471 324.819 60.7471C325.815 60.7471 326.689 60.9375 327.441 61.3184C328.203 61.6992 328.838 62.2217 329.346 62.8857C329.854 63.5498 330.234 64.3164 330.488 65.1855C330.742 66.0547 330.869 66.9824 330.869 67.9688C330.869 69.0039 330.698 69.9658 330.356 70.8545C330.024 71.7432 329.541 72.5195 328.906 73.1836C328.281 73.8477 327.529 74.3652 326.65 74.7363C325.771 75.1074 324.785 75.293 323.691 75.293C322.559 75.293 321.528 75.0879 320.601 74.6777C319.683 74.2578 318.892 73.6719 318.228 72.9199C317.563 72.168 317.051 71.2744 316.689 70.2393C316.338 69.2041 316.162 68.0713 316.162 66.8408V65.2002C316.162 63.4814 316.411 61.9092 316.909 60.4834C317.417 59.0479 318.145 57.8076 319.092 56.7627C320.039 55.708 321.182 54.8926 322.52 54.3164C323.857 53.7402 325.366 53.4521 327.046 53.4521ZM337.71 62.5049H339.966C340.688 62.5049 341.284 62.3828 341.753 62.1387C342.222 61.8848 342.568 61.5332 342.793 61.084C343.027 60.625 343.145 60.0928 343.145 59.4873C343.145 58.9404 343.037 58.457 342.822 58.0371C342.617 57.6074 342.3 57.2754 341.87 57.041C341.44 56.7969 340.898 56.6748 340.244 56.6748C339.727 56.6748 339.248 56.7773 338.809 56.9824C338.369 57.1875 338.018 57.4756 337.754 57.8467C337.49 58.2178 337.358 58.667 337.358 59.1943H333.125C333.125 58.0225 333.438 57.002 334.062 56.1328C334.697 55.2637 335.547 54.585 336.611 54.0967C337.676 53.6084 338.848 53.3643 340.127 53.3643C341.572 53.3643 342.837 53.5986 343.921 54.0674C345.005 54.5264 345.85 55.2051 346.455 56.1035C347.061 57.002 347.363 58.1152 347.363 59.4434C347.363 60.1172 347.207 60.7715 346.895 61.4062C346.582 62.0312 346.133 62.5977 345.547 63.1055C344.971 63.6035 344.268 64.0039 343.438 64.3066C342.607 64.5996 341.675 64.7461 340.64 64.7461H337.71V62.5049ZM337.71 65.7129V63.5303H340.64C341.802 63.5303 342.822 63.6621 343.701 63.9258C344.58 64.1895 345.317 64.5703 345.913 65.0684C346.509 65.5566 346.958 66.1377 347.261 66.8115C347.563 67.4756 347.715 68.2129 347.715 69.0234C347.715 70.0195 347.524 70.9082 347.144 71.6895C346.763 72.4609 346.226 73.1152 345.532 73.6523C344.849 74.1895 344.048 74.5996 343.13 74.8828C342.212 75.1562 341.211 75.293 340.127 75.293C339.229 75.293 338.345 75.1709 337.476 74.9268C336.616 74.6729 335.835 74.2969 335.132 73.7988C334.438 73.291 333.882 72.6562 333.462 71.8945C333.052 71.123 332.847 70.21 332.847 69.1553H337.08C337.08 69.7021 337.217 70.1904 337.49 70.6201C337.764 71.0498 338.14 71.3867 338.618 71.6309C339.106 71.875 339.648 71.9971 340.244 71.9971C340.918 71.9971 341.494 71.875 341.973 71.6309C342.461 71.377 342.832 71.0254 343.086 70.5762C343.35 70.1172 343.481 69.585 343.481 68.9795C343.481 68.1982 343.34 67.5732 343.057 67.1045C342.773 66.626 342.368 66.2744 341.841 66.0498C341.313 65.8252 340.688 65.7129 339.966 65.7129H337.71ZM365.205 71.7041V75H350.615V72.1875L357.515 64.79C358.208 64.0186 358.755 63.3398 359.155 62.7539C359.556 62.1582 359.844 61.626 360.02 61.1572C360.205 60.6787 360.298 60.2246 360.298 59.7949C360.298 59.1504 360.19 58.5986 359.976 58.1396C359.761 57.6709 359.443 57.3096 359.023 57.0557C358.613 56.8018 358.105 56.6748 357.5 56.6748C356.855 56.6748 356.299 56.8311 355.83 57.1436C355.371 57.4561 355.02 57.8906 354.775 58.4473C354.541 59.0039 354.424 59.6338 354.424 60.3369H350.19C350.19 59.0674 350.493 57.9053 351.099 56.8506C351.704 55.7861 352.559 54.9414 353.662 54.3164C354.766 53.6816 356.074 53.3643 357.588 53.3643C359.082 53.3643 360.342 53.6084 361.367 54.0967C362.402 54.5752 363.184 55.2686 363.711 56.1768C364.248 57.0752 364.517 58.1494 364.517 59.3994C364.517 60.1025 364.404 60.791 364.18 61.4648C363.955 62.1289 363.633 62.793 363.213 63.457C362.803 64.1113 362.305 64.7754 361.719 65.4492C361.133 66.123 360.483 66.8213 359.771 67.5439L356.064 71.7041H365.205ZM382.432 71.7041V75H367.842V72.1875L374.741 64.79C375.435 64.0186 375.981 63.3398 376.382 62.7539C376.782 62.1582 377.07 61.626 377.246 61.1572C377.432 60.6787 377.524 60.2246 377.524 59.7949C377.524 59.1504 377.417 58.5986 377.202 58.1396C376.987 57.6709 376.67 57.3096 376.25 57.0557C375.84 56.8018 375.332 56.6748 374.727 56.6748C374.082 56.6748 373.525 56.8311 373.057 57.1436C372.598 57.4561 372.246 57.8906 372.002 58.4473C371.768 59.0039 371.65 59.6338 371.65 60.3369H367.417C367.417 59.0674 367.72 57.9053 368.325 56.8506C368.931 55.7861 369.785 54.9414 370.889 54.3164C371.992 53.6816 373.301 53.3643 374.814 53.3643C376.309 53.3643 377.568 53.6084 378.594 54.0967C379.629 54.5752 380.41 55.2686 380.938 56.1768C381.475 57.0752 381.743 58.1494 381.743 59.3994C381.743 60.1025 381.631 60.791 381.406 61.4648C381.182 62.1289 380.859 62.793 380.439 63.457C380.029 64.1113 379.531 64.7754 378.945 65.4492C378.359 66.123 377.71 66.8213 376.997 67.5439L373.291 71.7041H382.432Z" fill="white"/>
<path d="M488.568 60.0469L491.125 67.2656L493.668 60.0469H496.361V70H494.304V67.2793L494.509 62.583L491.822 70H490.414L487.734 62.5898L487.939 67.2793V70H485.889V60.0469H488.568ZM500.784 67.2041L502.151 62.6035H504.271L501.297 71.1484L501.133 71.5381C500.691 72.5042 499.962 72.9873 498.945 72.9873C498.658 72.9873 498.367 72.944 498.07 72.8574V71.3604L498.371 71.3672C498.745 71.3672 499.023 71.3102 499.205 71.1963C499.392 71.0824 499.538 70.8932 499.643 70.6289L499.875 70.0205L497.284 62.6035H499.41L500.784 67.2041ZM508.666 70V60.0469H512.152C513.36 60.0469 514.276 60.2793 514.9 60.7441C515.525 61.2044 515.837 61.8812 515.837 62.7744C515.837 63.262 515.712 63.6927 515.461 64.0664C515.21 64.4355 514.862 64.7067 514.415 64.8799C514.925 65.0075 515.326 65.265 515.618 65.6523C515.914 66.0397 516.062 66.5137 516.062 67.0742C516.062 68.0312 515.757 68.7559 515.146 69.248C514.536 69.7402 513.665 69.9909 512.535 70H508.666ZM510.717 65.666V68.3525H512.474C512.957 68.3525 513.333 68.2386 513.602 68.0107C513.875 67.7783 514.012 67.4593 514.012 67.0537C514.012 66.1423 513.54 65.6797 512.597 65.666H510.717ZM510.717 64.2168H512.234C513.269 64.1986 513.786 63.7861 513.786 62.9795C513.786 62.5283 513.654 62.2048 513.39 62.0088C513.13 61.8083 512.717 61.708 512.152 61.708H510.717V64.2168ZM521.764 70C521.673 69.8223 521.606 69.6012 521.565 69.3369C521.087 69.8701 520.465 70.1367 519.699 70.1367C518.975 70.1367 518.373 69.9271 517.895 69.5078C517.421 69.0885 517.184 68.5599 517.184 67.9219C517.184 67.138 517.473 66.5365 518.052 66.1172C518.635 65.6979 519.476 65.486 520.574 65.4814H521.483V65.0576C521.483 64.7158 521.395 64.4424 521.217 64.2373C521.044 64.0322 520.768 63.9297 520.39 63.9297C520.057 63.9297 519.795 64.0094 519.604 64.1689C519.417 64.3285 519.323 64.5472 519.323 64.8252H517.348C517.348 64.3968 517.48 64.0003 517.744 63.6357C518.008 63.2712 518.382 62.9863 518.865 62.7812C519.348 62.5716 519.891 62.4668 520.492 62.4668C521.404 62.4668 522.126 62.6969 522.659 63.1572C523.197 63.613 523.466 64.2555 523.466 65.085V68.291C523.47 68.9928 523.568 69.5238 523.76 69.8838V70H521.764ZM520.13 68.626C520.422 68.626 520.69 68.5622 520.937 68.4346C521.183 68.3024 521.365 68.127 521.483 67.9082V66.6367H520.745C519.756 66.6367 519.23 66.9785 519.166 67.6621L519.159 67.7783C519.159 68.0244 519.246 68.2272 519.419 68.3867C519.592 68.5462 519.829 68.626 520.13 68.626ZM526.802 62.6035L526.863 63.458C527.392 62.7972 528.101 62.4668 528.989 62.4668C529.773 62.4668 530.356 62.6969 530.739 63.1572C531.122 63.6175 531.318 64.3057 531.327 65.2217V70H529.352V65.2695C529.352 64.8503 529.26 64.5472 529.078 64.3604C528.896 64.1689 528.593 64.0732 528.169 64.0732C527.613 64.0732 527.196 64.3102 526.918 64.7842V70H524.942V62.6035H526.802ZM535.518 67.0332L534.807 67.7441V70H532.831V59.5H534.807V65.3174L535.189 64.8252L537.083 62.6035H539.455L536.782 65.6865L539.688 70H537.418L535.518 67.0332Z" fill="white"/>
<g filter="url(#filter14_d_2117_130693)">
<rect x="290" y="108.964" width="5" height="5" rx="2.5" fill="white"/>
</g>
<g filter="url(#filter15_d_2117_130693)">
<rect x="298" y="108.964" width="5" height="5" rx="2.5" fill="white"/>
</g>
<g filter="url(#filter16_d_2117_130693)">
<rect x="306" y="108.964" width="5" height="5" rx="2.5" fill="white"/>
</g>
<g filter="url(#filter17_d_2117_130693)">
<rect x="314" y="108.964" width="5" height="5" rx="2.5" fill="white"/>
</g>
<g filter="url(#filter18_d_2117_130693)">
<rect x="329" y="108.964" width="5" height="5" rx="2.5" fill="white"/>
</g>
<g filter="url(#filter19_d_2117_130693)">
<rect x="337" y="108.964" width="5" height="5" rx="2.5" fill="white"/>
</g>
<g filter="url(#filter20_d_2117_130693)">
<rect x="345" y="108.964" width="5" height="5" rx="2.5" fill="white"/>
</g>
<g filter="url(#filter21_d_2117_130693)">
<rect x="353" y="108.964" width="5" height="5" rx="2.5" fill="white"/>
</g>
<g filter="url(#filter22_d_2117_130693)">
<rect x="368" y="108.964" width="5" height="5" rx="2.5" fill="white"/>
</g>
<g filter="url(#filter23_d_2117_130693)">
<rect x="376" y="108.964" width="5" height="5" rx="2.5" fill="white"/>
</g>
<g filter="url(#filter24_d_2117_130693)">
<rect x="384" y="108.964" width="5" height="5" rx="2.5" fill="white"/>
</g>
<g filter="url(#filter25_d_2117_130693)">
<rect x="392" y="108.964" width="5" height="5" rx="2.5" fill="white"/>
</g>
<path d="M420.508 105.089V106.3L416.109 116.464H413.734L418.133 106.847H412.469V105.089H420.508ZM429.633 113.347C429.633 114.06 429.466 114.662 429.133 115.152C428.799 115.636 428.341 116.003 427.758 116.253C427.18 116.498 426.523 116.62 425.789 116.62C425.055 116.62 424.396 116.498 423.812 116.253C423.229 116.003 422.768 115.636 422.43 115.152C422.091 114.662 421.922 114.06 421.922 113.347C421.922 112.868 422.018 112.435 422.211 112.05C422.404 111.659 422.672 111.326 423.016 111.05C423.365 110.769 423.773 110.555 424.242 110.409C424.711 110.258 425.221 110.183 425.773 110.183C426.513 110.183 427.174 110.313 427.758 110.574C428.341 110.834 428.799 111.201 429.133 111.675C429.466 112.149 429.633 112.706 429.633 113.347ZM427.367 113.199C427.367 112.85 427.299 112.55 427.164 112.3C427.034 112.045 426.849 111.85 426.609 111.714C426.37 111.579 426.091 111.511 425.773 111.511C425.456 111.511 425.177 111.579 424.938 111.714C424.698 111.85 424.51 112.045 424.375 112.3C424.245 112.55 424.18 112.85 424.18 113.199C424.18 113.542 424.245 113.839 424.375 114.089C424.51 114.339 424.698 114.532 424.938 114.667C425.182 114.797 425.466 114.863 425.789 114.863C426.112 114.863 426.391 114.797 426.625 114.667C426.865 114.532 427.047 114.339 427.172 114.089C427.302 113.839 427.367 113.542 427.367 113.199ZM429.391 108.105C429.391 108.683 429.237 109.196 428.93 109.644C428.622 110.087 428.195 110.433 427.648 110.683C427.107 110.933 426.487 111.058 425.789 111.058C425.086 111.058 424.461 110.933 423.914 110.683C423.367 110.433 422.94 110.087 422.633 109.644C422.326 109.196 422.172 108.683 422.172 108.105C422.172 107.417 422.326 106.839 422.633 106.37C422.945 105.896 423.372 105.537 423.914 105.292C424.461 105.047 425.081 104.925 425.773 104.925C426.477 104.925 427.099 105.047 427.641 105.292C428.188 105.537 428.615 105.896 428.922 106.37C429.234 106.839 429.391 107.417 429.391 108.105ZM427.141 108.206C427.141 107.899 427.086 107.633 426.977 107.409C426.867 107.18 426.711 107.003 426.508 106.878C426.31 106.753 426.065 106.691 425.773 106.691C425.492 106.691 425.25 106.751 425.047 106.87C424.849 106.99 424.695 107.165 424.586 107.394C424.482 107.618 424.43 107.889 424.43 108.206C424.43 108.514 424.482 108.784 424.586 109.019C424.695 109.248 424.852 109.428 425.055 109.558C425.258 109.688 425.503 109.753 425.789 109.753C426.076 109.753 426.318 109.688 426.516 109.558C426.719 109.428 426.872 109.248 426.977 109.019C427.086 108.784 427.141 108.514 427.141 108.206ZM432.75 114.753H432.898C433.523 114.753 434.06 114.678 434.508 114.527C434.961 114.37 435.333 114.146 435.625 113.855C435.917 113.563 436.133 113.206 436.273 112.784C436.414 112.357 436.484 111.873 436.484 111.331V109.175C436.484 108.764 436.443 108.402 436.359 108.089C436.281 107.777 436.167 107.519 436.016 107.316C435.87 107.107 435.698 106.951 435.5 106.847C435.307 106.743 435.094 106.691 434.859 106.691C434.609 106.691 434.388 106.753 434.195 106.878C434.003 106.998 433.839 107.162 433.703 107.37C433.573 107.579 433.471 107.818 433.398 108.089C433.331 108.355 433.297 108.633 433.297 108.925C433.297 109.217 433.331 109.495 433.398 109.761C433.466 110.021 433.568 110.253 433.703 110.456C433.839 110.654 434.008 110.813 434.211 110.933C434.414 111.047 434.654 111.105 434.93 111.105C435.195 111.105 435.432 111.055 435.641 110.956C435.854 110.852 436.034 110.717 436.18 110.55C436.331 110.383 436.445 110.199 436.523 109.995C436.607 109.792 436.648 109.587 436.648 109.378L437.391 109.784C437.391 110.149 437.312 110.508 437.156 110.863C437 111.217 436.781 111.54 436.5 111.831C436.224 112.118 435.904 112.347 435.539 112.519C435.174 112.691 434.784 112.777 434.367 112.777C433.836 112.777 433.365 112.68 432.953 112.488C432.542 112.29 432.193 112.019 431.906 111.675C431.625 111.326 431.411 110.92 431.266 110.456C431.12 109.993 431.047 109.49 431.047 108.949C431.047 108.396 431.135 107.878 431.312 107.394C431.495 106.909 431.753 106.482 432.086 106.113C432.424 105.743 432.828 105.454 433.297 105.245C433.771 105.032 434.297 104.925 434.875 104.925C435.453 104.925 435.979 105.037 436.453 105.261C436.927 105.485 437.333 105.803 437.672 106.214C438.01 106.62 438.271 107.107 438.453 107.675C438.641 108.243 438.734 108.873 438.734 109.566V110.347C438.734 111.087 438.654 111.774 438.492 112.409C438.336 113.045 438.099 113.62 437.781 114.136C437.469 114.646 437.078 115.084 436.609 115.449C436.146 115.813 435.607 116.092 434.992 116.284C434.378 116.477 433.69 116.574 432.93 116.574H432.75V114.753ZM446.148 104.972H446.477V106.769H446.344C445.75 106.769 445.221 106.857 444.758 107.034C444.294 107.212 443.901 107.464 443.578 107.792C443.26 108.115 443.016 108.506 442.844 108.964C442.677 109.422 442.594 109.935 442.594 110.503V112.394C442.594 112.8 442.633 113.159 442.711 113.472C442.794 113.779 442.911 114.037 443.062 114.245C443.219 114.449 443.401 114.602 443.609 114.706C443.818 114.805 444.052 114.855 444.312 114.855C444.557 114.855 444.779 114.803 444.977 114.699C445.18 114.594 445.352 114.449 445.492 114.261C445.638 114.068 445.747 113.844 445.82 113.589C445.898 113.329 445.938 113.045 445.938 112.738C445.938 112.43 445.898 112.146 445.82 111.886C445.747 111.626 445.638 111.402 445.492 111.214C445.346 111.021 445.169 110.873 444.961 110.769C444.753 110.665 444.518 110.613 444.258 110.613C443.904 110.613 443.591 110.696 443.32 110.863C443.055 111.024 442.846 111.232 442.695 111.488C442.544 111.743 442.464 112.011 442.453 112.292L441.773 111.855C441.789 111.454 441.872 111.074 442.023 110.714C442.18 110.355 442.393 110.037 442.664 109.761C442.94 109.48 443.271 109.261 443.656 109.105C444.042 108.943 444.477 108.863 444.961 108.863C445.492 108.863 445.958 108.964 446.359 109.167C446.766 109.37 447.104 109.649 447.375 110.003C447.646 110.357 447.849 110.766 447.984 111.23C448.12 111.693 448.188 112.188 448.188 112.714C448.188 113.266 448.096 113.779 447.914 114.253C447.737 114.727 447.479 115.141 447.141 115.495C446.807 115.85 446.406 116.126 445.938 116.324C445.469 116.521 444.943 116.62 444.359 116.62C443.755 116.62 443.206 116.511 442.711 116.292C442.221 116.068 441.799 115.756 441.445 115.355C441.091 114.954 440.818 114.477 440.625 113.925C440.438 113.373 440.344 112.769 440.344 112.113V111.238C440.344 110.321 440.477 109.482 440.742 108.722C441.013 107.956 441.401 107.295 441.906 106.738C442.411 106.175 443.021 105.74 443.734 105.433C444.448 105.126 445.253 104.972 446.148 104.972Z" fill="white"/>
<path d="M292.939 154.817H297.294V156.464H290.889V146.511H292.939V154.817ZM300.432 156.464H298.449V145.964H300.432V156.464ZM301.758 152.698C301.758 151.964 301.899 151.31 302.182 150.736C302.464 150.161 302.87 149.717 303.398 149.403C303.932 149.088 304.549 148.931 305.251 148.931C306.249 148.931 307.062 149.236 307.691 149.847C308.325 150.458 308.678 151.287 308.751 152.335L308.765 152.841C308.765 153.976 308.448 154.887 307.814 155.575C307.181 156.259 306.331 156.601 305.265 156.601C304.198 156.601 303.346 156.259 302.708 155.575C302.075 154.892 301.758 153.962 301.758 152.786V152.698ZM303.733 152.841C303.733 153.543 303.866 154.081 304.13 154.454C304.394 154.824 304.772 155.008 305.265 155.008C305.743 155.008 306.117 154.826 306.386 154.461C306.655 154.092 306.789 153.504 306.789 152.698C306.789 152.009 306.655 151.476 306.386 151.098C306.117 150.72 305.739 150.531 305.251 150.531C304.768 150.531 304.394 150.72 304.13 151.098C303.866 151.472 303.733 152.053 303.733 152.841ZM312.634 153.668L314.001 149.068H316.12L313.146 157.613L312.982 158.002C312.54 158.968 311.811 159.451 310.795 159.451C310.508 159.451 310.216 159.408 309.92 159.322V157.824L310.221 157.831C310.594 157.831 310.872 157.774 311.055 157.66C311.242 157.546 311.387 157.357 311.492 157.093L311.725 156.485L309.134 149.068H311.26L312.634 153.668ZM316.496 152.711C316.496 151.558 316.754 150.64 317.269 149.956C317.788 149.273 318.497 148.931 319.395 148.931C320.115 148.931 320.709 149.2 321.179 149.738V145.964H323.161V156.464H321.377L321.281 155.678C320.789 156.293 320.156 156.601 319.381 156.601C318.51 156.601 317.811 156.259 317.282 155.575C316.758 154.887 316.496 153.933 316.496 152.711ZM318.472 152.855C318.472 153.547 318.592 154.078 318.834 154.448C319.076 154.817 319.426 155.001 319.887 155.001C320.497 155.001 320.928 154.744 321.179 154.229V151.31C320.933 150.795 320.507 150.537 319.9 150.537C318.948 150.537 318.472 151.31 318.472 152.855ZM330.359 154.817H334.714V156.464H328.309V146.511H330.359V154.817ZM337.681 153.668L339.048 149.068H341.167L338.193 157.613L338.029 158.002C337.587 158.968 336.858 159.451 335.842 159.451C335.555 159.451 335.263 159.408 334.967 159.322V157.824L335.268 157.831C335.641 157.831 335.919 157.774 336.102 157.66C336.288 157.546 336.434 157.357 336.539 157.093L336.771 156.485L334.181 149.068H336.307L337.681 153.668ZM341.529 152.698C341.529 151.964 341.671 151.31 341.953 150.736C342.236 150.161 342.641 149.717 343.17 149.403C343.703 149.088 344.321 148.931 345.022 148.931C346.021 148.931 346.834 149.236 347.463 149.847C348.096 150.458 348.45 151.287 348.522 152.335L348.536 152.841C348.536 153.976 348.219 154.887 347.586 155.575C346.952 156.259 346.103 156.601 345.036 156.601C343.97 156.601 343.118 156.259 342.479 155.575C341.846 154.892 341.529 153.962 341.529 152.786V152.698ZM343.505 152.841C343.505 153.543 343.637 154.081 343.901 154.454C344.166 154.824 344.544 155.008 345.036 155.008C345.515 155.008 345.888 154.826 346.157 154.461C346.426 154.092 346.561 153.504 346.561 152.698C346.561 152.009 346.426 151.476 346.157 151.098C345.888 150.72 345.51 150.531 345.022 150.531C344.539 150.531 344.166 150.72 343.901 151.098C343.637 151.472 343.505 152.053 343.505 152.841ZM351.571 149.068L351.633 149.922C352.161 149.261 352.87 148.931 353.759 148.931C354.543 148.931 355.126 149.161 355.509 149.621C355.892 150.082 356.088 150.77 356.097 151.686V156.464H354.121V151.734C354.121 151.314 354.03 151.011 353.848 150.824C353.665 150.633 353.362 150.537 352.938 150.537C352.382 150.537 351.965 150.774 351.688 151.248V156.464H349.712V149.068H351.571ZM361.606 154.42C361.606 154.179 361.486 153.99 361.244 153.853C361.007 153.712 360.624 153.586 360.096 153.477C358.337 153.108 357.457 152.36 357.457 151.235C357.457 150.578 357.728 150.032 358.271 149.594C358.817 149.152 359.531 148.931 360.41 148.931C361.349 148.931 362.099 149.152 362.659 149.594C363.224 150.036 363.507 150.61 363.507 151.317H361.531C361.531 151.034 361.44 150.802 361.258 150.619C361.076 150.433 360.791 150.339 360.403 150.339C360.071 150.339 359.813 150.414 359.631 150.565C359.449 150.715 359.357 150.907 359.357 151.139C359.357 151.358 359.46 151.535 359.665 151.672C359.875 151.804 360.226 151.921 360.718 152.021C361.21 152.116 361.625 152.226 361.962 152.349C363.006 152.732 363.527 153.395 363.527 154.338C363.527 155.013 363.238 155.56 362.659 155.979C362.08 156.394 361.333 156.601 360.417 156.601C359.797 156.601 359.246 156.491 358.763 156.273C358.284 156.049 357.908 155.746 357.635 155.364C357.361 154.976 357.225 154.559 357.225 154.113H359.098C359.116 154.463 359.246 154.732 359.487 154.919C359.729 155.106 360.052 155.199 360.458 155.199C360.836 155.199 361.121 155.129 361.312 154.988C361.508 154.842 361.606 154.653 361.606 154.42Z" fill="white"/>
<path d="M518.121 166.036H501.903V136.891H518.121L518.121 166.036Z" fill="#FF5F00"/>
<path d="M502.931 151.464C502.931 145.552 505.699 140.285 510.01 136.891C506.747 134.319 502.711 132.922 498.556 132.928C488.32 132.928 480.022 141.227 480.022 151.464C480.022 161.701 488.32 170 498.556 170C502.711 170.006 506.747 168.61 510.01 166.037C505.7 162.643 502.931 157.377 502.931 151.464Z" fill="#EB001B"/>
<path d="M540 151.464C540 161.701 531.702 170 521.467 170C517.311 170.006 513.274 168.61 510.011 166.037C514.323 162.643 517.091 157.377 517.091 151.464C517.091 145.552 514.323 140.285 510.011 136.891C513.274 134.319 517.31 132.922 521.466 132.928C531.702 132.928 540 141.227 540 151.464" fill="#F79E1B"/>
</g>
<rect x="30" width="350" height="210" rx="10" fill="url(#paint2_linear_2117_130693)"/>
<g filter="url(#filter26_d_2117_130693)">
<path d="M71.5723 59.3896C71.5723 58.5889 71.3477 57.9541 70.8984 57.4854C70.459 57.0068 69.707 56.5674 68.6426 56.167C67.5781 55.7666 66.6602 55.3711 65.8887 54.9805C65.1172 54.5801 64.4531 54.126 63.8965 53.6182C63.3496 53.1006 62.9199 52.4951 62.6074 51.8018C62.3047 51.1084 62.1533 50.2832 62.1533 49.3262C62.1533 47.6758 62.6807 46.3232 63.7354 45.2686C64.79 44.2139 66.1914 43.5986 67.9395 43.4229V40.2881H70.2832V43.4668C72.0117 43.7109 73.3643 44.4336 74.3408 45.6348C75.3174 46.8262 75.8057 48.374 75.8057 50.2783H71.5723C71.5723 49.1064 71.3281 48.2324 70.8398 47.6562C70.3613 47.0703 69.7168 46.7773 68.9062 46.7773C68.1055 46.7773 67.4854 47.0068 67.0459 47.4658C66.6064 47.915 66.3867 48.54 66.3867 49.3408C66.3867 50.083 66.6016 50.6787 67.0312 51.1279C67.4609 51.5771 68.2568 52.0361 69.4189 52.5049C70.5908 52.9736 71.5527 53.418 72.3047 53.8379C73.0566 54.248 73.6914 54.7168 74.209 55.2441C74.7266 55.7617 75.1221 56.3574 75.3955 57.0312C75.6689 57.6953 75.8057 58.4717 75.8057 59.3604C75.8057 61.0205 75.2881 62.3682 74.2529 63.4033C73.2178 64.4385 71.792 65.0488 69.9756 65.2344V68.1494H67.6465V65.249C65.6445 65.0342 64.0918 64.3262 62.9883 63.125C61.8945 61.9141 61.3477 60.3076 61.3477 58.3057H65.5811C65.5811 59.4678 65.8545 60.3613 66.4014 60.9863C66.958 61.6016 67.7539 61.9092 68.7891 61.9092C69.6484 61.9092 70.3271 61.6846 70.8252 61.2354C71.3232 60.7764 71.5723 60.1611 71.5723 59.3896ZM98.6719 56.9727H101.089V60.3857H98.6719V65H94.4385V60.3857H85.6934L85.5029 57.7197L94.3945 43.6719H98.6719V56.9727ZM89.7217 56.9727H94.4385V49.4434L94.1602 49.9268L89.7217 56.9727ZM111.475 54.5117L112.705 43.6719H124.658V47.2021H116.177L115.649 51.7871C116.655 51.25 117.725 50.9814 118.857 50.9814C120.889 50.9814 122.48 51.6113 123.633 52.8711C124.785 54.1309 125.361 55.8936 125.361 58.1592C125.361 59.5361 125.068 60.7715 124.482 61.8652C123.906 62.9492 123.076 63.7939 121.992 64.3994C120.908 64.9951 119.629 65.293 118.154 65.293C116.865 65.293 115.669 65.0342 114.565 64.5166C113.462 63.9893 112.588 63.252 111.943 62.3047C111.309 61.3574 110.972 60.2783 110.933 59.0674H115.122C115.21 59.9561 115.518 60.6494 116.045 61.1475C116.582 61.6357 117.28 61.8799 118.14 61.8799C119.097 61.8799 119.834 61.5381 120.352 60.8545C120.869 60.1611 121.128 59.1846 121.128 57.9248C121.128 56.7139 120.83 55.7861 120.234 55.1416C119.639 54.4971 118.794 54.1748 117.7 54.1748C116.694 54.1748 115.879 54.4385 115.254 54.9658L114.844 55.3467L111.475 54.5117ZM139.556 43.4521V46.9385H139.146C137.231 46.9678 135.688 47.4658 134.517 48.4326C133.354 49.3994 132.656 50.7422 132.422 52.4609C133.555 51.3086 134.985 50.7324 136.714 50.7324C138.569 50.7324 140.044 51.3965 141.138 52.7246C142.231 54.0527 142.778 55.8008 142.778 57.9688C142.778 59.3555 142.476 60.6104 141.87 61.7334C141.274 62.8564 140.425 63.7305 139.321 64.3555C138.228 64.9805 136.987 65.293 135.601 65.293C133.354 65.293 131.538 64.5117 130.151 62.9492C128.774 61.3867 128.086 59.3018 128.086 56.6943V55.1709C128.086 52.8564 128.521 50.8154 129.39 49.0479C130.269 47.2705 131.523 45.8984 133.154 44.9316C134.795 43.9551 136.694 43.4619 138.853 43.4521H139.556ZM135.425 54.1309C134.741 54.1309 134.121 54.3115 133.564 54.6729C133.008 55.0244 132.598 55.4932 132.334 56.0791V57.3682C132.334 58.7842 132.612 59.8926 133.169 60.6934C133.726 61.4844 134.507 61.8799 135.513 61.8799C136.421 61.8799 137.153 61.5234 137.71 60.8105C138.276 60.0879 138.56 59.1553 138.56 58.0127C138.56 56.8506 138.276 55.9131 137.71 55.2002C137.144 54.4873 136.382 54.1309 135.425 54.1309ZM159.653 56.1816C159.653 59.1309 159.043 61.3867 157.822 62.9492C156.602 64.5117 154.814 65.293 152.461 65.293C150.137 65.293 148.359 64.5264 147.129 62.9932C145.898 61.46 145.269 59.2627 145.239 56.4014V52.4756C145.239 49.4971 145.854 47.2363 147.085 45.6934C148.325 44.1504 150.107 43.3789 152.432 43.3789C154.756 43.3789 156.533 44.1455 157.764 45.6787C158.994 47.2021 159.624 49.3945 159.653 52.2559V56.1816ZM155.42 51.875C155.42 50.1074 155.176 48.8232 154.688 48.0225C154.209 47.2119 153.457 46.8066 152.432 46.8066C151.436 46.8066 150.698 47.1924 150.22 47.9639C149.751 48.7256 149.502 49.9219 149.473 51.5527V56.7383C149.473 58.4766 149.707 59.7705 150.176 60.6201C150.654 61.46 151.416 61.8799 152.461 61.8799C153.496 61.8799 154.243 61.4746 154.702 60.6641C155.161 59.8535 155.4 58.6133 155.42 56.9434V51.875Z" fill="white"/>
<path d="M298.568 50.0469L301.125 57.2656L303.668 50.0469H306.361V60H304.304V57.2793L304.509 52.583L301.822 60H300.414L297.734 52.5898L297.939 57.2793V60H295.889V50.0469H298.568ZM310.784 57.2041L312.151 52.6035H314.271L311.297 61.1484L311.133 61.5381C310.691 62.5042 309.962 62.9873 308.945 62.9873C308.658 62.9873 308.367 62.944 308.07 62.8574V61.3604L308.371 61.3672C308.745 61.3672 309.023 61.3102 309.205 61.1963C309.392 61.0824 309.538 60.8932 309.643 60.6289L309.875 60.0205L307.284 52.6035H309.41L310.784 57.2041ZM318.666 60V50.0469H322.152C323.36 50.0469 324.276 50.2793 324.9 50.7441C325.525 51.2044 325.837 51.8812 325.837 52.7744C325.837 53.262 325.712 53.6927 325.461 54.0664C325.21 54.4355 324.862 54.7067 324.415 54.8799C324.925 55.0075 325.326 55.265 325.618 55.6523C325.914 56.0397 326.062 56.5137 326.062 57.0742C326.062 58.0312 325.757 58.7559 325.146 59.248C324.536 59.7402 323.665 59.9909 322.535 60H318.666ZM320.717 55.666V58.3525H322.474C322.957 58.3525 323.333 58.2386 323.602 58.0107C323.875 57.7783 324.012 57.4593 324.012 57.0537C324.012 56.1423 323.54 55.6797 322.597 55.666H320.717ZM320.717 54.2168H322.234C323.269 54.1986 323.786 53.7861 323.786 52.9795C323.786 52.5283 323.654 52.2048 323.39 52.0088C323.13 51.8083 322.717 51.708 322.152 51.708H320.717V54.2168ZM331.764 60C331.673 59.8223 331.606 59.6012 331.565 59.3369C331.087 59.8701 330.465 60.1367 329.699 60.1367C328.975 60.1367 328.373 59.9271 327.895 59.5078C327.421 59.0885 327.184 58.5599 327.184 57.9219C327.184 57.138 327.473 56.5365 328.052 56.1172C328.635 55.6979 329.476 55.486 330.574 55.4814H331.483V55.0576C331.483 54.7158 331.395 54.4424 331.217 54.2373C331.044 54.0322 330.768 53.9297 330.39 53.9297C330.057 53.9297 329.795 54.0094 329.604 54.1689C329.417 54.3285 329.323 54.5472 329.323 54.8252H327.348C327.348 54.3968 327.48 54.0003 327.744 53.6357C328.008 53.2712 328.382 52.9863 328.865 52.7812C329.348 52.5716 329.891 52.4668 330.492 52.4668C331.404 52.4668 332.126 52.6969 332.659 53.1572C333.197 53.613 333.466 54.2555 333.466 55.085V58.291C333.47 58.9928 333.568 59.5238 333.76 59.8838V60H331.764ZM330.13 58.626C330.422 58.626 330.69 58.5622 330.937 58.4346C331.183 58.3024 331.365 58.127 331.483 57.9082V56.6367H330.745C329.756 56.6367 329.23 56.9785 329.166 57.6621L329.159 57.7783C329.159 58.0244 329.246 58.2272 329.419 58.3867C329.592 58.5462 329.829 58.626 330.13 58.626ZM336.802 52.6035L336.863 53.458C337.392 52.7972 338.101 52.4668 338.989 52.4668C339.773 52.4668 340.356 52.6969 340.739 53.1572C341.122 53.6175 341.318 54.3057 341.327 55.2217V60H339.352V55.2695C339.352 54.8503 339.26 54.5472 339.078 54.3604C338.896 54.1689 338.593 54.0732 338.169 54.0732C337.613 54.0732 337.196 54.3102 336.918 54.7842V60H334.942V52.6035H336.802ZM345.518 57.0332L344.807 57.7441V60H342.831V49.5H344.807V55.3174L345.189 54.8252L347.083 52.6035H349.455L346.782 55.6865L349.688 60H347.418L345.518 57.0332Z" fill="white"/>
<g filter="url(#filter27_d_2117_130693)">
<rect x="60" y="108.964" width="5" height="5" rx="2.5" fill="white"/>
</g>
<g filter="url(#filter28_d_2117_130693)">
<rect x="68" y="108.964" width="5" height="5" rx="2.5" fill="white"/>
</g>
<g filter="url(#filter29_d_2117_130693)">
<rect x="76" y="108.964" width="5" height="5" rx="2.5" fill="white"/>
</g>
<g filter="url(#filter30_d_2117_130693)">
<rect x="84" y="108.964" width="5" height="5" rx="2.5" fill="white"/>
</g>
<g filter="url(#filter31_d_2117_130693)">
<rect x="99" y="108.964" width="5" height="5" rx="2.5" fill="white"/>
</g>
<g filter="url(#filter32_d_2117_130693)">
<rect x="107" y="108.964" width="5" height="5" rx="2.5" fill="white"/>
</g>
<g filter="url(#filter33_d_2117_130693)">
<rect x="115" y="108.964" width="5" height="5" rx="2.5" fill="white"/>
</g>
<g filter="url(#filter34_d_2117_130693)">
<rect x="123" y="108.964" width="5" height="5" rx="2.5" fill="white"/>
</g>
<g filter="url(#filter35_d_2117_130693)">
<rect x="138" y="108.964" width="5" height="5" rx="2.5" fill="white"/>
</g>
<g filter="url(#filter36_d_2117_130693)">
<rect x="146" y="108.964" width="5" height="5" rx="2.5" fill="white"/>
</g>
<g filter="url(#filter37_d_2117_130693)">
<rect x="154" y="108.964" width="5" height="5" rx="2.5" fill="white"/>
</g>
<g filter="url(#filter38_d_2117_130693)">
<rect x="162" y="108.964" width="5" height="5" rx="2.5" fill="white"/>
</g>
<path d="M189.453 112.183H190.742V114.003H189.453V116.464H187.195V114.003H182.531L182.43 112.581L187.172 105.089H189.453V112.183ZM184.68 112.183H187.195V108.167L187.047 108.425L184.68 112.183ZM198.641 112.183H199.93V114.003H198.641V116.464H196.383V114.003H191.719L191.617 112.581L196.359 105.089H198.641V112.183ZM193.867 112.183H196.383V108.167L196.234 108.425L193.867 112.183ZM201.484 110.87L202.141 105.089H208.516V106.972H203.992L203.711 109.417C204.247 109.131 204.818 108.988 205.422 108.988C206.505 108.988 207.354 109.324 207.969 109.995C208.583 110.667 208.891 111.607 208.891 112.816C208.891 113.55 208.734 114.209 208.422 114.792C208.115 115.37 207.672 115.821 207.094 116.144C206.516 116.462 205.833 116.62 205.047 116.62C204.359 116.62 203.721 116.482 203.133 116.206C202.544 115.925 202.078 115.532 201.734 115.027C201.396 114.521 201.216 113.946 201.195 113.3H203.43C203.477 113.774 203.641 114.144 203.922 114.409C204.208 114.67 204.581 114.8 205.039 114.8C205.549 114.8 205.943 114.618 206.219 114.253C206.495 113.883 206.633 113.363 206.633 112.691C206.633 112.045 206.474 111.55 206.156 111.206C205.839 110.863 205.388 110.691 204.805 110.691C204.268 110.691 203.833 110.831 203.5 111.113L203.281 111.316L201.484 110.87ZM216.461 104.972V106.831H216.242C215.221 106.847 214.398 107.113 213.773 107.628C213.154 108.144 212.781 108.86 212.656 109.777C213.26 109.162 214.023 108.855 214.945 108.855C215.935 108.855 216.721 109.209 217.305 109.917C217.888 110.626 218.18 111.558 218.18 112.714C218.18 113.454 218.018 114.123 217.695 114.722C217.378 115.321 216.924 115.787 216.336 116.12C215.753 116.454 215.091 116.62 214.352 116.62C213.154 116.62 212.185 116.204 211.445 115.37C210.711 114.537 210.344 113.425 210.344 112.034V111.222C210.344 109.988 210.576 108.899 211.039 107.956C211.508 107.008 212.177 106.277 213.047 105.761C213.922 105.24 214.935 104.977 216.086 104.972H216.461ZM214.258 110.667C213.893 110.667 213.562 110.764 213.266 110.956C212.969 111.144 212.75 111.394 212.609 111.706V112.394C212.609 113.149 212.758 113.74 213.055 114.167C213.352 114.589 213.768 114.8 214.305 114.8C214.789 114.8 215.18 114.61 215.477 114.23C215.779 113.844 215.93 113.347 215.93 112.738C215.93 112.118 215.779 111.618 215.477 111.238C215.174 110.857 214.768 110.667 214.258 110.667Z" fill="white"/>
<path d="M62.9395 164.817H67.2939V166.464H60.8887V156.511H62.9395V164.817ZM70.4316 166.464H68.4492V155.964H70.4316V166.464ZM71.7578 162.698C71.7578 161.964 71.8991 161.31 72.1816 160.736C72.4642 160.161 72.8698 159.717 73.3984 159.403C73.9316 159.088 74.5492 158.931 75.251 158.931C76.249 158.931 77.0625 159.236 77.6914 159.847C78.3249 160.458 78.6781 161.287 78.751 162.335L78.7646 162.841C78.7646 163.976 78.4479 164.887 77.8145 165.575C77.181 166.259 76.3311 166.601 75.2646 166.601C74.1982 166.601 73.346 166.259 72.708 165.575C72.0745 164.892 71.7578 163.962 71.7578 162.786V162.698ZM73.7334 162.841C73.7334 163.543 73.8656 164.081 74.1299 164.454C74.3942 164.824 74.7725 165.008 75.2646 165.008C75.7432 165.008 76.1169 164.826 76.3857 164.461C76.6546 164.092 76.7891 163.504 76.7891 162.698C76.7891 162.009 76.6546 161.476 76.3857 161.098C76.1169 160.72 75.7386 160.531 75.251 160.531C74.7679 160.531 74.3942 160.72 74.1299 161.098C73.8656 161.472 73.7334 162.053 73.7334 162.841ZM82.6338 163.668L84.001 159.068H86.1201L83.1465 167.613L82.9824 168.002C82.5404 168.968 81.8112 169.451 80.7949 169.451C80.5078 169.451 80.2161 169.408 79.9199 169.322V167.824L80.2207 167.831C80.5944 167.831 80.8724 167.774 81.0547 167.66C81.2415 167.546 81.3874 167.357 81.4922 167.093L81.7246 166.485L79.1338 159.068H81.2598L82.6338 163.668ZM86.4961 162.711C86.4961 161.558 86.7536 160.64 87.2686 159.956C87.7881 159.273 88.4967 158.931 89.3945 158.931C90.1146 158.931 90.7093 159.2 91.1787 159.738V155.964H93.1611V166.464H91.377L91.2812 165.678C90.7891 166.293 90.1556 166.601 89.3809 166.601C88.5104 166.601 87.8109 166.259 87.2822 165.575C86.7581 164.887 86.4961 163.933 86.4961 162.711ZM88.4717 162.855C88.4717 163.547 88.5924 164.078 88.834 164.448C89.0755 164.817 89.4264 165.001 89.8867 165.001C90.4974 165.001 90.9281 164.744 91.1787 164.229V161.31C90.9326 160.795 90.5065 160.537 89.9004 160.537C88.9479 160.537 88.4717 161.31 88.4717 162.855ZM100.359 164.817H104.714V166.464H98.3086V156.511H100.359V164.817ZM107.681 163.668L109.048 159.068H111.167L108.193 167.613L108.029 168.002C107.587 168.968 106.858 169.451 105.842 169.451C105.555 169.451 105.263 169.408 104.967 169.322V167.824L105.268 167.831C105.641 167.831 105.919 167.774 106.102 167.66C106.288 167.546 106.434 167.357 106.539 167.093L106.771 166.485L104.181 159.068H106.307L107.681 163.668ZM111.529 162.698C111.529 161.964 111.671 161.31 111.953 160.736C112.236 160.161 112.641 159.717 113.17 159.403C113.703 159.088 114.321 158.931 115.022 158.931C116.021 158.931 116.834 159.236 117.463 159.847C118.096 160.458 118.45 161.287 118.522 162.335L118.536 162.841C118.536 163.976 118.219 164.887 117.586 165.575C116.952 166.259 116.103 166.601 115.036 166.601C113.97 166.601 113.118 166.259 112.479 165.575C111.846 164.892 111.529 163.962 111.529 162.786V162.698ZM113.505 162.841C113.505 163.543 113.637 164.081 113.901 164.454C114.166 164.824 114.544 165.008 115.036 165.008C115.515 165.008 115.888 164.826 116.157 164.461C116.426 164.092 116.561 163.504 116.561 162.698C116.561 162.009 116.426 161.476 116.157 161.098C115.888 160.72 115.51 160.531 115.022 160.531C114.539 160.531 114.166 160.72 113.901 161.098C113.637 161.472 113.505 162.053 113.505 162.841ZM121.571 159.068L121.633 159.922C122.161 159.261 122.87 158.931 123.759 158.931C124.543 158.931 125.126 159.161 125.509 159.621C125.892 160.082 126.088 160.77 126.097 161.686V166.464H124.121V161.734C124.121 161.314 124.03 161.011 123.848 160.824C123.665 160.633 123.362 160.537 122.938 160.537C122.382 160.537 121.965 160.774 121.688 161.248V166.464H119.712V159.068H121.571ZM131.606 164.42C131.606 164.179 131.486 163.99 131.244 163.853C131.007 163.712 130.624 163.586 130.096 163.477C128.337 163.108 127.457 162.36 127.457 161.235C127.457 160.578 127.728 160.032 128.271 159.594C128.817 159.152 129.531 158.931 130.41 158.931C131.349 158.931 132.099 159.152 132.659 159.594C133.224 160.036 133.507 160.61 133.507 161.317H131.531C131.531 161.034 131.44 160.802 131.258 160.619C131.076 160.433 130.791 160.339 130.403 160.339C130.071 160.339 129.813 160.414 129.631 160.565C129.449 160.715 129.357 160.907 129.357 161.139C129.357 161.358 129.46 161.535 129.665 161.672C129.875 161.804 130.226 161.921 130.718 162.021C131.21 162.116 131.625 162.226 131.962 162.349C133.006 162.732 133.527 163.395 133.527 164.338C133.527 165.013 133.238 165.56 132.659 165.979C132.08 166.394 131.333 166.601 130.417 166.601C129.797 166.601 129.246 166.491 128.763 166.273C128.284 166.049 127.908 165.746 127.635 165.364C127.361 164.976 127.225 164.559 127.225 164.113H129.098C129.116 164.463 129.246 164.732 129.487 164.919C129.729 165.106 130.052 165.199 130.458 165.199C130.836 165.199 131.121 165.129 131.312 164.988C131.508 164.842 131.606 164.653 131.606 164.42Z" fill="white"/>
<path d="M328.121 176.036H311.903V146.891H328.121L328.121 176.036Z" fill="#FF5F00"/>
<path d="M312.931 161.464C312.931 155.552 315.699 150.285 320.01 146.891C316.747 144.319 312.711 142.922 308.556 142.928C298.32 142.928 290.022 151.227 290.022 161.464C290.022 171.701 298.32 180 308.556 180C312.711 180.006 316.747 178.61 320.01 176.037C315.7 172.643 312.931 167.377 312.931 161.464Z" fill="#EB001B"/>
<path d="M350 161.464C350 171.701 341.702 180 331.467 180C327.311 180.006 323.274 178.61 320.011 176.037C324.323 172.643 327.091 167.377 327.091 161.464C327.091 155.552 324.323 150.285 320.011 146.891C323.274 144.319 327.31 142.922 331.466 142.928C341.702 142.928 350 151.227 350 161.464" fill="#F79E1B"/>
</g>
<g filter="url(#filter39_d_2117_130693)">
<rect x="640" y="75" width="60" height="60" rx="30" fill="black" fill-opacity="0.5"/>
<path fill-rule="evenodd" clip-rule="evenodd" d="M663 105.592H674.17L669.29 110.472C668.9 110.862 668.9 111.502 669.29 111.892C669.68 112.282 670.31 112.282 670.7 111.892L677.29 105.302C677.68 104.912 677.68 104.282 677.29 103.892L670.71 97.2925C670.523 97.1052 670.27 97 670.005 97C669.74 97 669.487 97.1052 669.3 97.2925C668.91 97.6825 668.91 98.3125 669.3 98.7025L674.17 103.592H663C662.45 103.592 662 104.042 662 104.592C662 105.142 662.45 105.592 663 105.592Z" fill="white"/>
</g>
<defs>
<filter id="filter0_d_2117_130693" x="390" y="-5" width="390" height="280" filterUnits="userSpaceOnUse" color-interpolation-filters="sRGB">
<feFlood flood-opacity="0" result="BackgroundImageFix"/>
<feColorMatrix in="SourceAlpha" type="matrix" values="0 0 0 0 0 0 0 0 0 0 0 0 0 0 0 0 0 0 127 0" result="hardAlpha"/>
<feOffset dy="30"/>
<feGaussianBlur stdDeviation="30"/>
<feColorMatrix type="matrix" values="0 0 0 0 0.901961 0 0 0 0 0.180392 0 0 0 0 0.180392 0 0 0 0.15 0"/>
<feBlend mode="normal" in2="BackgroundImageFix" result="effect1_dropShadow_2117_130693"/>
<feBlend mode="normal" in="SourceGraphic" in2="effect1_dropShadow_2117_130693" result="shape"/>
</filter>
<filter id="filter1_d_2117_130693" x="470" y="109.5" width="15" height="15" filterUnits="userSpaceOnUse" color-interpolation-filters="sRGB">
<feFlood flood-opacity="0" result="BackgroundImageFix"/>
<feColorMatrix in="SourceAlpha" type="matrix" values="0 0 0 0 0 0 0 0 0 0 0 0 0 0 0 0 0 0 127 0" result="hardAlpha"/>
<feOffset dy="2"/>
<feGaussianBlur stdDeviation="2.5"/>
<feColorMatrix type="matrix" values="0 0 0 0 0.14902 0 0 0 0 0.2 0 0 0 0 0.301961 0 0 0 0.03 0"/>
<feBlend mode="normal" in2="BackgroundImageFix" result="effect1_dropShadow_2117_130693"/>
<feBlend mode="normal" in="SourceGraphic" in2="effect1_dropShadow_2117_130693" result="shape"/>
</filter>
<filter id="filter2_d_2117_130693" x="478" y="109.5" width="15" height="15" filterUnits="userSpaceOnUse" color-interpolation-filters="sRGB">
<feFlood flood-opacity="0" result="BackgroundImageFix"/>
<feColorMatrix in="SourceAlpha" type="matrix" values="0 0 0 0 0 0 0 0 0 0 0 0 0 0 0 0 0 0 127 0" result="hardAlpha"/>
<feOffset dy="2"/>
<feGaussianBlur stdDeviation="2.5"/>
<feColorMatrix type="matrix" values="0 0 0 0 0.14902 0 0 0 0 0.2 0 0 0 0 0.301961 0 0 0 0.03 0"/>
<feBlend mode="normal" in2="BackgroundImageFix" result="effect1_dropShadow_2117_130693"/>
<feBlend mode="normal" in="SourceGraphic" in2="effect1_dropShadow_2117_130693" result="shape"/>
</filter>
<filter id="filter3_d_2117_130693" x="486" y="109.5" width="15" height="15" filterUnits="userSpaceOnUse" color-interpolation-filters="sRGB">
<feFlood flood-opacity="0" result="BackgroundImageFix"/>
<feColorMatrix in="SourceAlpha" type="matrix" values="0 0 0 0 0 0 0 0 0 0 0 0 0 0 0 0 0 0 127 0" result="hardAlpha"/>
<feOffset dy="2"/>
<feGaussianBlur stdDeviation="2.5"/>
<feColorMatrix type="matrix" values="0 0 0 0 0.14902 0 0 0 0 0.2 0 0 0 0 0.301961 0 0 0 0.03 0"/>
<feBlend mode="normal" in2="BackgroundImageFix" result="effect1_dropShadow_2117_130693"/>
<feBlend mode="normal" in="SourceGraphic" in2="effect1_dropShadow_2117_130693" result="shape"/>
</filter>
<filter id="filter4_d_2117_130693" x="494" y="109.5" width="15" height="15" filterUnits="userSpaceOnUse" color-interpolation-filters="sRGB">
<feFlood flood-opacity="0" result="BackgroundImageFix"/>
<feColorMatrix in="SourceAlpha" type="matrix" values="0 0 0 0 0 0 0 0 0 0 0 0 0 0 0 0 0 0 127 0" result="hardAlpha"/>
<feOffset dy="2"/>
<feGaussianBlur stdDeviation="2.5"/>
<feColorMatrix type="matrix" values="0 0 0 0 0.14902 0 0 0 0 0.2 0 0 0 0 0.301961 0 0 0 0.03 0"/>
<feBlend mode="normal" in2="BackgroundImageFix" result="effect1_dropShadow_2117_130693"/>
<feBlend mode="normal" in="SourceGraphic" in2="effect1_dropShadow_2117_130693" result="shape"/>
</filter>
<filter id="filter5_d_2117_130693" x="509" y="109.5" width="15" height="15" filterUnits="userSpaceOnUse" color-interpolation-filters="sRGB">
<feFlood flood-opacity="0" result="BackgroundImageFix"/>
<feColorMatrix in="SourceAlpha" type="matrix" values="0 0 0 0 0 0 0 0 0 0 0 0 0 0 0 0 0 0 127 0" result="hardAlpha"/>
<feOffset dy="2"/>
<feGaussianBlur stdDeviation="2.5"/>
<feColorMatrix type="matrix" values="0 0 0 0 0.14902 0 0 0 0 0.2 0 0 0 0 0.301961 0 0 0 0.03 0"/>
<feBlend mode="normal" in2="BackgroundImageFix" result="effect1_dropShadow_2117_130693"/>
<feBlend mode="normal" in="SourceGraphic" in2="effect1_dropShadow_2117_130693" result="shape"/>
</filter>
<filter id="filter6_d_2117_130693" x="517" y="109.5" width="15" height="15" filterUnits="userSpaceOnUse" color-interpolation-filters="sRGB">
<feFlood flood-opacity="0" result="BackgroundImageFix"/>
<feColorMatrix in="SourceAlpha" type="matrix" values="0 0 0 0 0 0 0 0 0 0 0 0 0 0 0 0 0 0 127 0" result="hardAlpha"/>
<feOffset dy="2"/>
<feGaussianBlur stdDeviation="2.5"/>
<feColorMatrix type="matrix" values="0 0 0 0 0.14902 0 0 0 0 0.2 0 0 0 0 0.301961 0 0 0 0.03 0"/>
<feBlend mode="normal" in2="BackgroundImageFix" result="effect1_dropShadow_2117_130693"/>
<feBlend mode="normal" in="SourceGraphic" in2="effect1_dropShadow_2117_130693" result="shape"/>
</filter>
<filter id="filter7_d_2117_130693" x="525" y="109.5" width="15" height="15" filterUnits="userSpaceOnUse" color-interpolation-filters="sRGB">
<feFlood flood-opacity="0" result="BackgroundImageFix"/>
<feColorMatrix in="SourceAlpha" type="matrix" values="0 0 0 0 0 0 0 0 0 0 0 0 0 0 0 0 0 0 127 0" result="hardAlpha"/>
<feOffset dy="2"/>
<feGaussianBlur stdDeviation="2.5"/>
<feColorMatrix type="matrix" values="0 0 0 0 0.14902 0 0 0 0 0.2 0 0 0 0 0.301961 0 0 0 0.03 0"/>
<feBlend mode="normal" in2="BackgroundImageFix" result="effect1_dropShadow_2117_130693"/>
<feBlend mode="normal" in="SourceGraphic" in2="effect1_dropShadow_2117_130693" result="shape"/>
</filter>
<filter id="filter8_d_2117_130693" x="533" y="109.5" width="15" height="15" filterUnits="userSpaceOnUse" color-interpolation-filters="sRGB">
<feFlood flood-opacity="0" result="BackgroundImageFix"/>
<feColorMatrix in="SourceAlpha" type="matrix" values="0 0 0 0 0 0 0 0 0 0 0 0 0 0 0 0 0 0 127 0" result="hardAlpha"/>
<feOffset dy="2"/>
<feGaussianBlur stdDeviation="2.5"/>
<feColorMatrix type="matrix" values="0 0 0 0 0.14902 0 0 0 0 0.2 0 0 0 0 0.301961 0 0 0 0.03 0"/>
<feBlend mode="normal" in2="BackgroundImageFix" result="effect1_dropShadow_2117_130693"/>
<feBlend mode="normal" in="SourceGraphic" in2="effect1_dropShadow_2117_130693" result="shape"/>
</filter>
<filter id="filter9_d_2117_130693" x="548" y="109.5" width="15" height="15" filterUnits="userSpaceOnUse" color-interpolation-filters="sRGB">
<feFlood flood-opacity="0" result="BackgroundImageFix"/>
<feColorMatrix in="SourceAlpha" type="matrix" values="0 0 0 0 0 0 0 0 0 0 0 0 0 0 0 0 0 0 127 0" result="hardAlpha"/>
<feOffset dy="2"/>
<feGaussianBlur stdDeviation="2.5"/>
<feColorMatrix type="matrix" values="0 0 0 0 0.14902 0 0 0 0 0.2 0 0 0 0 0.301961 0 0 0 0.03 0"/>
<feBlend mode="normal" in2="BackgroundImageFix" result="effect1_dropShadow_2117_130693"/>
<feBlend mode="normal" in="SourceGraphic" in2="effect1_dropShadow_2117_130693" result="shape"/>
</filter>
<filter id="filter10_d_2117_130693" x="556" y="109.5" width="15" height="15" filterUnits="userSpaceOnUse" color-interpolation-filters="sRGB">
<feFlood flood-opacity="0" result="BackgroundImageFix"/>
<feColorMatrix in="SourceAlpha" type="matrix" values="0 0 0 0 0 0 0 0 0 0 0 0 0 0 0 0 0 0 127 0" result="hardAlpha"/>
<feOffset dy="2"/>
<feGaussianBlur stdDeviation="2.5"/>
<feColorMatrix type="matrix" values="0 0 0 0 0.14902 0 0 0 0 0.2 0 0 0 0 0.301961 0 0 0 0.03 0"/>
<feBlend mode="normal" in2="BackgroundImageFix" result="effect1_dropShadow_2117_130693"/>
<feBlend mode="normal" in="SourceGraphic" in2="effect1_dropShadow_2117_130693" result="shape"/>
</filter>
<filter id="filter11_d_2117_130693" x="564" y="109.5" width="15" height="15" filterUnits="userSpaceOnUse" color-interpolation-filters="sRGB">
<feFlood flood-opacity="0" result="BackgroundImageFix"/>
<feColorMatrix in="SourceAlpha" type="matrix" values="0 0 0 0 0 0 0 0 0 0 0 0 0 0 0 0 0 0 127 0" result="hardAlpha"/>
<feOffset dy="2"/>
<feGaussianBlur stdDeviation="2.5"/>
<feColorMatrix type="matrix" values="0 0 0 0 0.14902 0 0 0 0 0.2 0 0 0 0 0.301961 0 0 0 0.03 0"/>
<feBlend mode="normal" in2="BackgroundImageFix" result="effect1_dropShadow_2117_130693"/>
<feBlend mode="normal" in="SourceGraphic" in2="effect1_dropShadow_2117_130693" result="shape"/>
</filter>
<filter id="filter12_d_2117_130693" x="572" y="109.5" width="15" height="15" filterUnits="userSpaceOnUse" color-interpolation-filters="sRGB">
<feFlood flood-opacity="0" result="BackgroundImageFix"/>
<feColorMatrix in="SourceAlpha" type="matrix" values="0 0 0 0 0 0 0 0 0 0 0 0 0 0 0 0 0 0 127 0" result="hardAlpha"/>
<feOffset dy="2"/>
<feGaussianBlur stdDeviation="2.5"/>
<feColorMatrix type="matrix" values="0 0 0 0 0.14902 0 0 0 0 0.2 0 0 0 0 0.301961 0 0 0 0.03 0"/>
<feBlend mode="normal" in2="BackgroundImageFix" result="effect1_dropShadow_2117_130693"/>
<feBlend mode="normal" in="SourceGraphic" in2="effect1_dropShadow_2117_130693" result="shape"/>
</filter>
<filter id="filter13_d_2117_130693" x="205" y="-15" width="420" height="300" filterUnits="userSpaceOnUse" color-interpolation-filters="sRGB">
<feFlood flood-opacity="0" result="BackgroundImageFix"/>
<feColorMatrix in="SourceAlpha" type="matrix" values="0 0 0 0 0 0 0 0 0 0 0 0 0 0 0 0 0 0 127 0" result="hardAlpha"/>
<feOffset dy="30"/>
<feGaussianBlur stdDeviation="30"/>
<feColorMatrix type="matrix" values="0 0 0 0 0.901961 0 0 0 0 0.180392 0 0 0 0 0.180392 0 0 0 0.15 0"/>
<feBlend mode="normal" in2="BackgroundImageFix" result="effect1_dropShadow_2117_130693"/>
<feBlend mode="normal" in="SourceGraphic" in2="effect1_dropShadow_2117_130693" result="shape"/>
</filter>
<filter id="filter14_d_2117_130693" x="285" y="105.964" width="15" height="15" filterUnits="userSpaceOnUse" color-interpolation-filters="sRGB">
<feFlood flood-opacity="0" result="BackgroundImageFix"/>
<feColorMatrix in="SourceAlpha" type="matrix" values="0 0 0 0 0 0 0 0 0 0 0 0 0 0 0 0 0 0 127 0" result="hardAlpha"/>
<feOffset dy="2"/>
<feGaussianBlur stdDeviation="2.5"/>
<feColorMatrix type="matrix" values="0 0 0 0 0.14902 0 0 0 0 0.2 0 0 0 0 0.301961 0 0 0 0.03 0"/>
<feBlend mode="normal" in2="BackgroundImageFix" result="effect1_dropShadow_2117_130693"/>
<feBlend mode="normal" in="SourceGraphic" in2="effect1_dropShadow_2117_130693" result="shape"/>
</filter>
<filter id="filter15_d_2117_130693" x="293" y="105.964" width="15" height="15" filterUnits="userSpaceOnUse" color-interpolation-filters="sRGB">
<feFlood flood-opacity="0" result="BackgroundImageFix"/>
<feColorMatrix in="SourceAlpha" type="matrix" values="0 0 0 0 0 0 0 0 0 0 0 0 0 0 0 0 0 0 127 0" result="hardAlpha"/>
<feOffset dy="2"/>
<feGaussianBlur stdDeviation="2.5"/>
<feColorMatrix type="matrix" values="0 0 0 0 0.14902 0 0 0 0 0.2 0 0 0 0 0.301961 0 0 0 0.03 0"/>
<feBlend mode="normal" in2="BackgroundImageFix" result="effect1_dropShadow_2117_130693"/>
<feBlend mode="normal" in="SourceGraphic" in2="effect1_dropShadow_2117_130693" result="shape"/>
</filter>
<filter id="filter16_d_2117_130693" x="301" y="105.964" width="15" height="15" filterUnits="userSpaceOnUse" color-interpolation-filters="sRGB">
<feFlood flood-opacity="0" result="BackgroundImageFix"/>
<feColorMatrix in="SourceAlpha" type="matrix" values="0 0 0 0 0 0 0 0 0 0 0 0 0 0 0 0 0 0 127 0" result="hardAlpha"/>
<feOffset dy="2"/>
<feGaussianBlur stdDeviation="2.5"/>
<feColorMatrix type="matrix" values="0 0 0 0 0.14902 0 0 0 0 0.2 0 0 0 0 0.301961 0 0 0 0.03 0"/>
<feBlend mode="normal" in2="BackgroundImageFix" result="effect1_dropShadow_2117_130693"/>
<feBlend mode="normal" in="SourceGraphic" in2="effect1_dropShadow_2117_130693" result="shape"/>
</filter>
<filter id="filter17_d_2117_130693" x="309" y="105.964" width="15" height="15" filterUnits="userSpaceOnUse" color-interpolation-filters="sRGB">
<feFlood flood-opacity="0" result="BackgroundImageFix"/>
<feColorMatrix in="SourceAlpha" type="matrix" values="0 0 0 0 0 0 0 0 0 0 0 0 0 0 0 0 0 0 127 0" result="hardAlpha"/>
<feOffset dy="2"/>
<feGaussianBlur stdDeviation="2.5"/>
<feColorMatrix type="matrix" values="0 0 0 0 0.14902 0 0 0 0 0.2 0 0 0 0 0.301961 0 0 0 0.03 0"/>
<feBlend mode="normal" in2="BackgroundImageFix" result="effect1_dropShadow_2117_130693"/>
<feBlend mode="normal" in="SourceGraphic" in2="effect1_dropShadow_2117_130693" result="shape"/>
</filter>
<filter id="filter18_d_2117_130693" x="324" y="105.964" width="15" height="15" filterUnits="userSpaceOnUse" color-interpolation-filters="sRGB">
<feFlood flood-opacity="0" result="BackgroundImageFix"/>
<feColorMatrix in="SourceAlpha" type="matrix" values="0 0 0 0 0 0 0 0 0 0 0 0 0 0 0 0 0 0 127 0" result="hardAlpha"/>
<feOffset dy="2"/>
<feGaussianBlur stdDeviation="2.5"/>
<feColorMatrix type="matrix" values="0 0 0 0 0.14902 0 0 0 0 0.2 0 0 0 0 0.301961 0 0 0 0.03 0"/>
<feBlend mode="normal" in2="BackgroundImageFix" result="effect1_dropShadow_2117_130693"/>
<feBlend mode="normal" in="SourceGraphic" in2="effect1_dropShadow_2117_130693" result="shape"/>
</filter>
<filter id="filter19_d_2117_130693" x="332" y="105.964" width="15" height="15" filterUnits="userSpaceOnUse" color-interpolation-filters="sRGB">
<feFlood flood-opacity="0" result="BackgroundImageFix"/>
<feColorMatrix in="SourceAlpha" type="matrix" values="0 0 0 0 0 0 0 0 0 0 0 0 0 0 0 0 0 0 127 0" result="hardAlpha"/>
<feOffset dy="2"/>
<feGaussianBlur stdDeviation="2.5"/>
<feColorMatrix type="matrix" values="0 0 0 0 0.14902 0 0 0 0 0.2 0 0 0 0 0.301961 0 0 0 0.03 0"/>
<feBlend mode="normal" in2="BackgroundImageFix" result="effect1_dropShadow_2117_130693"/>
<feBlend mode="normal" in="SourceGraphic" in2="effect1_dropShadow_2117_130693" result="shape"/>
</filter>
<filter id="filter20_d_2117_130693" x="340" y="105.964" width="15" height="15" filterUnits="userSpaceOnUse" color-interpolation-filters="sRGB">
<feFlood flood-opacity="0" result="BackgroundImageFix"/>
<feColorMatrix in="SourceAlpha" type="matrix" values="0 0 0 0 0 0 0 0 0 0 0 0 0 0 0 0 0 0 127 0" result="hardAlpha"/>
<feOffset dy="2"/>
<feGaussianBlur stdDeviation="2.5"/>
<feColorMatrix type="matrix" values="0 0 0 0 0.14902 0 0 0 0 0.2 0 0 0 0 0.301961 0 0 0 0.03 0"/>
<feBlend mode="normal" in2="BackgroundImageFix" result="effect1_dropShadow_2117_130693"/>
<feBlend mode="normal" in="SourceGraphic" in2="effect1_dropShadow_2117_130693" result="shape"/>
</filter>
<filter id="filter21_d_2117_130693" x="348" y="105.964" width="15" height="15" filterUnits="userSpaceOnUse" color-interpolation-filters="sRGB">
<feFlood flood-opacity="0" result="BackgroundImageFix"/>
<feColorMatrix in="SourceAlpha" type="matrix" values="0 0 0 0 0 0 0 0 0 0 0 0 0 0 0 0 0 0 127 0" result="hardAlpha"/>
<feOffset dy="2"/>
<feGaussianBlur stdDeviation="2.5"/>
<feColorMatrix type="matrix" values="0 0 0 0 0.14902 0 0 0 0 0.2 0 0 0 0 0.301961 0 0 0 0.03 0"/>
<feBlend mode="normal" in2="BackgroundImageFix" result="effect1_dropShadow_2117_130693"/>
<feBlend mode="normal" in="SourceGraphic" in2="effect1_dropShadow_2117_130693" result="shape"/>
</filter>
<filter id="filter22_d_2117_130693" x="363" y="105.964" width="15" height="15" filterUnits="userSpaceOnUse" color-interpolation-filters="sRGB">
<feFlood flood-opacity="0" result="BackgroundImageFix"/>
<feColorMatrix in="SourceAlpha" type="matrix" values="0 0 0 0 0 0 0 0 0 0 0 0 0 0 0 0 0 0 127 0" result="hardAlpha"/>
<feOffset dy="2"/>
<feGaussianBlur stdDeviation="2.5"/>
<feColorMatrix type="matrix" values="0 0 0 0 0.14902 0 0 0 0 0.2 0 0 0 0 0.301961 0 0 0 0.03 0"/>
<feBlend mode="normal" in2="BackgroundImageFix" result="effect1_dropShadow_2117_130693"/>
<feBlend mode="normal" in="SourceGraphic" in2="effect1_dropShadow_2117_130693" result="shape"/>
</filter>
<filter id="filter23_d_2117_130693" x="371" y="105.964" width="15" height="15" filterUnits="userSpaceOnUse" color-interpolation-filters="sRGB">
<feFlood flood-opacity="0" result="BackgroundImageFix"/>
<feColorMatrix in="SourceAlpha" type="matrix" values="0 0 0 0 0 0 0 0 0 0 0 0 0 0 0 0 0 0 127 0" result="hardAlpha"/>
<feOffset dy="2"/>
<feGaussianBlur stdDeviation="2.5"/>
<feColorMatrix type="matrix" values="0 0 0 0 0.14902 0 0 0 0 0.2 0 0 0 0 0.301961 0 0 0 0.03 0"/>
<feBlend mode="normal" in2="BackgroundImageFix" result="effect1_dropShadow_2117_130693"/>
<feBlend mode="normal" in="SourceGraphic" in2="effect1_dropShadow_2117_130693" result="shape"/>
</filter>
<filter id="filter24_d_2117_130693" x="379" y="105.964" width="15" height="15" filterUnits="userSpaceOnUse" color-interpolation-filters="sRGB">
<feFlood flood-opacity="0" result="BackgroundImageFix"/>
<feColorMatrix in="SourceAlpha" type="matrix" values="0 0 0 0 0 0 0 0 0 0 0 0 0 0 0 0 0 0 127 0" result="hardAlpha"/>
<feOffset dy="2"/>
<feGaussianBlur stdDeviation="2.5"/>
<feColorMatrix type="matrix" values="0 0 0 0 0.14902 0 0 0 0 0.2 0 0 0 0 0.301961 0 0 0 0.03 0"/>
<feBlend mode="normal" in2="BackgroundImageFix" result="effect1_dropShadow_2117_130693"/>
<feBlend mode="normal" in="SourceGraphic" in2="effect1_dropShadow_2117_130693" result="shape"/>
</filter>
<filter id="filter25_d_2117_130693" x="387" y="105.964" width="15" height="15" filterUnits="userSpaceOnUse" color-interpolation-filters="sRGB">
<feFlood flood-opacity="0" result="BackgroundImageFix"/>
<feColorMatrix in="SourceAlpha" type="matrix" values="0 0 0 0 0 0 0 0 0 0 0 0 0 0 0 0 0 0 127 0" result="hardAlpha"/>
<feOffset dy="2"/>
<feGaussianBlur stdDeviation="2.5"/>
<feColorMatrix type="matrix" values="0 0 0 0 0.14902 0 0 0 0 0.2 0 0 0 0 0.301961 0 0 0 0.03 0"/>
<feBlend mode="normal" in2="BackgroundImageFix" result="effect1_dropShadow_2117_130693"/>
<feBlend mode="normal" in="SourceGraphic" in2="effect1_dropShadow_2117_130693" result="shape"/>
</filter>
<filter id="filter26_d_2117_130693" x="-30" y="-30" width="470" height="330" filterUnits="userSpaceOnUse" color-interpolation-filters="sRGB">
<feFlood flood-opacity="0" result="BackgroundImageFix"/>
<feColorMatrix in="SourceAlpha" type="matrix" values="0 0 0 0 0 0 0 0 0 0 0 0 0 0 0 0 0 0 127 0" result="hardAlpha"/>
<feOffset dy="30"/>
<feGaussianBlur stdDeviation="30"/>
<feColorMatrix type="matrix" values="0 0 0 0 0.901961 0 0 0 0 0.180392 0 0 0 0 0.180392 0 0 0 0.15 0"/>
<feBlend mode="normal" in2="BackgroundImageFix" result="effect1_dropShadow_2117_130693"/>
<feBlend mode="normal" in="SourceGraphic" in2="effect1_dropShadow_2117_130693" result="shape"/>
</filter>
<filter id="filter27_d_2117_130693" x="55" y="105.964" width="15" height="15" filterUnits="userSpaceOnUse" color-interpolation-filters="sRGB">
<feFlood flood-opacity="0" result="BackgroundImageFix"/>
<feColorMatrix in="SourceAlpha" type="matrix" values="0 0 0 0 0 0 0 0 0 0 0 0 0 0 0 0 0 0 127 0" result="hardAlpha"/>
<feOffset dy="2"/>
<feGaussianBlur stdDeviation="2.5"/>
<feColorMatrix type="matrix" values="0 0 0 0 0.14902 0 0 0 0 0.2 0 0 0 0 0.301961 0 0 0 0.03 0"/>
<feBlend mode="normal" in2="BackgroundImageFix" result="effect1_dropShadow_2117_130693"/>
<feBlend mode="normal" in="SourceGraphic" in2="effect1_dropShadow_2117_130693" result="shape"/>
</filter>
<filter id="filter28_d_2117_130693" x="63" y="105.964" width="15" height="15" filterUnits="userSpaceOnUse" color-interpolation-filters="sRGB">
<feFlood flood-opacity="0" result="BackgroundImageFix"/>
<feColorMatrix in="SourceAlpha" type="matrix" values="0 0 0 0 0 0 0 0 0 0 0 0 0 0 0 0 0 0 127 0" result="hardAlpha"/>
<feOffset dy="2"/>
<feGaussianBlur stdDeviation="2.5"/>
<feColorMatrix type="matrix" values="0 0 0 0 0.14902 0 0 0 0 0.2 0 0 0 0 0.301961 0 0 0 0.03 0"/>
<feBlend mode="normal" in2="BackgroundImageFix" result="effect1_dropShadow_2117_130693"/>
<feBlend mode="normal" in="SourceGraphic" in2="effect1_dropShadow_2117_130693" result="shape"/>
</filter>
<filter id="filter29_d_2117_130693" x="71" y="105.964" width="15" height="15" filterUnits="userSpaceOnUse" color-interpolation-filters="sRGB">
<feFlood flood-opacity="0" result="BackgroundImageFix"/>
<feColorMatrix in="SourceAlpha" type="matrix" values="0 0 0 0 0 0 0 0 0 0 0 0 0 0 0 0 0 0 127 0" result="hardAlpha"/>
<feOffset dy="2"/>
<feGaussianBlur stdDeviation="2.5"/>
<feColorMatrix type="matrix" values="0 0 0 0 0.14902 0 0 0 0 0.2 0 0 0 0 0.301961 0 0 0 0.03 0"/>
<feBlend mode="normal" in2="BackgroundImageFix" result="effect1_dropShadow_2117_130693"/>
<feBlend mode="normal" in="SourceGraphic" in2="effect1_dropShadow_2117_130693" result="shape"/>
</filter>
<filter id="filter30_d_2117_130693" x="79" y="105.964" width="15" height="15" filterUnits="userSpaceOnUse" color-interpolation-filters="sRGB">
<feFlood flood-opacity="0" result="BackgroundImageFix"/>
<feColorMatrix in="SourceAlpha" type="matrix" values="0 0 0 0 0 0 0 0 0 0 0 0 0 0 0 0 0 0 127 0" result="hardAlpha"/>
<feOffset dy="2"/>
<feGaussianBlur stdDeviation="2.5"/>
<feColorMatrix type="matrix" values="0 0 0 0 0.14902 0 0 0 0 0.2 0 0 0 0 0.301961 0 0 0 0.03 0"/>
<feBlend mode="normal" in2="BackgroundImageFix" result="effect1_dropShadow_2117_130693"/>
<feBlend mode="normal" in="SourceGraphic" in2="effect1_dropShadow_2117_130693" result="shape"/>
</filter>
<filter id="filter31_d_2117_130693" x="94" y="105.964" width="15" height="15" filterUnits="userSpaceOnUse" color-interpolation-filters="sRGB">
<feFlood flood-opacity="0" result="BackgroundImageFix"/>
<feColorMatrix in="SourceAlpha" type="matrix" values="0 0 0 0 0 0 0 0 0 0 0 0 0 0 0 0 0 0 127 0" result="hardAlpha"/>
<feOffset dy="2"/>
<feGaussianBlur stdDeviation="2.5"/>
<feColorMatrix type="matrix" values="0 0 0 0 0.14902 0 0 0 0 0.2 0 0 0 0 0.301961 0 0 0 0.03 0"/>
<feBlend mode="normal" in2="BackgroundImageFix" result="effect1_dropShadow_2117_130693"/>
<feBlend mode="normal" in="SourceGraphic" in2="effect1_dropShadow_2117_130693" result="shape"/>
</filter>
<filter id="filter32_d_2117_130693" x="102" y="105.964" width="15" height="15" filterUnits="userSpaceOnUse" color-interpolation-filters="sRGB">
<feFlood flood-opacity="0" result="BackgroundImageFix"/>
<feColorMatrix in="SourceAlpha" type="matrix" values="0 0 0 0 0 0 0 0 0 0 0 0 0 0 0 0 0 0 127 0" result="hardAlpha"/>
<feOffset dy="2"/>
<feGaussianBlur stdDeviation="2.5"/>
<feColorMatrix type="matrix" values="0 0 0 0 0.14902 0 0 0 0 0.2 0 0 0 0 0.301961 0 0 0 0.03 0"/>
<feBlend mode="normal" in2="BackgroundImageFix" result="effect1_dropShadow_2117_130693"/>
<feBlend mode="normal" in="SourceGraphic" in2="effect1_dropShadow_2117_130693" result="shape"/>
</filter>
<filter id="filter33_d_2117_130693" x="110" y="105.964" width="15" height="15" filterUnits="userSpaceOnUse" color-interpolation-filters="sRGB">
<feFlood flood-opacity="0" result="BackgroundImageFix"/>
<feColorMatrix in="SourceAlpha" type="matrix" values="0 0 0 0 0 0 0 0 0 0 0 0 0 0 0 0 0 0 127 0" result="hardAlpha"/>
<feOffset dy="2"/>
<feGaussianBlur stdDeviation="2.5"/>
<feColorMatrix type="matrix" values="0 0 0 0 0.14902 0 0 0 0 0.2 0 0 0 0 0.301961 0 0 0 0.03 0"/>
<feBlend mode="normal" in2="BackgroundImageFix" result="effect1_dropShadow_2117_130693"/>
<feBlend mode="normal" in="SourceGraphic" in2="effect1_dropShadow_2117_130693" result="shape"/>
</filter>
<filter id="filter34_d_2117_130693" x="118" y="105.964" width="15" height="15" filterUnits="userSpaceOnUse" color-interpolation-filters="sRGB">
<feFlood flood-opacity="0" result="BackgroundImageFix"/>
<feColorMatrix in="SourceAlpha" type="matrix" values="0 0 0 0 0 0 0 0 0 0 0 0 0 0 0 0 0 0 127 0" result="hardAlpha"/>
<feOffset dy="2"/>
<feGaussianBlur stdDeviation="2.5"/>
<feColorMatrix type="matrix" values="0 0 0 0 0.14902 0 0 0 0 0.2 0 0 0 0 0.301961 0 0 0 0.03 0"/>
<feBlend mode="normal" in2="BackgroundImageFix" result="effect1_dropShadow_2117_130693"/>
<feBlend mode="normal" in="SourceGraphic" in2="effect1_dropShadow_2117_130693" result="shape"/>
</filter>
<filter id="filter35_d_2117_130693" x="133" y="105.964" width="15" height="15" filterUnits="userSpaceOnUse" color-interpolation-filters="sRGB">
<feFlood flood-opacity="0" result="BackgroundImageFix"/>
<feColorMatrix in="SourceAlpha" type="matrix" values="0 0 0 0 0 0 0 0 0 0 0 0 0 0 0 0 0 0 127 0" result="hardAlpha"/>
<feOffset dy="2"/>
<feGaussianBlur stdDeviation="2.5"/>
<feColorMatrix type="matrix" values="0 0 0 0 0.14902 0 0 0 0 0.2 0 0 0 0 0.301961 0 0 0 0.03 0"/>
<feBlend mode="normal" in2="BackgroundImageFix" result="effect1_dropShadow_2117_130693"/>
<feBlend mode="normal" in="SourceGraphic" in2="effect1_dropShadow_2117_130693" result="shape"/>
</filter>
<filter id="filter36_d_2117_130693" x="141" y="105.964" width="15" height="15" filterUnits="userSpaceOnUse" color-interpolation-filters="sRGB">
<feFlood flood-opacity="0" result="BackgroundImageFix"/>
<feColorMatrix in="SourceAlpha" type="matrix" values="0 0 0 0 0 0 0 0 0 0 0 0 0 0 0 0 0 0 127 0" result="hardAlpha"/>
<feOffset dy="2"/>
<feGaussianBlur stdDeviation="2.5"/>
<feColorMatrix type="matrix" values="0 0 0 0 0.14902 0 0 0 0 0.2 0 0 0 0 0.301961 0 0 0 0.03 0"/>
<feBlend mode="normal" in2="BackgroundImageFix" result="effect1_dropShadow_2117_130693"/>
<feBlend mode="normal" in="SourceGraphic" in2="effect1_dropShadow_2117_130693" result="shape"/>
</filter>
<filter id="filter37_d_2117_130693" x="149" y="105.964" width="15" height="15" filterUnits="userSpaceOnUse" color-interpolation-filters="sRGB">
<feFlood flood-opacity="0" result="BackgroundImageFix"/>
<feColorMatrix in="SourceAlpha" type="matrix" values="0 0 0 0 0 0 0 0 0 0 0 0 0 0 0 0 0 0 127 0" result="hardAlpha"/>
<feOffset dy="2"/>
<feGaussianBlur stdDeviation="2.5"/>
<feColorMatrix type="matrix" values="0 0 0 0 0.14902 0 0 0 0 0.2 0 0 0 0 0.301961 0 0 0 0.03 0"/>
<feBlend mode="normal" in2="BackgroundImageFix" result="effect1_dropShadow_2117_130693"/>
<feBlend mode="normal" in="SourceGraphic" in2="effect1_dropShadow_2117_130693" result="shape"/>
</filter>
<filter id="filter38_d_2117_130693" x="157" y="105.964" width="15" height="15" filterUnits="userSpaceOnUse" color-interpolation-filters="sRGB">
<feFlood flood-opacity="0" result="BackgroundImageFix"/>
<feColorMatrix in="SourceAlpha" type="matrix" values="0 0 0 0 0 0 0 0 0 0 0 0 0 0 0 0 0 0 127 0" result="hardAlpha"/>
<feOffset dy="2"/>
<feGaussianBlur stdDeviation="2.5"/>
<feColorMatrix type="matrix" values="0 0 0 0 0.14902 0 0 0 0 0.2 0 0 0 0 0.301961 0 0 0 0.03 0"/>
<feBlend mode="normal" in2="BackgroundImageFix" result="effect1_dropShadow_2117_130693"/>
<feBlend mode="normal" in="SourceGraphic" in2="effect1_dropShadow_2117_130693" result="shape"/>
</filter>
<filter id="filter39_d_2117_130693" x="635" y="72" width="70" height="70" filterUnits="userSpaceOnUse" color-interpolation-filters="sRGB">
<feFlood flood-opacity="0" result="BackgroundImageFix"/>
<feColorMatrix in="SourceAlpha" type="matrix" values="0 0 0 0 0 0 0 0 0 0 0 0 0 0 0 0 0 0 127 0" result="hardAlpha"/>
<feOffset dy="2"/>
<feGaussianBlur stdDeviation="2.5"/>
<feColorMatrix type="matrix" values="0 0 0 0 0.14902 0 0 0 0 0.2 0 0 0 0 0.301961 0 0 0 0.03 0"/>
<feBlend mode="normal" in2="BackgroundImageFix" result="effect1_dropShadow_2117_130693"/>
<feBlend mode="normal" in="SourceGraphic" in2="effect1_dropShadow_2117_130693" result="shape"/>
</filter>
<linearGradient id="paint0_linear_2117_130693" x1="498.612" y1="-13.2739" x2="450.661" y2="255.302" gradientUnits="userSpaceOnUse">
<stop stop-color="#3B3B3B"/>
<stop offset="1" stop-color="#767676"/>
</linearGradient>
<linearGradient id="paint1_linear_2117_130693" x1="314.085" y1="-28.949" x2="258.38" y2="279.21" gradientUnits="userSpaceOnUse">
<stop stop-color="#6246FF"/>
<stop offset="1" stop-color="#FFB9B9"/>
</linearGradient>
<linearGradient id="paint2_linear_2117_130693" x1="87.2661" y1="-51.2738" x2="22.2763" y2="308.245" gradientUnits="userSpaceOnUse">
<stop stop-color="#FDB061"/>
<stop offset="1" stop-color="#F4DA50"/>
</linearGradient>
</defs>
</svg>
