<svg width="323" height="322" viewBox="0 0 323 322" fill="none" xmlns="http://www.w3.org/2000/svg">
<circle opacity="0.2" cx="161.5" cy="161" r="160" stroke="#2EE6CA" stroke-width="2" stroke-linecap="round" stroke-linejoin="round"/>
<path d="M305.239 90.6395C279.203 37.5497 224.62 1 161.5 1" stroke="#2EE6CA" stroke-width="2" stroke-linecap="round" stroke-linejoin="round"/>
<circle opacity="0.2" cx="161.5" cy="161" r="140" stroke="#FFCB33" stroke-width="2" stroke-linecap="round" stroke-linejoin="round"/>
<path d="M268.692 251.06C289.166 226.717 301.5 195.299 301.5 161C301.5 139.153 296.496 118.475 287.571 100.049" stroke="#FFCB33" stroke-width="2" stroke-linecap="round" stroke-linejoin="round"/>
<circle opacity="0.2" cx="161.5" cy="161" r="120" stroke="#29CC39" stroke-width="2" stroke-linecap="round" stroke-linejoin="round"/>
<path d="M182.446 279.178C210.902 274.169 235.902 259.134 253.667 237.85" stroke="#29CC39" stroke-width="2" stroke-linecap="round" stroke-linejoin="round"/>
<circle opacity="0.2" cx="161.5" cy="161" r="100" stroke="#8833FF" stroke-width="2" stroke-linecap="round" stroke-linejoin="round"/>
<path d="M119.132 251.607C131.996 257.633 146.355 261 161.5 261C167.009 261 172.415 260.554 177.682 259.697" stroke="#8833FF" stroke-width="2" stroke-linecap="round" stroke-linejoin="round"/>
<circle opacity="0.2" cx="161.5" cy="161" r="80" stroke="#FF6633" stroke-width="2" stroke-linecap="round" stroke-linejoin="round"/>
<path d="M107.408 219.942C112.988 225.065 119.297 229.406 126.162 232.792" stroke="#FF6633" stroke-width="2" stroke-linecap="round" stroke-linejoin="round"/>
<circle opacity="0.2" cx="161.5" cy="161" r="60" stroke="#3361FF" stroke-width="2" stroke-linecap="round" stroke-linejoin="round"/>
<path d="M111.909 127.214C105.341 136.837 101.5 148.47 101.5 161C101.5 177.871 108.463 193.115 119.672 204.017" stroke="#3361FF" stroke-width="2" stroke-linecap="round" stroke-linejoin="round"/>
<circle opacity="0.2" cx="161.5" cy="161" r="40" stroke="#E62E7B" stroke-width="2" stroke-linecap="round" stroke-linejoin="round"/>
<path d="M173.997 122.991C170.065 121.699 165.864 121 161.5 121C148.629 121 137.178 127.079 129.861 136.522" stroke="#E62E7B" stroke-width="2" stroke-linecap="round" stroke-linejoin="round"/>
<circle opacity="0.2" cx="161.5" cy="161" r="20" stroke="#33BFFF" stroke-width="2" stroke-linecap="round" stroke-linejoin="round"/>
<path d="M180.935 156.262C179.398 149.932 174.848 144.78 168.889 142.409" stroke="#33BFFF" stroke-width="2" stroke-linecap="round" stroke-linejoin="round"/>
</svg>
