<svg width="28" height="29" viewBox="0 0 28 29" fill="none" xmlns="http://www.w3.org/2000/svg">
<g id="Icon">
<path id="Icon_2" fill-rule="evenodd" clip-rule="evenodd" d="M18.0055 18.9823V13.373C18.0055 12.8597 17.5855 12.4397 17.0721 12.4397C16.5588 12.4397 16.1388 12.8597 16.1388 13.373V18.9823H14.4681C14.0481 18.9823 13.8428 19.4863 14.1415 19.7757L16.7455 22.3703C16.9321 22.5477 17.2215 22.5477 17.4081 22.3703L20.0121 19.7757C20.3108 19.4863 20.0961 18.9823 19.6855 18.9823H18.0055ZM11.1455 6.23301L8.54146 8.83701C8.24279 9.12634 8.44812 9.63034 8.86812 9.63034H10.5388V15.2397C10.5388 15.753 10.9588 16.173 11.4721 16.173C11.9855 16.173 12.4055 15.753 12.4055 15.2397V9.63034H14.0761C14.4961 9.63034 14.7015 9.12634 14.4028 8.83701L11.7988 6.23301C11.6215 6.05567 11.3228 6.05567 11.1455 6.23301Z" fill="#C3CAD9"/>
</g>
</svg>
