<svg width="29" height="28" viewBox="0 0 29 28" fill="none" xmlns="http://www.w3.org/2000/svg">
<path fill-rule="evenodd" clip-rule="evenodd" d="M18.7 3.73328H11.2333C9.94533 3.73328 8.89999 4.77861 8.89999 6.06661V21.9333C8.89999 23.2213 9.94533 24.2666 11.2333 24.2666H18.7C19.988 24.2666 21.0333 23.2213 21.0333 21.9333V6.06661C21.0333 4.77861 19.988 3.73328 18.7 3.73328ZM14.9667 23.3333C14.192 23.3333 13.5667 22.7079 13.5667 21.9333C13.5667 21.1586 14.192 20.5333 14.9667 20.5333C15.7413 20.5333 16.3667 21.1586 16.3667 21.9333C16.3667 22.7079 15.7413 23.3333 14.9667 23.3333ZM19.1667 19.5999H10.7667V6.53328H19.1667V19.5999Z" fill="#33BFFF"/>
</svg>
