<svg width="29" height="28" viewBox="0 0 29 28" fill="none" xmlns="http://www.w3.org/2000/svg">
<path fill-rule="evenodd" clip-rule="evenodd" d="M23.8333 11.2117H19.3627L15.2653 5.07969C14.892 4.52902 14.08 4.52902 13.716 5.07969L9.61867 11.2117H5.16667C4.65334 11.2117 4.23334 11.6317 4.23334 12.145C4.23334 12.229 4.24267 12.313 4.27067 12.397L6.64134 21.049C6.856 21.833 7.57467 22.4117 8.43334 22.4117H20.5667C21.4253 22.4117 22.144 21.833 22.368 21.049L24.7387 12.397L24.7667 12.145C24.7667 11.6317 24.3467 11.2117 23.8333 11.2117ZM14.4907 7.28235L17.1133 11.2117H11.868L14.4907 7.28235ZM14.5 18.6784C13.4733 18.6784 12.6333 17.8384 12.6333 16.8117C12.6333 15.785 13.4733 14.945 14.5 14.945C15.5267 14.945 16.3667 15.785 16.3667 16.8117C16.3667 17.8384 15.5267 18.6784 14.5 18.6784Z" fill="#3361FF"/>
</svg>
