<svg width="28" height="28" viewBox="0 0 28 28" fill="none" xmlns="http://www.w3.org/2000/svg">
<path fill-rule="evenodd" clip-rule="evenodd" d="M20.5333 6.53335H16.632C16.24 5.45069 15.2133 4.66669 14 4.66669C12.7866 4.66669 11.76 5.45069 11.368 6.53335H7.46664C6.43998 6.53335 5.59998 7.37335 5.59998 8.40002V21.4667C5.59998 22.4934 6.43998 23.3334 7.46664 23.3334H20.5333C21.56 23.3334 22.4 22.4934 22.4 21.4667V8.40002C22.4 7.37335 21.56 6.53335 20.5333 6.53335ZM14 6.53335C14.5133 6.53335 14.9333 6.95335 14.9333 7.46669C14.9333 7.98002 14.5133 8.40002 14 8.40002C13.4866 8.40002 13.0666 7.98002 13.0666 7.46669C13.0666 6.95335 13.4866 6.53335 14 6.53335ZM14.9333 19.6H10.2666C9.75331 19.6 9.33331 19.18 9.33331 18.6667C9.33331 18.1534 9.75331 17.7334 10.2666 17.7334H14.9333C15.4466 17.7334 15.8666 18.1534 15.8666 18.6667C15.8666 19.18 15.4466 19.6 14.9333 19.6ZM17.7333 15.8667H10.2666C9.75331 15.8667 9.33331 15.4467 9.33331 14.9334C9.33331 14.42 9.75331 14 10.2666 14H17.7333C18.2466 14 18.6666 14.42 18.6666 14.9334C18.6666 15.4467 18.2466 15.8667 17.7333 15.8667ZM17.7333 12.1334H10.2666C9.75331 12.1334 9.33331 11.7134 9.33331 11.2C9.33331 10.6867 9.75331 10.2667 10.2666 10.2667H17.7333C18.2466 10.2667 18.6666 10.6867 18.6666 11.2C18.6666 11.7134 18.2466 12.1334 17.7333 12.1334Z" fill="#C3CAD9"/>
</svg>
