<svg width="28" height="28" viewBox="0 0 28 28" fill="none" xmlns="http://www.w3.org/2000/svg">
<path fill-rule="evenodd" clip-rule="evenodd" d="M21.609 16.2796L22.281 15.6076C22.645 15.2436 22.645 14.6556 22.281 14.2916L22.2623 14.273C22.088 14.0982 21.8512 14 21.6043 14C21.3575 14 21.1207 14.0982 20.9463 14.273L18.277 16.9423L10.2783 8.94363L12.9477 6.27429C13.3117 5.91029 13.3117 5.32229 12.9477 4.95829L12.929 4.93963C12.7546 4.76486 12.5179 4.66664 12.271 4.66664C12.0241 4.66664 11.7874 4.76486 11.613 4.93963L10.941 5.61163L10.269 4.93963C9.905 4.57563 9.30767 4.57563 8.94367 4.93963L7.609 6.27429L6.93701 5.60229C6.573 5.23829 5.96634 5.23829 5.60234 5.60229C5.23834 5.96629 5.23834 6.57296 5.60234 6.93696L6.27434 7.60896L4.93967 8.94363C4.57567 9.30763 4.57567 9.89563 4.93967 10.2596L5.61167 10.9316L4.93967 11.613C4.57567 11.977 4.57567 12.565 4.93967 12.929L4.95834 12.9476C5.32234 13.3116 5.91034 13.3116 6.27434 12.9476L8.94367 10.2783L16.9423 18.277L14.273 20.9463C13.909 21.3103 13.909 21.8983 14.273 22.2623L14.2917 22.281C14.6557 22.645 15.2437 22.645 15.6077 22.281L16.2797 21.609L16.9517 22.281C17.3157 22.645 17.9037 22.645 18.2677 22.281L19.6023 20.9463L20.2743 21.6183C20.6383 21.9823 21.245 21.9823 21.609 21.6183C21.973 21.2543 21.973 20.6476 21.609 20.2836L20.937 19.6116L22.281 18.277C22.645 17.913 22.645 17.325 22.281 16.961L21.609 16.2796Z" fill="#E62E7B"/>
</svg>
