<svg width="50" height="50" viewBox="0 0 50 50" fill="none" xmlns="http://www.w3.org/2000/svg">
<rect width="50" height="50" rx="25" fill="#FFCB33"/>
<path d="M27.2 17.8286C27.8 17.0571 28.2285 16.0286 28.1 15C27.2 15.0429 26.1285 15.6 25.4857 16.3286C24.9285 16.9714 24.4142 18.0429 24.5428 19.0286C25.5714 19.1571 26.5571 18.6 27.2 17.8286Z" fill="white"/>
<path d="M28.1 19.2857C26.6428 19.2 25.4 20.1 24.7143 20.1C24.0286 20.1 22.9571 19.3286 21.8 19.3286C20.3 19.3714 18.9286 20.1857 18.1571 21.5572C16.6143 24.2572 17.7286 28.2429 19.2714 30.4286C20 31.5 20.9 32.7 22.0571 32.6572C23.1714 32.6143 23.6 31.9286 24.9286 31.9286C26.2571 31.9286 26.6428 32.6572 27.8428 32.6143C29.0428 32.5714 29.8143 31.5429 30.5428 30.4286C31.4 29.1857 31.7428 27.9857 31.7428 27.9429C31.7 27.9 29.3857 27.0429 29.3857 24.3857C29.3428 22.1572 31.1857 21.0857 31.2714 21.0429C30.2857 19.5 28.6571 19.3286 28.1 19.2857Z" fill="white"/>
</svg>
