<svg width="28" height="28" viewBox="0 0 28 28" fill="none" xmlns="http://www.w3.org/2000/svg">
<path fill-rule="evenodd" clip-rule="evenodd" d="M21.252 9.54798L21.2613 9.53864L18.284 6.56131C18.0133 6.29064 17.5653 6.29064 17.2947 6.56131C17.024 6.83198 17.024 7.27998 17.2947 7.55064L18.7693 9.02531C17.7893 9.39864 17.1267 10.3973 17.2947 11.5546C17.444 12.5813 18.3213 13.412 19.348 13.524C19.7867 13.5706 20.1693 13.496 20.5333 13.3373V20.0666C20.5333 20.58 20.1133 21 19.6 21C19.0867 21 18.6667 20.58 18.6667 20.0666V15.8666C18.6667 14.84 17.8267 14 16.8 14H15.8667V7.46664C15.8667 6.43998 15.0267 5.59998 14 5.59998H8.39999C7.37333 5.59998 6.53333 6.43998 6.53333 7.46664V21.4666C6.53333 21.98 6.95333 22.4 7.46666 22.4H14.9333C15.4467 22.4 15.8667 21.98 15.8667 21.4666V15.4H17.2667V19.936C17.2667 21.1586 18.144 22.2693 19.3573 22.3906C20.7573 22.5306 21.9333 21.4386 21.9333 20.0666V11.2C21.9333 10.556 21.672 9.96798 21.252 9.54798ZM14 12.1333H8.39999V8.39998C8.39999 7.88664 8.81999 7.46664 9.33332 7.46664H13.0667C13.58 7.46664 14 7.88664 14 8.39998V12.1333ZM19.6 12.1333C19.0867 12.1333 18.6667 11.7133 18.6667 11.2C18.6667 10.6866 19.0867 10.2666 19.6 10.2666C20.1133 10.2666 20.5333 10.6866 20.5333 11.2C20.5333 11.7133 20.1133 12.1333 19.6 12.1333Z" fill="#E62E2E"/>
</svg>
