<svg width="50" height="50" viewBox="0 0 50 50" fill="none" xmlns="http://www.w3.org/2000/svg">
<rect width="50" height="50" rx="25" fill="#E4E7F0"/>
<path d="M26.8809 13.0738L26.8711 18.5742L26.8613 24.0747L26.4094 22.7978V22.7946L25.8234 35.0397C26.3996 36.6636 26.7074 37.5313 26.7106 37.5346C26.7139 37.5378 27.0413 37.5575 27.4375 37.5771C28.6358 37.6361 30.1223 37.7637 31.2518 37.9045C31.5137 37.9373 31.7364 37.9536 31.7528 37.9405C31.7691 37.9274 31.7724 32.3287 31.7691 25.4957L31.7593 13.0738L26.8809 13.0738Z" fill="#E62E2E"/>
<path d="M18.0572 13.0574V25.4924C18.0572 32.332 18.0637 37.934 18.0736 37.9438C18.0834 37.9536 18.5057 37.9111 19.0165 37.8554C19.5273 37.7997 20.2312 37.7277 20.5815 37.6983C21.1185 37.6524 22.7293 37.5509 22.9127 37.5476C22.9683 37.5476 22.9716 37.2693 22.9782 32.2796L22.988 27.0116L23.3776 28.1117C23.4365 28.2819 23.4562 28.3343 23.5151 28.5013L24.1012 16.2595C23.9768 15.9091 24.0422 16.0925 23.9015 15.693C23.4234 14.3408 23.0174 13.1982 23.0011 13.1458L22.9683 13.0541H18.0572V13.0574Z" fill="#E62E2E"/>
<path d="M26.8809 13.0738L26.8711 18.5742L26.8613 24.0747L26.4094 22.7978V22.7946L25.8234 35.0397C26.3996 36.6636 26.7074 37.5313 26.7106 37.5346C26.7139 37.5378 27.0413 37.5575 27.4375 37.5771C28.6358 37.6361 30.1223 37.7637 31.2518 37.9045C31.5137 37.9373 31.7364 37.9536 31.7528 37.9405C31.7691 37.9274 31.7724 32.3287 31.7691 25.4957L31.7593 13.0738L26.8809 13.0738Z" fill="#E62E2E"/>
<path d="M18.0572 13.0574V25.4924C18.0572 32.332 18.0637 37.934 18.0736 37.9438C18.0834 37.9536 18.5057 37.9111 19.0165 37.8554C19.5273 37.7997 20.2312 37.7277 20.5815 37.6983C21.1185 37.6524 22.7293 37.5509 22.9127 37.5476C22.9683 37.5476 22.9716 37.2693 22.9782 32.2796L22.988 27.0116L23.3776 28.1117C23.4365 28.2819 23.4562 28.3343 23.5151 28.5013L24.1012 16.2595C23.9768 15.9091 24.0422 16.0925 23.9015 15.693C23.4234 14.3408 23.0174 13.1982 23.0011 13.1458L22.9683 13.0541H18.0572V13.0574Z" fill="#E62E2E"/>
<path d="M18.0572 13.0574V20.0378L22.9749 33.0818C22.9749 32.7838 22.9749 32.6201 22.9782 32.2796L22.988 27.0116L23.3776 28.1117C25.5385 34.2408 26.7008 37.528 26.7074 37.5345C26.7106 37.5378 27.038 37.5575 27.4342 37.5771C28.6325 37.636 30.119 37.7637 31.2485 37.9045C31.5105 37.9373 31.7331 37.9536 31.7495 37.9405C31.7593 37.9307 31.7658 35.187 31.7658 31.3138L26.8743 17.2417L26.8711 18.5742L26.8612 24.0747L26.4094 22.7978C25.9674 21.5504 25.6727 20.7155 23.8949 15.693C23.4169 14.3408 23.0109 13.1982 22.9945 13.1458L22.9618 13.0541H18.0572V13.0574Z" fill="url(#paint0_radial_2114_135967)"/>
<path d="M18.0572 13.0574L22.9847 27.0214V27.0149L23.3743 28.115C25.5385 34.2408 26.7008 37.528 26.7074 37.5345C26.7106 37.5378 27.038 37.5575 27.4342 37.5771C28.6325 37.636 30.119 37.7637 31.2485 37.9045C31.5072 37.9373 31.7331 37.9536 31.7462 37.9405L26.8612 24.0715V24.0747L26.4094 22.7978C25.9674 21.5504 25.6727 20.7155 23.8949 15.693C23.4169 14.3408 23.0109 13.1982 22.9945 13.1458L22.9618 13.0541H20.5095L18.0572 13.0574Z" fill="#E62E2E"/>
<defs>
<radialGradient id="paint0_radial_2114_135967" cx="0" cy="0" r="1" gradientUnits="userSpaceOnUse" gradientTransform="translate(24.682 25.3552) rotate(-19.1007) scale(0.903485 1.51809)">
<stop/>
<stop offset="1" stop-opacity="0.01"/>
</radialGradient>
</defs>
</svg>
