<svg width="50" height="50" viewBox="0 0 50 50" fill="none" xmlns="http://www.w3.org/2000/svg">
<rect width="50" height="50" rx="25" fill="#3361FF"/>
<path fill-rule="evenodd" clip-rule="evenodd" d="M26.2342 19.9562C26.1587 20.4126 25.5997 20.7659 24.9205 20.7662C24.243 20.7659 23.684 20.4124 23.6103 19.9562L22.9395 12.3662C22.9395 11.6159 23.8176 11 24.9215 11C26.0265 11 26.9053 11.6159 26.9053 12.3661L26.2342 19.9562ZM20.773 21.5946C21.1324 21.8882 21.1581 22.549 20.8171 23.137L20.8193 23.1325C20.481 23.7201 19.8923 24.0282 19.4604 23.8681L12.5524 20.6517C11.9055 20.2759 11.8073 19.2081 12.3612 18.2521C12.9131 17.2948 13.8857 16.8427 14.5344 17.2183L20.773 21.5946ZM29.0252 23.1329C29.3656 23.7205 29.9514 24.0287 30.3837 23.8685L37.2917 20.6521C37.9426 20.2764 38.0351 19.2086 37.4864 18.2525C36.9317 17.2962 35.9574 16.8431 35.3105 17.2187L29.0715 21.595C28.7148 21.8882 28.6882 22.5496 29.0273 23.1374L29.0252 23.1329ZM26.2342 31.0549C26.1587 30.5982 25.5997 30.2478 24.9205 30.2474C24.243 30.2478 23.684 30.5982 23.6103 31.0549L22.9395 38.644C22.9395 39.3965 23.8176 40.011 24.9215 40.011C26.0265 40.011 26.9053 39.3965 26.9053 38.644L26.2342 31.0549ZM29.0252 27.8762L29.0259 27.8749H29.0273C28.6882 28.4624 28.7148 29.1242 29.0715 29.4196L35.3105 33.7918C35.9574 34.1669 36.9317 33.7126 37.4864 32.7594C38.0351 31.8026 37.9426 30.7337 37.2917 30.3577L30.3837 27.1434C29.9517 26.9816 29.3664 27.2865 29.0259 27.8749H29.0246L29.0252 27.8762ZM20.8179 27.8767C21.1581 28.4634 21.1321 29.1244 20.773 29.4202L14.5344 33.7923C13.8857 34.1674 12.9131 33.713 12.3612 32.7598C11.8073 31.803 11.9055 30.7341 12.5524 30.3581L19.4604 27.1438C19.8923 26.9819 20.481 27.2874 20.8193 27.8767H20.8179Z" fill="#FFCB33"/>
</svg>
