<svg width="46" height="32" viewBox="0 0 46 32" fill="none" xmlns="http://www.w3.org/2000/svg">
<path fill-rule="evenodd" clip-rule="evenodd" d="M31.5 2.18618C35.5 -0.313816 41 5.18618 43 12.6862L43.1762 13.3705C44.9958 20.6949 44.8636 28.7316 40.5 30.1862C36 31.6862 34.5 25.6862 32.5 24.1862C31.3114 23.2948 27.5059 23.1862 23 23.1862C18.4941 23.1862 14.6511 23.3228 13.5 24.1862C11.5 25.6862 9.99997 31.6862 5.49997 30.1862C1.06815 28.7089 1.001 20.4422 2.91045 13.0278L2.99997 12.6862C4.99997 5.18618 10.5 -0.313816 14.5 2.18618C16.8703 3.66767 20 5.18618 23 5.18618C26 5.18618 31.5 2.18618 31.5 2.18618Z" stroke="#3361FF" stroke-width="2" stroke-linecap="round" stroke-linejoin="round"/>
<path fill-rule="evenodd" clip-rule="evenodd" d="M13.5 8.18616C14.5125 8.18616 15.3333 9.00697 15.3333 10.0195V11.8528H17.1667C18.1792 11.8528 19 12.6736 19 13.6862C19 14.6987 18.1792 15.5195 17.1667 15.5195H15.3321L15.3333 17.3528C15.3333 18.3653 14.5125 19.1862 13.5 19.1862C12.4875 19.1862 11.6667 18.3653 11.6667 17.3528L11.6654 15.5195H9.83333C8.82081 15.5195 8 14.6987 8 13.6862C8 12.6736 8.82081 11.8528 9.83333 11.8528H11.6667V10.0195C11.6667 9.00697 12.4875 8.18616 13.5 8.18616Z" stroke="#3361FF" stroke-width="2" stroke-linecap="round" stroke-linejoin="round"/>
<circle cx="30.72" cy="16.5751" r="2" stroke="#3361FF" stroke-width="2" stroke-linecap="round" stroke-linejoin="round"/>
<circle cx="30.72" cy="9.57507" r="2" stroke="#3361FF" stroke-width="2" stroke-linecap="round" stroke-linejoin="round"/>
<circle cx="36.72" cy="13.5751" r="2" stroke="#3361FF" stroke-width="2" stroke-linecap="round" stroke-linejoin="round"/>
</svg>
