<svg width="29" height="28" viewBox="0 0 29 28" fill="none" xmlns="http://www.w3.org/2000/svg">
<path fill-rule="evenodd" clip-rule="evenodd" d="M23.74 7.46667H20.1V4.66667C20.1 4.15334 19.68 3.73334 19.1667 3.73334C18.6533 3.73334 18.2333 4.15334 18.2333 4.66667V7.46667H14.5933C14.0427 7.46667 13.6133 7.94267 13.66 8.49334L13.772 9.62267C17.2067 10.416 20.1 12.852 20.1 16.8L20.1187 24.2667H21.7053C22.4893 24.2667 23.1333 23.66 23.2267 22.8947L24.664 8.49334C24.72 7.94267 24.2907 7.46667 23.74 7.46667ZM17.3 22.4H5.16667C4.65334 22.4 4.23334 22.82 4.23334 23.3333C4.23334 23.8467 4.65334 24.2667 5.16667 24.2667H17.3C17.8133 24.2667 18.2333 23.8467 18.2333 23.3333C18.2333 22.82 17.8133 22.4 17.3 22.4ZM5.26 16.8H17.2067C17.7853 16.8 18.2427 16.2773 18.1307 15.7173C17.524 12.7027 14.3787 11.1907 11.2333 11.1907C8.088 11.1907 4.952 12.7027 4.336 15.7173C4.224 16.2773 4.69067 16.8 5.26 16.8ZM17.3 18.6667H5.16667C4.65334 18.6667 4.23334 19.0867 4.23334 19.6C4.23334 20.1133 4.65334 20.5333 5.16667 20.5333H17.3C17.8133 20.5333 18.2333 20.1133 18.2333 19.6C18.2333 19.0867 17.8133 18.6667 17.3 18.6667Z" fill="#29CC39"/>
</svg>
