<svg width="30" height="52" viewBox="0 0 30 52" fill="none" xmlns="http://www.w3.org/2000/svg">
<path fill-rule="evenodd" clip-rule="evenodd" d="M6 2C3.79086 2 2 3.79086 2 6V10C2 10.5523 1.55228 11 1 11C0.447715 11 0 10.5523 0 10V6C0 2.68629 2.68629 0 6 0H24C27.3137 0 30 2.68629 30 6V6.06701V6.13394V6.20078V6.26754V6.33421V6.40079V6.46729V6.5337V6.60002V6.66626V6.73242V6.79849V6.86447V6.93037V6.99618V7.06191V7.12755V7.19311V7.25858V7.32397V7.38928V7.45449V7.51963V7.58468V7.64964V7.71453V7.77932V7.84404V7.90867V7.97321V8.03767V8.10205V8.16635V8.23056V8.29468V8.35873V8.42269V8.48657V8.55036V8.61407V8.6777V8.74125V8.80471V8.86809V8.93139V8.9946V9.05774V9.12079V9.18376V9.24664V9.30945V9.37217V9.43481V9.49737V9.55985V9.62225V9.68456V9.74679V9.80895V9.87102V9.93301V9.99492V10.0567V10.1185V10.1802V10.2417V10.3032V10.3647V10.426V10.4873V10.5485V10.6096V10.6706V10.7315V10.7924V10.8532V10.9139V10.9745V11.0351V11.0955V11.1559V11.2162V11.2764V11.3366V11.3967V11.4567V11.5166V11.5764V11.6362V11.6958V11.7554V11.8149V11.8744V11.9338V11.993V12.0522V12.1114V12.1704V12.2294V12.2883V12.3471V12.4059V12.4645V12.5231V12.5816V12.6401V12.6984V12.7567V12.8149V12.873V12.9311V12.989V13.0469V13.1047V13.1625V13.2202V13.2777V13.3353V13.3927V13.4501V13.5074V13.5646V13.6217V13.6788V13.7357V13.7927V13.8495V13.9062V13.9629V14.0195V14.0761V14.1325V14.1889V14.2452V14.3015V14.3576V14.4137V14.4697V14.5257V14.5815V14.6373V14.693V14.7487V14.8043V14.8598V14.9152V14.9705V15.0258V15.081V15.1361V15.1912V15.2462V15.3011V15.3559V15.4107V15.4654V15.52V15.5746V15.629V15.6834V15.7378V15.792V15.8462V15.9003V15.9544V16.0083V16.0622V16.1161V16.1698V16.2235V16.2771V16.3307V16.3841V16.4375V16.4909V16.5441V16.5973V16.6504V16.7035V16.7565V16.8094V16.8622V16.915V16.9677V17.0203V17.0728V17.1253V17.1777V17.2301V17.2824V17.3346V17.3867V17.4388V17.4908V17.5427V17.5946V17.6464V17.6981V17.7498V17.8013V17.8529V17.9043V17.9557V18.007V18.0582V18.1094V18.1605V18.2116V18.2625V18.3134V18.3643V18.4151V18.4658V18.5164V18.567V18.6175V18.6679V18.7183V18.7686V18.8188V18.8689V18.919V18.9691V19.019V19.0689V19.1188V19.1685V19.2182V19.2679V19.3174V19.3669V19.4164V19.4657V19.5151V19.5643V19.6135V19.6626V19.7116V19.7606V19.8095V19.8584V19.9071V19.9559V20.0045V20.0531V20.1016V20.1501V20.1985V20.2468V20.2951V20.3433V20.3914V20.4395V20.4875V20.5354V20.5833V20.6312V20.6789V20.7266V20.7742V20.8218V20.8693V20.9167V20.9641V21.0114V21.0587V21.1059V21.153V21.2001V21.2471V21.294V21.3409V21.3877V21.4344V21.4811V21.5278V21.5743V21.6208V21.6673V21.7137V21.76V21.8062V21.8524V21.8986V21.9447V21.9907V22.0366V22.0825V22.1284V22.1741V22.2198V22.2655V22.3111V22.3566V22.4021V22.4475V22.4928V22.5381V22.5834V22.6285V22.6736V22.7187V22.7637V22.8086V22.8535V22.8983V22.9431V22.9878V23.0324V23.077V23.1215V23.1659V23.2104V23.2547V23.299V23.3432V23.3874V23.4315V23.4755V23.5195V23.5635V23.6073V23.6512V23.6949V23.7386V23.7823V23.8259V23.8694V23.9129V23.9563V23.9997V24.043V24.0862V24.1294V24.1726V24.2156V24.2587V24.3016V24.3445V24.3874V24.4302V24.4729V24.5156V24.5583V24.6008V24.6433V24.6858V24.7282V24.7706V24.8129V24.8551V24.8973V24.9394V24.9815V25.0235V25.0655V25.1074V25.1493V25.1911V25.2328V25.2745V25.3162V25.3578V25.3993V25.4408V25.4822V25.5236V25.5649V25.6061V25.6474V25.6885V25.7296V25.7707V25.8117V25.8526V25.8935V25.9343V25.9751V26.0159V26.0565V26.0972V26.1378V26.1783V26.2188V26.2592V26.2995V26.3399V26.3801V26.4203V26.4605V26.5006V26.5407V26.5807V26.6206V26.6605V26.7004V26.7402V26.7799V26.8196V26.8593V26.8989V26.9384V26.9779V27.0174V27.0568V27.0961V27.1354V27.1746V27.2138V27.253V27.2921V27.3311V27.3701V27.4091V27.448V27.4868V27.5256V27.5644V27.6031V27.6417V27.6803V27.7189V27.7574V27.7958V27.8342V27.8726V27.9109V27.9492V27.9874V28.0256V28.0637V28.1017V28.1398V28.1777V28.2157V28.2535V28.2914V28.3292V28.3669V28.4046V28.4422V28.4798V28.5174V28.5549V28.5923V28.6297V28.6671V28.7044V28.7417V28.7789V28.8161V28.8532V28.8903V28.9273V28.9643V29.0013V29.0382V29.075V29.1119V29.1486V29.1853V29.222V29.2586V29.2952V29.3318V29.3683V29.4047V29.4411V29.4775V29.5138V29.5501V29.5863V29.6225V29.6586V29.6947V29.7308V29.7668V29.8027V29.8386V29.8745V29.9103V29.9461V29.9819V30.0176V30.0532V30.0889V30.1244V30.16V30.1954V30.2309V30.2663V30.3016V30.337V30.3722V30.4075V30.4426V30.4778V30.5129V30.548V30.583V30.618V30.6529V30.6878V30.7226V30.7575V30.7922V30.827V30.8617V30.8963V30.9309V30.9655V31C30 31.5523 29.5523 32 29 32C28.4477 32 28 31.5523 28 31V30.9655V30.9309V30.8963V30.8617V30.827V30.7922V30.7575V30.7226V30.6878V30.6529V30.618V30.583V30.548V30.5129V30.4778V30.4426V30.4075V30.3722V30.337V30.3016V30.2663V30.2309V30.1954V30.16V30.1244V30.0889V30.0532V30.0176V29.9819V29.9461V29.9103V29.8745V29.8386V29.8027V29.7668V29.7308V29.6947V29.6586V29.6225V29.5863V29.5501V29.5138V29.4775V29.4411V29.4047V29.3683V29.3318V29.2952V29.2586V29.222V29.1853V29.1486V29.1119V29.075V29.0382V29.0013V28.9643V28.9273V28.8903V28.8532V28.8161V28.7789V28.7417V28.7044V28.6671V28.6297V28.5923V28.5549V28.5174V28.4798V28.4422V28.4046V28.3669V28.3292V28.2914V28.2535V28.2157V28.1777V28.1398V28.1017V28.0637V28.0256V27.9874V27.9492V27.9109V27.8726V27.8342V27.7958V27.7574V27.7189V27.6803V27.6417V27.6031V27.5644V27.5256V27.4868V27.448V27.4091V27.3701V27.3311V27.2921V27.253V27.2138V27.1746V27.1354V27.0961V27.0568V27.0174V26.9779V26.9384V26.8989V26.8593V26.8196V26.7799V26.7402V26.7004V26.6605V26.6206V26.5807V26.5407V26.5006V26.4605V26.4203V26.3801V26.3399V26.2995V26.2592V26.2188V26.1783V26.1378V26.0972V26.0565V26.0159V25.9751V25.9343V25.8935V25.8526V25.8117V25.7707V25.7296V25.6885V25.6474V25.6061V25.5649V25.5236V25.4822V25.4408V25.3993V25.3578V25.3162V25.2745V25.2328V25.1911V25.1493V25.1074V25.0655V25.0235V24.9815V24.9394V24.8973V24.8551V24.8129V24.7706V24.7282V24.6858V24.6433V24.6008V24.5583V24.5156V24.4729V24.4302V24.3874V24.3445V24.3016V24.2587V24.2156V24.1726V24.1294V24.0862V24.043V23.9997V23.9563V23.9129V23.8694V23.8259V23.7823V23.7386V23.6949V23.6512V23.6073V23.5635V23.5195V23.4755V23.4315V23.3874V23.3432V23.299V23.2547V23.2104V23.1659V23.1215V23.077V23.0324V22.9878V22.9431V22.8983V22.8535V22.8086V22.7637V22.7187V22.6736V22.6285V22.5834V22.5381V22.4928V22.4475V22.4021V22.3566V22.3111V22.2655V22.2198V22.1741V22.1284V22.0825V22.0366V21.9907V21.9447V21.8986V21.8524V21.8062V21.76V21.7137V21.6673V21.6208V21.5743V21.5278V21.4811V21.4344V21.3877V21.3409V21.294V21.2471V21.2001V21.153V21.1059V21.0587V21.0114V20.9641V20.9167V20.8693V20.8218V20.7742V20.7266V20.6789V20.6312V20.5833V20.5354V20.4875V20.4395V20.3914V20.3433V20.2951V20.2468V20.1985V20.1501V20.1016V20.0531V20.0045V19.9559V19.9071V19.8584V19.8095V19.7606V19.7116V19.6626V19.6135V19.5643V19.5151V19.4657V19.4164V19.3669V19.3174V19.2679V19.2182V19.1685V19.1188V19.0689V19.019V18.9691V18.919V18.8689V18.8188V18.7686V18.7183V18.6679V18.6175V18.567V18.5164V18.4658V18.4151V18.3643V18.3134V18.2625V18.2116V18.1605V18.1094V18.0582V18.007V17.9557V17.9043V17.8529V17.8013V17.7498V17.6981V17.6464V17.5946V17.5427V17.4908V17.4388V17.3867V17.3346V17.2824V17.2301V17.1777V17.1253V17.0728V17.0203V16.9677V16.915V16.8622V16.8094V16.7565V16.7035V16.6504V16.5973V16.5441V16.4909V16.4375V16.3841V16.3307V16.2771V16.2235V16.1698V16.1161V16.0622V16.0083V15.9544V15.9003V15.8462V15.792V15.7378V15.6834V15.629V15.5746V15.52V15.4654V15.4107V15.3559V15.3011V15.2462V15.1912V15.1361V15.081V15.0258V14.9705V14.9152V14.8598V14.8043V14.7487V14.693V14.6373V14.5815V14.5257V14.4697V14.4137V14.3576V14.3015V14.2452V14.1889V14.1325V14.0761V14.0195V13.9629V13.9062V13.8495V13.7927V13.7357V13.6788V13.6217V13.5646V13.5074V13.4501V13.3927V13.3353V13.2777V13.2202V13.1625V13.1047V13.0469V12.989V12.9311V12.873V12.8149V12.7567V12.6984V12.6401V12.5816V12.5231V12.4645V12.4059V12.3471V12.2883V12.2294V12.1704V12.1114V12.0522V11.993V11.9338V11.8744V11.8149V11.7554V11.6958V11.6362V11.5764V11.5166V11.4567V11.3967V11.3366V11.2764V11.2162V11.1559V11.0955V11.0351V10.9745V10.9139V10.8532V10.7924V10.7315V10.6706V10.6096V10.5485V10.4873V10.426V10.3647V10.3032V10.2417V10.1802V10.1185V10.0567V9.99492V9.93301V9.87102V9.80895V9.74679V9.68456V9.62225V9.55985V9.49737V9.43481V9.37217V9.30945V9.24664V9.18376V9.12079V9.05774V8.9946V8.93139V8.86809V8.80471V8.74125V8.6777V8.61407V8.55036V8.48657V8.42269V8.35873V8.29468V8.23056V8.16635V8.10205V8.03767V7.97321V7.90867V7.84404V7.77932V7.71453V7.64964V7.58468V7.51963V7.45449V7.38928V7.32397V7.25858V7.19311V7.12755V7.06191V6.99618V6.93037V6.86447V6.79849V6.73242V6.66626V6.60002V6.5337V6.46729V6.40079V6.33421V6.26754V6.20078V6.13394V6.06701V6C28 3.79086 26.2091 2 24 2H6ZM1 13.5C1.55228 13.5 2 13.9477 2 14.5V19V46C2 48.2091 3.79086 50 6 50H24C26.2091 50 28 48.2091 28 46V45.972V45.944V45.9161V45.8882V45.8603V45.8325V45.8046V45.7769V45.7491V45.7214V45.6937V45.6661V45.6385V45.6109V45.5834V45.5559V45.5284V45.5009V45.4735V45.4461V45.4188V45.3915V45.3642V45.337V45.3097V45.2826V45.2554V45.2283V45.2012V45.1742V45.1472V45.1202V45.0933V45.0663V45.0395V45.0126V44.9858V44.959V44.9323V44.9056V44.8789V44.8522V44.8256V44.799V44.7725V44.746V44.7195V44.693V44.6666V44.6402V44.6139V44.5876V44.5613V44.535V44.5088V44.4826V44.4565V44.4304V44.4043V44.3782V44.3522V44.3262V44.3003V44.2744V44.2485V44.2226V44.1968V44.171V44.1453V44.1196V44.0939V44.0682V44.0426V44.017V43.9915V43.9659V43.9405V43.915V43.8896V43.8642V43.8388V43.8135V43.7882V43.763V43.7378V43.7126V43.6874V43.6623V43.6372V43.6121V43.5871V43.5621V43.5372V43.5123V43.4874V43.4625V43.4377V43.4129V43.3881V43.3634V43.3387V43.3141V43.2894V43.2649V43.2403V43.2158V43.1913V43.1668V43.1424V43.118V43.0936V43.0693V43.045V43.0208V42.9965V42.9724V42.9482V42.9241V42.9V42.8759V42.8519V42.8279V42.8039V42.78V42.7561V42.7323V42.7084V42.6846V42.6609V42.6371V42.6134V42.5898V42.5662V42.5426V42.519V42.4955V42.472V42.4485V42.4251V42.4017V42.3783V42.355V42.3317V42.3084V42.2852V42.262V42.2388V42.2157V42.1926V42.1695V42.1465V42.1235V42.1005V42.0776V42.0547V42.0319V42.009V41.9862V41.9635V41.9407V41.918V41.8954V41.8727V41.8501V41.8276V41.805V41.7825V41.7601V41.7376V41.7152V41.6928V41.6705V41.6482V41.6259V41.6037V41.5815V41.5593V41.5372V41.5151V41.493V41.471V41.449V41.427V41.4051V41.3832V41.3613V41.3395V41.3177V41.2959V41.2742V41.2525V41.2308V41.2091V41.1875V41.166V41.1444V41.1229V41.1015V41.08V41.0586V41.0372V41.0159V40.9946V40.9733V40.9521V40.9309V40.9097V40.8886V40.8675V40.8464V40.8253V40.8043V40.7834V40.7624V40.7415V40.7206V40.6998V40.679V40.6582V40.6375V40.6168V40.5961V40.5754V40.5548V40.5342V40.5137V40.4932V40.4727V40.4523V40.4319V40.4115V40.3911V40.3708V40.3506V40.3303V40.3101V40.2899V40.2698V40.2497V40.2296V40.2095V40.1895V40.1695V40.1496V40.1297V40.1098V40.09V40.0701V40.0504V40.0306V40.0109V39.9912V39.9716V39.952V39.9324V39.9128V39.8933V39.8738V39.8544V39.835V39.8156V39.7962V39.7769V39.7576V39.7384V39.7192V39.7V39.6809V39.6617V39.6427V39.6236V39.6046V39.5856V39.5667V39.5477V39.5288V39.51V39.4912V39.4724V39.4536V39.4349V39.4162V39.3976V39.379V39.3604V39.3418V39.3233V39.3048V39.2864V39.268V39.2496V39.2312V39.2129V39.1946V39.1763V39.1581V39.1399V39.1218V39.1037V39.0856V39.0675V39.0495V39.0315V39.0136V38.9956V38.9777V38.9599V38.9421V38.9243V38.9065V38.8888V38.8711V38.8535V38.8358V38.8182V38.8007V38.7832V38.7657V38.7482V38.7308V38.7134V38.696V38.6787V38.6614V38.6442V38.6269V38.6097V38.5926V38.5755V38.5584V38.5413V38.5243V38.5073V38.4903V38.4734V38.4565V38.4396V38.4228V38.406V38.3893V38.3725V38.3558V38.3392V38.3225V38.306V38.2894V38.2729V38.2564V38.2399V38.2235V38.2071V38.1907V38.1744V38.1581V38.1418V38.1256V38.1094V38.0932V38.0771V38.061V38.0449V38.0289V38.0129V37.997V37.981V37.9651V37.9493V37.9334V37.9176V37.9019V37.8861V37.8704V37.8548V37.8391V37.8235V37.808V37.7924V37.7769V37.7615V37.746V37.7306V37.7153V37.6999V37.6846V37.6694V37.6541V37.6389V37.6238V37.6086V37.5935V37.5784V37.5634V37.5484V37.5334V37.5185V37.5036V37.4887V37.4739V37.4591V37.4443V37.4296V37.4149V37.4002V37.3856V37.371V37.3564V37.3419V37.3274V37.3129V37.2984V37.284V37.2697V37.2553V37.241V37.2267V37.2125V37.1983V37.1841V37.17V37.1559V37.1418V37.1278V37.1138V37.0998V37.0858V37.0719V37.0581V37.0442V37.0304V37.0166V37.0029V36.9892V36.9755V36.9619V36.9483V36.9347V36.9211V36.9076V36.8942V36.8807V36.8673V36.8539V36.8406V36.8273V36.814V36.8008V36.7875V36.7744V36.7612V36.7481V36.735V36.722V36.709V36.696V36.6831V36.6701V36.6573V36.6444V36.6316V36.6188V36.6061V36.5934V36.5807V36.568V36.5554V36.5428V36.5303V36.5178V36.5053V36.4929V36.4804V36.4681V36.4557V36.4434V36.4311V36.4189V36.4066V36.3945V36.3823V36.3702V36.3581V36.3461V36.334V36.3221V36.3101V36.2982V36.2863V36.2745V36.2626V36.2509V36.2391V36.2274V36.2157V36.2041V36.1924V36.1809V36.1693V36.1578V36.1463V36.1348V36.1234V36.112V36.1007V36.0894V36.0781V36.0668V36.0556V36.0444V36.0333V36.0221V36.0111V36C28 35.4477 28.4477 35 29 35C29.5523 35 30 35.4477 30 36V36.0111V36.0221V36.0333V36.0444V36.0556V36.0668V36.0781V36.0894V36.1007V36.112V36.1234V36.1348V36.1463V36.1578V36.1693V36.1809V36.1924V36.2041V36.2157V36.2274V36.2391V36.2509V36.2626V36.2745V36.2863V36.2982V36.3101V36.3221V36.334V36.3461V36.3581V36.3702V36.3823V36.3945V36.4066V36.4189V36.4311V36.4434V36.4557V36.4681V36.4804V36.4929V36.5053V36.5178V36.5303V36.5428V36.5554V36.568V36.5807V36.5934V36.6061V36.6188V36.6316V36.6444V36.6573V36.6701V36.6831V36.696V36.709V36.722V36.735V36.7481V36.7612V36.7744V36.7875V36.8008V36.814V36.8273V36.8406V36.8539V36.8673V36.8807V36.8942V36.9076V36.9211V36.9347V36.9483V36.9619V36.9755V36.9892V37.0029V37.0166V37.0304V37.0442V37.0581V37.0719V37.0858V37.0998V37.1138V37.1278V37.1418V37.1559V37.17V37.1841V37.1983V37.2125V37.2267V37.241V37.2553V37.2697V37.284V37.2984V37.3129V37.3274V37.3419V37.3564V37.371V37.3856V37.4002V37.4149V37.4296V37.4443V37.4591V37.4739V37.4887V37.5036V37.5185V37.5334V37.5484V37.5634V37.5784V37.5935V37.6086V37.6238V37.6389V37.6541V37.6694V37.6846V37.6999V37.7153V37.7306V37.746V37.7615V37.7769V37.7924V37.808V37.8235V37.8391V37.8548V37.8704V37.8861V37.9019V37.9176V37.9334V37.9493V37.9651V37.981V37.997V38.0129V38.0289V38.0449V38.061V38.0771V38.0932V38.1094V38.1256V38.1418V38.1581V38.1744V38.1907V38.2071V38.2235V38.2399V38.2564V38.2729V38.2894V38.306V38.3225V38.3392V38.3558V38.3725V38.3893V38.406V38.4228V38.4396V38.4565V38.4734V38.4903V38.5073V38.5243V38.5413V38.5584V38.5755V38.5926V38.6097V38.6269V38.6442V38.6614V38.6787V38.696V38.7134V38.7308V38.7482V38.7657V38.7832V38.8007V38.8182V38.8358V38.8535V38.8711V38.8888V38.9065V38.9243V38.9421V38.9599V38.9777V38.9956V39.0136V39.0315V39.0495V39.0675V39.0856V39.1037V39.1218V39.1399V39.1581V39.1763V39.1946V39.2129V39.2312V39.2496V39.268V39.2864V39.3048V39.3233V39.3418V39.3604V39.379V39.3976V39.4162V39.4349V39.4536V39.4724V39.4912V39.51V39.5288V39.5477V39.5667V39.5856V39.6046V39.6236V39.6427V39.6617V39.6809V39.7V39.7192V39.7384V39.7576V39.7769V39.7962V39.8156V39.835V39.8544V39.8738V39.8933V39.9128V39.9324V39.952V39.9716V39.9912V40.0109V40.0306V40.0504V40.0701V40.09V40.1098V40.1297V40.1496V40.1695V40.1895V40.2095V40.2296V40.2497V40.2698V40.2899V40.3101V40.3303V40.3506V40.3708V40.3911V40.4115V40.4319V40.4523V40.4727V40.4932V40.5137V40.5342V40.5548V40.5754V40.5961V40.6168V40.6375V40.6582V40.679V40.6998V40.7206V40.7415V40.7624V40.7834V40.8043V40.8253V40.8464V40.8675V40.8886V40.9097V40.9309V40.9521V40.9733V40.9946V41.0159V41.0372V41.0586V41.08V41.1015V41.1229V41.1444V41.166V41.1875V41.2091V41.2308V41.2525V41.2742V41.2959V41.3177V41.3395V41.3613V41.3832V41.4051V41.427V41.449V41.471V41.493V41.5151V41.5372V41.5593V41.5815V41.6037V41.6259V41.6482V41.6705V41.6928V41.7152V41.7376V41.7601V41.7825V41.805V41.8276V41.8501V41.8727V41.8954V41.918V41.9407V41.9635V41.9862V42.009V42.0319V42.0547V42.0776V42.1005V42.1235V42.1465V42.1695V42.1926V42.2157V42.2388V42.262V42.2852V42.3084V42.3317V42.355V42.3783V42.4017V42.4251V42.4485V42.472V42.4955V42.519V42.5426V42.5662V42.5898V42.6134V42.6371V42.6609V42.6846V42.7084V42.7323V42.7561V42.78V42.8039V42.8279V42.8519V42.8759V42.9V42.9241V42.9482V42.9724V42.9965V43.0208V43.045V43.0693V43.0936V43.118V43.1424V43.1668V43.1913V43.2158V43.2403V43.2649V43.2894V43.3141V43.3387V43.3634V43.3881V43.4129V43.4377V43.4625V43.4874V43.5123V43.5372V43.5621V43.5871V43.6121V43.6372V43.6623V43.6874V43.7126V43.7378V43.763V43.7882V43.8135V43.8388V43.8642V43.8896V43.915V43.9405V43.9659V43.9915V44.017V44.0426V44.0682V44.0939V44.1196V44.1453V44.171V44.1968V44.2226V44.2485V44.2744V44.3003V44.3262V44.3522V44.3782V44.4043V44.4304V44.4565V44.4826V44.5088V44.535V44.5613V44.5876V44.6139V44.6402V44.6666V44.693V44.7195V44.746V44.7725V44.799V44.8256V44.8522V44.8789V44.9056V44.9323V44.959V44.9858V45.0126V45.0395V45.0663V45.0933V45.1202V45.1472V45.1742V45.2012V45.2283V45.2554V45.2826V45.3097V45.337V45.3642V45.3915V45.4188V45.4461V45.4735V45.5009V45.5284V45.5559V45.5834V45.6109V45.6385V45.6661V45.6937V45.7214V45.7491V45.7769V45.8046V45.8325V45.8603V45.8882V45.9161V45.944V45.972V46C30 49.3137 27.3137 52 24 52H6C2.68629 52 0 49.3137 0 46V19V14.5C0 13.9477 0.447715 13.5 1 13.5Z" fill="#3361FF"/>
<circle cx="15" cy="44" r="2" stroke="#3361FF" stroke-width="2" stroke-linecap="round" stroke-linejoin="round"/>
<path d="M11.5 6.5H18.5" stroke="#3361FF" stroke-width="2" stroke-linecap="round" stroke-linejoin="round"/>
</svg>
