<svg width="29" height="28" viewBox="0 0 29 28" fill="none" xmlns="http://www.w3.org/2000/svg">
<path fill-rule="evenodd" clip-rule="evenodd" d="M21.9667 5.59998H8.89999C7.87332 5.59998 7.03332 6.43998 7.03332 7.46664V14.9333C7.03332 16.996 8.70399 18.6666 10.7667 18.6666H16.3667C18.4293 18.6666 20.1 16.996 20.1 14.9333V12.1333H21.9667C22.9933 12.1333 23.8333 11.2933 23.8333 10.2666V7.46664C23.8333 6.43998 22.9933 5.59998 21.9667 5.59998ZM21.9667 10.2666H20.1V7.46664H21.9667V10.2666ZM6.09999 22.4H21.0333C21.5467 22.4 21.9667 21.98 21.9667 21.4666C21.9667 20.9533 21.5467 20.5333 21.0333 20.5333H6.09999C5.58666 20.5333 5.16666 20.9533 5.16666 21.4666C5.16666 21.98 5.58666 22.4 6.09999 22.4Z" fill="#FFCB33"/>
</svg>
