<svg width="50" height="50" viewBox="0 0 50 50" fill="none" xmlns="http://www.w3.org/2000/svg">
<rect width="50" height="50" rx="25" fill="#8833FF"/>
<path d="M16.2024 21.399C14.5756 23.3095 13.0158 25.6786 13.0001 27.4495C12.994 28.1158 13.2067 28.6975 13.717 29.138C14.4513 29.7726 15.2603 29.9963 16.0654 29.9976C17.2419 29.9993 18.4102 29.5246 19.3249 29.1586C20.8655 28.5425 37.8946 21.1474 37.8946 21.1474C38.059 21.0651 38.0282 20.9625 37.8225 21.0137C37.7396 21.0345 19.2836 26.0361 19.2836 26.0361C18.934 26.1349 18.5728 26.1867 18.2095 26.1898C16.7911 26.1982 15.529 25.4109 15.5392 23.7519C15.5432 23.1027 15.7419 22.3198 16.2024 21.399Z" fill="white"/>
</svg>
