<svg width="30" height="30" viewBox="0 0 30 30" fill="none" xmlns="http://www.w3.org/2000/svg">
<g id="Icon">
<path id="Icon_2" fill-rule="evenodd" clip-rule="evenodd" d="M7 21H23C23.55 21 24 20.55 24 20C24 19.45 23.55 19 23 19H7C6.45 19 6 19.45 6 20C6 20.55 6.45 21 7 21ZM7 16H23C23.55 16 24 15.55 24 15C24 14.45 23.55 14 23 14H7C6.45 14 6 14.45 6 15C6 15.55 6.45 16 7 16ZM6 10C6 10.55 6.45 11 7 11H23C23.55 11 24 10.55 24 10C24 9.45 23.55 9 23 9H7C6.45 9 6 9.45 6 10Z" fill="#C3CAD9"/>
</g>
</svg>
