<svg width="28" height="28" viewBox="0 0 28 28" fill="none" xmlns="http://www.w3.org/2000/svg">
<path fill-rule="evenodd" clip-rule="evenodd" d="M20.5333 5.59998H7.46667C6.44001 5.59998 5.60934 6.43998 5.60934 7.46664L5.60001 20.5333C5.60001 21.56 6.44001 22.4 7.46667 22.4H20.5333C21.56 22.4 22.4 21.56 22.4 20.5333V7.46664C22.4 6.43998 21.56 5.59998 20.5333 5.59998ZM18.6667 15.8666H15.8667V18.6666C15.8667 19.18 15.4467 19.6 14.9333 19.6H13.0667C12.5533 19.6 12.1333 19.18 12.1333 18.6666V15.8666H9.33334C8.82001 15.8666 8.40001 15.4466 8.40001 14.9333V13.0666C8.40001 12.5533 8.82001 12.1333 9.33334 12.1333H12.1333V9.33331C12.1333 8.81998 12.5533 8.39998 13.0667 8.39998H14.9333C15.4467 8.39998 15.8667 8.81998 15.8667 9.33331V12.1333H18.6667C19.18 12.1333 19.6 12.5533 19.6 13.0666V14.9333C19.6 15.4466 19.18 15.8666 18.6667 15.8666Z" fill="#FF6633"/>
</svg>
