<svg width="50" height="50" viewBox="0 0 50 50" fill="none" xmlns="http://www.w3.org/2000/svg">
<rect width="50" height="50" rx="25" fill="#29CC39"/>
<path fill-rule="evenodd" clip-rule="evenodd" d="M30.3681 21.0919C28.0489 21.2131 26.0321 21.9162 24.3948 23.5046C22.7404 25.1094 21.9853 27.0759 22.1917 29.5136C21.9312 29.4813 21.6774 29.4481 21.4283 29.4156L21.4282 29.4156C20.8103 29.3347 20.2209 29.2577 19.6291 29.2078C19.3424 29.1837 19.002 29.218 18.7591 29.3551C18.1831 29.6801 17.6241 30.0351 17.0178 30.4201L17.0177 30.4202L17.0175 30.4203C16.7751 30.5742 16.5252 30.7329 16.2636 30.8964C16.3157 30.661 16.362 30.4347 16.407 30.2153L16.407 30.2153C16.5072 29.7262 16.6002 29.272 16.7332 28.8299C16.8748 28.3592 16.8092 28.0972 16.3756 27.7907C13.5915 25.8251 12.4179 22.8834 13.2962 19.8549C14.1087 17.0532 16.1041 15.354 18.8154 14.4683C22.5161 13.2595 26.675 14.4925 28.9253 17.4306C29.7381 18.4919 30.2364 19.6831 30.3681 21.0919ZM19.6941 20.1483C19.7154 19.5943 19.2355 19.0953 18.6654 19.0786C18.0816 19.0615 17.6016 19.5076 17.5845 20.0827C17.5673 20.6657 18.0131 21.1328 18.6011 21.1478C19.1839 21.1625 19.6725 20.7159 19.6941 20.1483ZM24.2176 20.1323C24.2074 19.5761 24.6909 19.0888 25.2631 19.0782C25.8454 19.0676 26.3176 19.5234 26.3225 20.1011C26.3281 20.6897 25.8807 21.1455 25.2907 21.1526C24.7023 21.1597 24.228 20.7087 24.2176 20.1323Z" fill="white"/>
<path fill-rule="evenodd" clip-rule="evenodd" d="M34.9134 35.2185L34.9134 35.2185C34.4246 34.9607 33.9494 34.71 33.4533 34.6582C33.0337 34.6144 32.6015 34.7385 32.1648 34.8638C31.8579 34.9519 31.5488 35.0407 31.2403 35.0722C28.9634 35.3052 26.9235 34.6706 25.2415 33.1151C22.0426 30.1563 22.4997 25.6195 26.2007 23.1948C29.4901 21.0398 34.3142 21.7582 36.6333 24.7484C38.6572 27.3576 38.4193 30.8212 35.9486 33.0131C35.2337 33.6475 34.9764 34.1695 35.4351 35.0058C35.4924 35.1103 35.5154 35.2335 35.5394 35.3627L35.5394 35.3627C35.5509 35.4245 35.5627 35.4876 35.5786 35.5508C35.3521 35.4499 35.1314 35.3335 34.9134 35.2185ZM27.219 27.457C27.6866 27.4575 28.0715 27.0916 28.0892 26.6298C28.1079 26.1409 27.7147 25.7308 27.2252 25.7288C26.7405 25.7266 26.3345 26.1424 26.3513 26.624C26.3672 27.0842 26.7549 27.4564 27.219 27.457ZM31.7505 26.5573C31.7689 26.0989 32.1544 25.7276 32.608 25.7307C33.0908 25.7341 33.4719 26.1397 33.4537 26.631C33.4367 27.0979 33.066 27.4527 32.5968 27.4511C32.1118 27.4499 31.7308 27.0474 31.7505 26.5573Z" fill="white"/>
</svg>
