<svg width="28" height="28" viewBox="0 0 28 28" fill="none" xmlns="http://www.w3.org/2000/svg">
<path fill-rule="evenodd" clip-rule="evenodd" d="M19.6 11.2H18.6667V9.33335C18.6667 6.75735 16.576 4.66669 14 4.66669C11.424 4.66669 9.33333 6.75735 9.33333 9.33335V11.2H8.39999C7.37333 11.2 6.53333 12.04 6.53333 13.0667V22.4C6.53333 23.4267 7.37333 24.2667 8.39999 24.2667H19.6C20.6267 24.2667 21.4667 23.4267 21.4667 22.4V13.0667C21.4667 12.04 20.6267 11.2 19.6 11.2ZM14 19.6C12.9733 19.6 12.1333 18.76 12.1333 17.7334C12.1333 16.7067 12.9733 15.8667 14 15.8667C15.0267 15.8667 15.8667 16.7067 15.8667 17.7334C15.8667 18.76 15.0267 19.6 14 19.6ZM11.2 11.2V9.33335C11.2 7.78402 12.4507 6.53335 14 6.53335C15.5493 6.53335 16.8 7.78402 16.8 9.33335V11.2H11.2Z" fill="#C3CAD9"/>
</svg>
