<svg width="28" height="28" viewBox="0 0 28 28" fill="none" xmlns="http://www.w3.org/2000/svg">
<path fill-rule="evenodd" clip-rule="evenodd" d="M20.682 14.9147C20.7193 14.616 20.7473 14.3174 20.7473 14C20.7473 13.6827 20.7193 13.384 20.682 13.0854L22.6513 11.5454C22.8287 11.4054 22.8753 11.1534 22.7633 10.948L20.8967 7.71869C20.7847 7.51335 20.5327 7.43869 20.3273 7.51335L18.0033 8.44669C17.518 8.07335 16.9953 7.76535 16.426 7.53202L16.0713 5.05869C16.0433 4.83469 15.8473 4.66669 15.614 4.66669H11.8807C11.6473 4.66669 11.4513 4.83469 11.4233 5.05869L11.0687 7.53202C10.4993 7.76535 9.97667 8.08269 9.49134 8.44669L7.16734 7.51335C6.95267 7.42935 6.71 7.51335 6.598 7.71869L4.73134 10.948C4.61 11.1534 4.666 11.4054 4.84334 11.5454L6.81267 13.0854C6.77534 13.384 6.74734 13.692 6.74734 14C6.74734 14.308 6.77534 14.616 6.81267 14.9147L4.84334 16.4547C4.666 16.5947 4.61934 16.8467 4.73134 17.052L6.598 20.2814C6.71 20.4867 6.962 20.5614 7.16734 20.4867L9.49134 19.5534C9.97667 19.9267 10.4993 20.2347 11.0687 20.468L11.4233 22.9414C11.4513 23.1654 11.6473 23.3334 11.8807 23.3334H15.614C15.8473 23.3334 16.0433 23.1654 16.0713 22.9414L16.426 20.468C16.9953 20.2347 17.518 19.9174 18.0033 19.5534L20.3273 20.4867C20.542 20.5707 20.7847 20.4867 20.8967 20.2814L22.7633 17.052C22.8753 16.8467 22.8287 16.5947 22.6513 16.4547L20.682 14.9147ZM13.7473 17.2667C11.946 17.2667 10.4807 15.8014 10.4807 14C10.4807 12.1987 11.946 10.7334 13.7473 10.7334C15.5487 10.7334 17.014 12.1987 17.014 14C17.014 15.8014 15.5487 17.2667 13.7473 17.2667Z" fill="#C3CAD9"/>
</svg>
