<svg width="30" height="31" viewBox="0 0 30 31" fill="none" xmlns="http://www.w3.org/2000/svg">
<path fill-rule="evenodd" clip-rule="evenodd" d="M18 15.0825V9.91249C18 9.38249 17.79 8.87249 17.41 8.50249L15.7 6.79249C15.5132 6.60523 15.2595 6.5 14.995 6.5C14.7305 6.5 14.4768 6.60523 14.29 6.79249L12.59 8.49249C12.21 8.87249 12 9.38249 12 9.91249V11.0825H8C6.9 11.0825 6 11.9825 6 13.0825V23.0825C6 24.1825 6.9 25.0825 8 25.0825H22C23.1 25.0825 24 24.1825 24 23.0825V17.0825C24 15.9825 23.1 15.0825 22 15.0825H18ZM10 23.0825H8V21.0825H10V23.0825ZM10 19.0825H8V17.0825H10V19.0825ZM10 15.0825H8V13.0825H10V15.0825ZM16 23.0825H14V21.0825H16V23.0825ZM16 19.0825H14V17.0825H16V19.0825ZM16 15.0825H14V13.0825H16V15.0825ZM16 11.0825H14V9.08249H16V11.0825ZM22 23.0825H20V21.0825H22V23.0825ZM22 19.0825H20V17.0825H22V19.0825Z" fill="#C3CAD9"/>
</svg>
