<svg width="30" height="31" viewBox="0 0 30 31" fill="none" xmlns="http://www.w3.org/2000/svg">
<path fill-rule="evenodd" clip-rule="evenodd" d="M19.4325 10.35L20.8725 11.79L15.9925 16.67L12.7025 13.38C12.5157 13.1927 12.262 13.0875 11.9975 13.0875C11.733 13.0875 11.4793 13.1927 11.2925 13.38L5.2925 19.39C4.9025 19.78 4.9025 20.41 5.2925 20.8C5.6825 21.19 6.3125 21.19 6.7025 20.8L11.9925 15.5L15.2825 18.79C15.6725 19.18 16.3025 19.18 16.6925 18.79L22.2825 13.21L23.7225 14.65C24.0325 14.96 24.5725 14.74 24.5725 14.3V10C24.5825 9.72 24.3625 9.5 24.0825 9.5H19.7925C19.3425 9.5 19.1225 10.04 19.4325 10.35Z" fill="#C3CAD9"/>
</svg>
