<svg width="30" height="31" viewBox="0 0 30 31" fill="none" xmlns="http://www.w3.org/2000/svg">
<path fill-rule="evenodd" clip-rule="evenodd" d="M15 5.5C9.48 5.5 5 9.98 5 15.5C5 21.02 9.48 25.5 15 25.5C20.52 25.5 25 21.02 25 15.5C25 9.98 20.52 5.5 15 5.5ZM14 23.43C10.05 22.94 7 19.58 7 15.5C7 14.88 7.08 14.29 7.21 13.71L12 18.5V19.5C12 20.6 12.9 21.5 14 21.5V23.43ZM20.9 20.89C20.64 20.08 19.9 19.5 19 19.5H18V16.5C18 15.95 17.55 15.5 17 15.5H11V13.5H13C13.55 13.5 14 13.05 14 12.5V10.5H16C17.1 10.5 18 9.6 18 8.5V8.09C20.93 9.28 23 12.15 23 15.5C23 17.58 22.2 19.47 20.9 20.89Z" fill="#C3CAD9"/>
</svg>
