<svg width="50" height="50" viewBox="0 0 50 50" fill="none" xmlns="http://www.w3.org/2000/svg">
<rect width="50" height="50" rx="25" fill="#3361FF"/>
<path fill-rule="evenodd" clip-rule="evenodd" d="M26.3447 19.0239C26.2692 19.4803 25.7102 19.8336 25.031 19.834C24.3534 19.8336 23.7945 19.4801 23.7207 19.0239L23.05 11.4339C23.05 10.6836 23.928 10.0677 25.032 10.0677C26.137 10.0677 27.0158 10.6836 27.0158 11.4338L26.3447 19.0239ZM20.8835 20.6623C21.2429 20.9559 21.2686 21.6167 20.9276 22.2047L20.9298 22.2002C20.5915 22.7878 20.0027 23.0959 19.5709 22.9358L12.6629 19.7194C12.016 19.3436 11.9178 18.2759 12.4717 17.3198C13.0236 16.3626 13.9962 15.9104 14.6448 16.2861L20.8835 20.6623ZM29.1356 22.2006C29.4761 22.7882 30.0619 23.0964 30.4941 22.9362L37.4021 19.7198C38.0531 19.3442 38.1456 18.2763 37.5969 17.3202C37.0422 16.3639 36.0679 15.9108 35.421 16.2865L29.1819 20.6627C28.8253 20.9559 28.7987 21.6173 29.1378 22.2051L29.1356 22.2006ZM26.3447 30.1227C26.2692 29.6659 25.7102 29.3156 25.031 29.3152C24.3534 29.3156 23.7945 29.6659 23.7207 30.1227L23.05 37.7117C23.05 38.4642 23.928 39.0787 25.032 39.0787C26.137 39.0787 27.0158 38.4642 27.0158 37.7117L26.3447 30.1227ZM29.1356 26.9439L29.1363 26.9427H29.1378C28.7987 27.5301 28.8253 28.1919 29.1819 28.4874L35.421 32.8596C36.0679 33.2347 37.0422 32.7803 37.5969 31.8271C38.1456 30.8703 38.0531 29.8014 37.4021 29.4254L30.4941 26.2111C30.0622 26.0493 29.4769 26.3543 29.1363 26.9427H29.1351L29.1356 26.9439ZM20.9284 26.9444C21.2686 27.5311 21.2426 28.1921 20.8835 28.4879L14.6448 32.86C13.9962 33.2351 13.0236 32.7808 12.4717 31.8276C11.9178 30.8707 12.016 29.8019 12.6629 29.4258L19.5709 26.2116C20.0027 26.0496 20.5915 26.3551 20.9298 26.9444H20.9284Z" fill="#FFCB33"/>
</svg>
