<svg width="30" height="31" viewBox="0 0 30 31" fill="none" xmlns="http://www.w3.org/2000/svg">
<path fill-rule="evenodd" clip-rule="evenodd" d="M15 5.5C9.48 5.5 5 9.98 5 15.5C5 21.02 9.48 25.5 15 25.5C20.52 25.5 25 21.02 25 15.5C25 9.98 20.52 5.5 15 5.5ZM19 16.5H16V19.5C16 20.05 15.55 20.5 15 20.5C14.45 20.5 14 20.05 14 19.5V16.5H11C10.45 16.5 10 16.05 10 15.5C10 14.95 10.45 14.5 11 14.5H14V11.5C14 10.95 14.45 10.5 15 10.5C15.55 10.5 16 10.95 16 11.5V14.5H19C19.55 14.5 20 14.95 20 15.5C20 16.05 19.55 16.5 19 16.5Z" fill="#C3CAD9"/>
</svg>
