<svg width="28" height="28" viewBox="0 0 28 28" fill="none" xmlns="http://www.w3.org/2000/svg">
<path fill-rule="evenodd" clip-rule="evenodd" d="M14 4.66667C8.84796 4.66667 4.66663 8.84801 4.66663 14C4.66663 19.152 8.84796 23.3333 14 23.3333C19.152 23.3333 23.3333 19.152 23.3333 14C23.3333 8.84801 19.152 4.66667 14 4.66667ZM17.7333 14.9333H14.9333V17.7333C14.9333 18.2467 14.5133 18.6667 14 18.6667C13.4866 18.6667 13.0666 18.2467 13.0666 17.7333V14.9333H10.2666C9.75329 14.9333 9.33329 14.5133 9.33329 14C9.33329 13.4867 9.75329 13.0667 10.2666 13.0667H13.0666V10.2667C13.0666 9.75334 13.4866 9.33334 14 9.33334C14.5133 9.33334 14.9333 9.75334 14.9333 10.2667V13.0667H17.7333C18.2466 13.0667 18.6666 13.4867 18.6666 14C18.6666 14.5133 18.2466 14.9333 17.7333 14.9333Z" fill="white"/>
</svg>
