<svg width="28" height="28" viewBox="0 0 28 28" fill="none" xmlns="http://www.w3.org/2000/svg">
<path fill-rule="evenodd" clip-rule="evenodd" d="M13.9907 4.66669C8.83867 4.66669 4.66667 8.84802 4.66667 14C4.66667 19.152 8.83867 23.3334 13.9907 23.3334C19.152 23.3334 23.3333 19.152 23.3333 14C23.3333 8.84802 19.152 4.66669 13.9907 4.66669ZM14 21.4667C9.87467 21.4667 6.53334 18.1254 6.53334 14C6.53334 9.87469 9.87467 6.53335 14 6.53335C18.1253 6.53335 21.4667 9.87469 21.4667 14C21.4667 18.1254 18.1253 21.4667 14 21.4667ZM17.2667 13.0667C18.0413 13.0667 18.6667 12.4414 18.6667 11.6667C18.6667 10.892 18.0413 10.2667 17.2667 10.2667C16.492 10.2667 15.8667 10.892 15.8667 11.6667C15.8667 12.4414 16.492 13.0667 17.2667 13.0667ZM10.7333 13.0667C11.508 13.0667 12.1333 12.4414 12.1333 11.6667C12.1333 10.892 11.508 10.2667 10.7333 10.2667C9.95867 10.2667 9.33334 10.892 9.33334 11.6667C9.33334 12.4414 9.95867 13.0667 10.7333 13.0667ZM14 19.1334C15.8947 19.1334 17.5467 18.0974 18.4333 16.5667C18.6107 16.2587 18.3867 15.8667 18.0227 15.8667H9.97734C9.62267 15.8667 9.38934 16.2587 9.56667 16.5667C10.4533 18.0974 12.1053 19.1334 14 19.1334Z" fill="#8833FF"/>
</svg>
