<svg width="28" height="29" viewBox="0 0 28 29" fill="none" xmlns="http://www.w3.org/2000/svg">
<path fill-rule="evenodd" clip-rule="evenodd" d="M6.14973 9.44971C5.21125 10.9055 4.66667 12.6391 4.66667 14.5C4.66667 19.6546 8.84535 23.8333 14 23.8333C15.8609 23.8333 17.5945 23.2887 19.0503 22.3503L15.5891 18.8891C15.0931 19.0687 14.558 19.1667 14 19.1667C11.4227 19.1667 9.33334 17.0773 9.33334 14.5C9.33334 13.942 9.43127 13.4069 9.61089 12.9109L6.14973 9.44971ZM12.4109 10.1109L8.94973 6.64971C10.4055 5.71123 12.1392 5.16666 14 5.16666C19.1547 5.16666 23.3333 9.34533 23.3333 14.5C23.3333 16.3608 22.7888 18.0945 21.8503 19.5503L18.3891 16.0891C18.5687 15.5931 18.6667 15.058 18.6667 14.5C18.6667 11.9227 16.5773 9.83332 14 9.83332C13.442 9.83332 12.9069 9.93126 12.4109 10.1109Z" fill="#8833FF"/>
</svg>
