<svg width="30" height="30" viewBox="0 0 30 30" fill="none" xmlns="http://www.w3.org/2000/svg">
<g id="Icon">
<path id="Icon_2" fill-rule="evenodd" clip-rule="evenodd" d="M18.5006 17.0006H17.7106L17.4306 16.7306C18.6306 15.3306 19.2506 13.4206 18.9106 11.3906C18.4406 8.61063 16.1206 6.39063 13.3206 6.05063C9.09063 5.53063 5.53063 9.09063 6.05063 13.3206C6.39063 16.1206 8.61063 18.4406 11.3906 18.9106C13.4206 19.2506 15.3306 18.6306 16.7306 17.4306L17.0006 17.7106V18.5006L21.2506 22.7506C21.6606 23.1606 22.3306 23.1606 22.7406 22.7506C23.1506 22.3406 23.1506 21.6706 22.7406 21.2606L18.5006 17.0006ZM12.5006 17.0006C10.0106 17.0006 8.00063 14.9906 8.00063 12.5006C8.00063 10.0106 10.0106 8.00063 12.5006 8.00063C14.9906 8.00063 17.0006 10.0106 17.0006 12.5006C17.0006 14.9906 14.9906 17.0006 12.5006 17.0006Z" fill="#C3CAD9"/>
</g>
</svg>
