<svg width="50" height="50" viewBox="0 0 50 50" fill="none" xmlns="http://www.w3.org/2000/svg">
<g id="Icon">
<rect id="Base" width="50" height="50" rx="25" fill="#33BFFF"/>
<path id="Icon_2" d="M28.3363 18.0033V18H29.202L29.5183 18.0633C29.7292 18.1043 29.9206 18.1582 30.0927 18.2248C30.2647 18.2913 30.4312 18.369 30.5921 18.4578C30.7531 18.5466 30.899 18.6371 31.03 18.7292C31.1598 18.8202 31.2764 18.9168 31.3796 19.0189C31.4817 19.1221 31.641 19.1487 31.8574 19.0988C32.0738 19.0488 32.3069 18.9795 32.5566 18.8907C32.8063 18.8019 33.0533 18.702 33.2974 18.591C33.5416 18.48 33.6904 18.4095 33.7436 18.3796C33.7958 18.3485 33.8235 18.3319 33.8269 18.3296L33.8302 18.3246L33.8468 18.3163L33.8635 18.308L33.8801 18.2997L33.8968 18.2913L33.9001 18.2863L33.9051 18.283L33.9101 18.2797L33.9134 18.2747L33.9301 18.2697L33.9467 18.2664L33.9434 18.2913L33.9384 18.3163L33.9301 18.3413L33.9218 18.3663L33.9134 18.3829L33.9051 18.3996L33.8968 18.4245C33.8912 18.4412 33.8857 18.4634 33.8801 18.4911C33.8746 18.5189 33.8219 18.6299 33.722 18.8241C33.6221 19.0183 33.4972 19.2153 33.3474 19.4151C33.1976 19.6149 33.0633 19.7658 32.9445 19.8679C32.8247 19.9711 32.7453 20.0433 32.7064 20.0844C32.6676 20.1265 32.6204 20.1654 32.5649 20.2009L32.4817 20.2558L32.465 20.2642L32.4484 20.2725L32.4451 20.2775L32.4401 20.2808L32.4351 20.2841L32.4317 20.2891L32.4151 20.2974L32.3984 20.3058L32.3951 20.3108L32.3901 20.3141L32.3851 20.3174L32.3818 20.3224L32.3785 20.3274L32.3735 20.3307L32.3685 20.3341L32.3652 20.3391H32.4484L32.9145 20.2392C33.2253 20.1726 33.5222 20.0921 33.8052 19.9978L34.2547 19.8479L34.3047 19.8313L34.3296 19.823L34.3463 19.8147L34.3629 19.8063L34.3796 19.798L34.3962 19.7897L34.4295 19.7847L34.4628 19.7814V19.8147L34.4545 19.818L34.4462 19.823L34.4429 19.828L34.4378 19.8313L34.4329 19.8346L34.4295 19.8396L34.4262 19.8446L34.4212 19.8479L34.4162 19.8513L34.4129 19.8563L34.4096 19.8613L34.4046 19.8646L34.3962 19.8812L34.3879 19.8979L34.3829 19.9012C34.3807 19.9046 34.3102 19.9989 34.1715 20.1842C34.0327 20.3707 33.9578 20.465 33.9467 20.4673C33.9356 20.4706 33.9201 20.4872 33.9001 20.5172C33.8812 20.5483 33.7636 20.672 33.5472 20.8885C33.3307 21.1049 33.1188 21.2974 32.9112 21.4661C32.7026 21.636 32.5971 21.8446 32.5949 22.0921C32.5916 22.3385 32.5788 22.6171 32.5566 22.9279C32.5344 23.2386 32.4928 23.5744 32.4317 23.9351C32.3707 24.2958 32.2764 24.7037 32.1487 25.1587C32.0211 25.6138 31.8657 26.0577 31.6826 26.4906C31.4994 26.9234 31.308 27.3119 31.1082 27.6559C30.9084 28 30.7253 28.2913 30.5588 28.53C30.3923 28.7686 30.2231 28.9933 30.0511 29.2042C29.879 29.4151 29.6615 29.6526 29.3985 29.9168C29.1343 30.1798 28.99 30.3241 28.9656 30.3496C28.9401 30.374 28.8313 30.465 28.6393 30.6226C28.4484 30.7813 28.2431 30.9401 28.0233 31.0988C27.8047 31.2564 27.6038 31.3879 27.4206 31.4933C27.2375 31.5988 27.0167 31.7192 26.758 31.8546C26.5006 31.9911 26.222 32.1176 25.9223 32.2342C25.6226 32.3507 25.3063 32.4589 24.9734 32.5588C24.6404 32.6587 24.3185 32.7364 24.0078 32.7919C23.697 32.8474 23.3446 32.8946 22.9506 32.9334L22.3596 32.9917V33H21.2775V32.9917L21.136 32.9834C21.0416 32.9778 20.9639 32.9722 20.9029 32.9667C20.8419 32.9612 20.6115 32.9306 20.212 32.8751C19.8124 32.8196 19.4989 32.7641 19.2714 32.7087C19.0439 32.6532 18.7053 32.5477 18.2558 32.3923C17.8063 32.237 17.4218 32.0799 17.1021 31.9212C16.7836 31.7636 16.5838 31.6637 16.5028 31.6215C16.4229 31.5805 16.333 31.5294 16.2331 31.4684L16.0832 31.3768L16.0799 31.3718L16.0749 31.3685L16.0699 31.3651L16.0666 31.3602L16.0499 31.3518L16.0333 31.3435L16.03 31.3385L16.025 31.3352L16.02 31.3319L16.0166 31.3269L16.0133 31.3219L16.0083 31.3185H16V31.2852L16.0166 31.2886L16.0333 31.2936L16.1082 31.3019C16.1582 31.3074 16.2941 31.3158 16.5161 31.3269C16.7381 31.338 16.9739 31.338 17.2236 31.3269C17.4734 31.3158 17.7286 31.2908 17.9895 31.2519C18.2503 31.2131 18.5583 31.1465 18.9134 31.0522C19.2686 30.9578 19.5949 30.8457 19.8924 30.7159C20.1887 30.5849 20.3996 30.4872 20.525 30.4229C20.6493 30.3596 20.8391 30.2419 21.0943 30.0699L21.4772 29.8119L21.4806 29.8069L21.4856 29.8036L21.4906 29.8002L21.4939 29.7952L21.4972 29.7902L21.5022 29.7869L21.5072 29.7836L21.5105 29.7786L21.5272 29.7736L21.5438 29.7703L21.5472 29.7536L21.5522 29.737L21.5572 29.7336L21.5605 29.7286L21.4273 29.7203C21.3385 29.7148 21.2525 29.7092 21.1693 29.7037C21.086 29.6981 20.9556 29.6731 20.778 29.6287C20.6005 29.5843 20.409 29.5178 20.2037 29.429C19.9983 29.3402 19.7986 29.2347 19.6043 29.1127C19.4101 28.9906 19.2697 28.889 19.1831 28.808C19.0977 28.7281 18.9867 28.6149 18.8502 28.4684C18.7148 28.3208 18.5971 28.1693 18.4972 28.0139C18.3973 27.8585 18.3019 27.6792 18.2109 27.4761L18.0727 27.1731L18.0644 27.1482L18.056 27.1232L18.0511 27.1065L18.0477 27.0899L18.0727 27.0932L18.0977 27.0982L18.2808 27.1232C18.4029 27.1398 18.5944 27.1454 18.8552 27.1398C19.116 27.1343 19.2963 27.1232 19.3962 27.1065C19.4961 27.0899 19.5572 27.0788 19.5794 27.0733L19.6127 27.0649L19.6543 27.0566L19.6959 27.0483L19.6992 27.0433L19.7042 27.04L19.7092 27.0366L19.7125 27.0316L19.6792 27.0233L19.6459 27.015L19.6127 27.0067L19.5794 26.9983L19.5461 26.99C19.5239 26.9845 19.485 26.9734 19.4295 26.9567C19.374 26.9401 19.2242 26.879 18.98 26.7736C18.7359 26.6682 18.5416 26.5655 18.3973 26.4656C18.2527 26.3654 18.1148 26.2559 17.9845 26.1376C17.8546 26.0178 17.712 25.8635 17.5566 25.6748C17.4012 25.4861 17.2625 25.2669 17.1404 25.0172C17.0183 24.7675 16.9268 24.5289 16.8657 24.3013C16.8049 24.0751 16.7648 23.8439 16.7459 23.6104L16.7159 23.2608L16.7325 23.2642L16.7492 23.2691L16.7658 23.2775L16.7825 23.2858L16.7991 23.2941L16.8158 23.3024L17.0738 23.419C17.2458 23.4967 17.4595 23.5633 17.7148 23.6188C17.97 23.6742 18.1226 23.7048 18.1726 23.7103L18.2475 23.7186H18.3973L18.394 23.7137L18.389 23.7103L18.384 23.707L18.3807 23.702L18.3774 23.697L18.3724 23.6937L18.3674 23.6903L18.364 23.6853L18.3474 23.677L18.3307 23.6687L18.3274 23.6637L18.3224 23.6604L18.3174 23.657L18.3141 23.6521L18.2974 23.6437L18.2808 23.6354L18.2775 23.6304C18.2742 23.6282 18.2264 23.5927 18.1343 23.5239C18.0433 23.4539 17.9478 23.3635 17.8479 23.2525C17.7481 23.1415 17.6482 23.025 17.5483 22.9029C17.4482 22.7805 17.3591 22.6496 17.2819 22.5117C17.2042 22.3729 17.1221 22.1964 17.0355 21.9822C16.9501 21.7691 16.8851 21.5544 16.8407 21.338C16.7963 21.1215 16.7714 20.9079 16.7658 20.697C16.7603 20.4861 16.7658 20.3058 16.7825 20.1559C16.7991 20.0061 16.8324 19.8368 16.8824 19.6482C16.9323 19.4595 17.0045 19.2597 17.0988 19.0488L17.2403 18.7325L17.2486 18.7075L17.2569 18.6826L17.2619 18.6792L17.2653 18.6743L17.2686 18.6693L17.2736 18.6659L17.2786 18.6693L17.2819 18.6743L17.2852 18.6792L17.2902 18.6826L17.2952 18.6859L17.2986 18.6909L17.3019 18.6959L17.3069 18.6992L17.3152 18.7159L17.3235 18.7325L17.3285 18.7358L17.3319 18.7408L17.5566 18.9906C17.7064 19.157 17.884 19.343 18.0893 19.5483C18.2947 19.7536 18.4084 19.8601 18.4306 19.8679C18.4528 19.8768 18.4806 19.9023 18.5139 19.9445C18.5472 19.9856 18.6582 20.0838 18.8468 20.2392C19.0355 20.3946 19.2825 20.5749 19.5877 20.7802C19.8929 20.9856 20.2314 21.1881 20.6032 21.3879C20.975 21.5877 21.3746 21.768 21.8019 21.929C22.2292 22.0899 22.5289 22.1953 22.7009 22.2453C22.8729 22.2952 23.167 22.359 23.5832 22.4367C23.9994 22.5144 24.313 22.5644 24.5239 22.5866C24.7347 22.6088 24.879 22.6215 24.9567 22.6249L25.0733 22.6282L25.0699 22.6032L25.0649 22.5782L25.0316 22.3701C25.0094 22.2314 24.9983 22.0372 24.9983 21.7875C24.9983 21.5377 25.0178 21.3074 25.0566 21.0966C25.0955 20.8857 25.1537 20.672 25.2314 20.4556C25.3091 20.2392 25.3851 20.0655 25.4595 19.9345C25.535 19.8047 25.6337 19.6565 25.7558 19.49C25.8779 19.3235 26.0361 19.1515 26.2303 18.9739C26.4245 18.7963 26.6465 18.6382 26.8962 18.4994C27.1459 18.3607 27.3763 18.2553 27.5871 18.1831C27.798 18.111 27.9756 18.0638 28.1199 18.0416C28.2642 18.0194 28.3363 18.0067 28.3363 18.0033Z" fill="white"/>
</g>
</svg>
