<svg width="25" height="8" viewBox="0 0 25 8" fill="none" xmlns="http://www.w3.org/2000/svg">
<path d="M10.8869 7.71423H8.94031L10.1569 0.237427H12.1037L10.8869 7.71423Z" fill="white"/>
<path d="M7.30277 0.237427L5.44697 5.38003L5.22737 4.27263L5.22757 4.27303L4.57257 0.910627C4.57257 0.910627 4.49337 0.237427 3.64917 0.237427H0.581166L0.545166 0.364027C0.545166 0.364027 1.48337 0.559227 2.58137 1.21863L4.27257 7.71443H6.30077L9.39777 0.237427L7.30277 0.237427Z" fill="white"/>
<path fill-rule="evenodd" clip-rule="evenodd" d="M24.4012 7.71424H22.6138L22.3858 6.60364H19.9112L19.5054 7.71424H17.4762L20.3794 0.794444C20.3794 0.794444 20.5554 0.237244 21.278 0.237244H22.8428L24.4012 7.71424ZM21.4946 2.27144L20.4718 5.06944H22.07L21.4946 2.27144Z" fill="white"/>
<path d="M17.6284 2.03542L17.9062 0.429821C17.9062 0.429821 17.049 0.103821 16.1554 0.103821C15.1894 0.103821 12.8954 0.526021 12.8954 2.57902C12.8954 4.51062 15.5878 4.53462 15.5878 5.54922C15.5878 6.56382 13.1728 6.38202 12.3758 5.74222L12.0864 7.42102C12.0864 7.42102 12.9556 7.84322 14.2836 7.84322C15.612 7.84322 17.616 7.15542 17.616 5.28342C17.616 3.33942 14.8994 3.15842 14.8994 2.31322C14.8996 1.46782 16.7954 1.57642 17.6284 2.03542Z" fill="white"/>
<path d="M5.22757 4.27284L4.57257 0.910444C4.57257 0.910444 4.49337 0.237244 3.64917 0.237244H0.581166L0.545166 0.363844C0.545166 0.363844 2.01977 0.669444 3.43417 1.81444C4.78657 2.90884 5.22757 4.27284 5.22757 4.27284Z" fill="white"/>
</svg>
