<svg width="30" height="30" viewBox="0 0 30 30" fill="none" xmlns="http://www.w3.org/2000/svg">
<g id="Icon">
<path id="Icon_2" fill-rule="evenodd" clip-rule="evenodd" d="M15 5C9.47 5 5 9.47 5 15C5 20.53 9.47 25 15 25C20.53 25 25 20.53 25 15C25 9.47 20.53 5 15 5ZM19.3 19.3C18.91 19.69 18.28 19.69 17.89 19.3L15 16.41L12.11 19.3C11.72 19.69 11.09 19.69 10.7 19.3C10.5127 19.1132 10.4075 18.8595 10.4075 18.595C10.4075 18.3305 10.5127 18.0768 10.7 17.89L13.59 15L10.7 12.11C10.5127 11.9232 10.4075 11.6695 10.4075 11.405C10.4075 11.1405 10.5127 10.8868 10.7 10.7C11.09 10.31 11.72 10.31 12.11 10.7L15 13.59L17.89 10.7C18.28 10.31 18.91 10.31 19.3 10.7C19.69 11.09 19.69 11.72 19.3 12.11L16.41 15L19.3 17.89C19.68 18.27 19.68 18.91 19.3 19.3Z" fill="#C3CAD9"/>
</g>
</svg>
